STARTFONT 2.3
FONT -FontForge-Roboto Condensed-Book-R-Condensed---24-240-72-72-P-118-ISO10646-1
SIZE 24 72 72  4
FONTBOUNDINGBOX 42 33 -18 -7
COMMENT "Generated by fontforge, http://fontforge.sourceforge.net"
COMMENT "Copyright 2011 Google Inc. All Rights Reserved."
STARTPROPERTIES 42
FOUNDRY "FontForge"
FAMILY_NAME "Roboto Condensed"
WEIGHT_NAME "Book"
SLANT "R"
SETWIDTH_NAME "Condensed"
ADD_STYLE_NAME ""
PIXEL_SIZE 24
POINT_SIZE 240
RESOLUTION_X 72
RESOLUTION_Y 72
SPACING "P"
AVERAGE_WIDTH 118
CHARSET_REGISTRY "ISO10646"
CHARSET_ENCODING "1"
FONTNAME_REGISTRY ""
CHARSET_COLLECTIONS "ISO8859-2 ISO8859-5 ISO8859-7 ISO8859-9 ISO8859-4 ISO10646-1"
BITS_PER_PIXEL 4
FONT_NAME "RobotoCondensed-Regular"
FACE_NAME "Roboto Condensed"
COPYRIGHT "Copyright 2011 Google Inc. All Rights Reserved."
FONT_VERSION "2.137; 2017"
FONT_ASCENT 18
FONT_DESCENT 6
UNDERLINE_POSITION -2
UNDERLINE_THICKNESS 2
X_HEIGHT 12
CAP_HEIGHT 16
DEFAULT_CHAR 1
RAW_ASCENT 750
RAW_DESCENT 250
NORM_SPACE 6
RELATIVE_WEIGHT 40
RELATIVE_SETWIDTH 50
SUPERSCRIPT_X 0
SUPERSCRIPT_Y 11
SUPERSCRIPT_SIZE 15
SUBSCRIPT_X 0
SUBSCRIPT_Y 3
SUBSCRIPT_SIZE 15
FIGURE_WIDTH 12
AVG_LOWERCASE_WIDTH 116
AVG_UPPERCASE_WIDTH 137
ENDPROPERTIES
CHARS 1296
STARTCHAR uni0000
ENCODING 0
SWIDTH 0 0
DWIDTH 0 0
BBX 1 1 0 0
BITMAP
00
ENDCHAR
STARTCHAR uni0002
ENCODING 2
SWIDTH 0 0
DWIDTH 0 0
BBX 1 1 0 0
BITMAP
00
ENDCHAR
STARTCHAR uni000D
ENCODING 13
SWIDTH 229 0
DWIDTH 6 0
BBX 1 1 0 0
BITMAP
00
ENDCHAR
STARTCHAR space
ENCODING 32
SWIDTH 229 0
DWIDTH 6 0
BBX 1 1 0 0
BITMAP
00
ENDCHAR
STARTCHAR exclam
ENCODING 33
SWIDTH 245 0
DWIDTH 6 0
BBX 4 17 1 0
BITMAP
2FF1
2FF1
1FF0
1FF0
1FF0
1FF0
1FF0
0FE0
0FE0
0FE0
0FE0
0FD0
0110
0000
0550
2FF2
1DD1
ENDCHAR
STARTCHAR quotedbl
ENCODING 34
SWIDTH 319 0
DWIDTH 8 0
BBX 6 6 1 12
BITMAP
6F44F6
6F44F6
6F34F5
6F14F4
6F04F3
6E04F2
ENDCHAR
STARTCHAR numbersign
ENCODING 35
SWIDTH 547 0
DWIDTH 13 0
BBX 12 17 1 0
BITMAP
00004F504F50
00007F207F20
0000AE00AE00
0000DB00DB00
0BFFFFFFFFF8
079BFB9BFB95
0005F306F300
0008F108F100
000AD00AD000
000CB00DB000
7FFFFFFFFFC0
49AFB9AFB970
005F405F4000
007F207F2000
009E009E0000
00BC00CC0000
00DA00EA0000
ENDCHAR
STARTCHAR dollar
ENCODING 36
SWIDTH 493 0
DWIDTH 12 0
BBX 10 23 1 -3
BITMAP
0000690000
0000AF0000
0000AF0000
003BFFC500
03EFEEFF50
0BF9008FD0
0FF1001EF3
2FE0000BF5
0FF2000473
0BFC100000
03EFE82000
003CFFF800
00004CFF90
0000006FF3
2310000BF6
9F700008F8
7FA0000BF6
2FF5006FF2
09FFEEFF80
007DFFC600
0000DB0000
0000DB0000
0000330000
ENDCHAR
STARTCHAR percent
ENCODING 37
SWIDTH 632 0
DWIDTH 15 0
BBX 14 17 1 0
BITMAP
05DEA100000000
3FB8EA00000000
9E008F100A5000
BC005F304F4000
BC005F30CC0000
9E007F15F40000
3FB7EA0DB00000
05DEA16F300000
000000DA000000
000006F26DE900
00001E95FA8F80
00007E1BD009E0
0001E80DA006F1
0008E10DA006F2
002E700AD009E0
002B1005FA8F90
000000006DE910
ENDCHAR
STARTCHAR ampersand
ENCODING 38
SWIDTH 543 0
DWIDTH 13 0
BBX 12 17 1 0
BITMAP
002AEEA20000
01DFEDFD1000
06FC00AF6000
09F7005F8000
09F7008F6000
06FD03EE1000
00DFBFF40000
004FFE300000
00AFFD100000
0BFBCF900CC0
5FD02EF50FD0
AF6006FE6FA0
CF5000AFFF60
AF70001DFE10
5FE3004EFF30
0AFFDDFFCFC0
006CFEB41DF8
ENDCHAR
STARTCHAR quotesingle
ENCODING 39
SWIDTH 174 0
DWIDTH 4 0
BBX 2 6 1 12
BITMAP
CF
CE
CE
CD
CC
CB
ENDCHAR
STARTCHAR parenleft
ENCODING 40
SWIDTH 313 0
DWIDTH 8 0
BBX 6 25 1 -6
BITMAP
000038
0002EB
000BE1
005F70
00CE10
03F900
09F500
0DF200
1FD000
4FC000
5FA000
6F9000
7F9000
6F9000
5FA000
4FB000
1FD000
0DF100
09F500
04F900
00DE10
005F60
000BE1
0002EA
000038
ENDCHAR
STARTCHAR parenright
ENCODING 41
SWIDTH 318 0
DWIDTH 8 0
BBX 6 25 0 -6
BITMAP
290000
3F9000
08F400
01ED00
007F50
002FC0
000CF2
0009F6
0006F9
0004FC
0002FD
0002FE
0001FF
0002FE
0003FE
0004FC
0006F9
0009F6
000CF2
001FC0
006F50
00DD00
07F400
3F9000
290000
ENDCHAR
STARTCHAR asterisk
ENCODING 42
SWIDTH 430 0
DWIDTH 10 0
BBX 10 10 0 7
BITMAP
0000AF1000
0000AF1000
1100AF0001
6FA5AF38EA
5CFFFFFFD9
0018FFB300
001DEDE200
009F63FC00
04FB008F70
0052001800
ENDCHAR
STARTCHAR plus
ENCODING 43
SWIDTH 496 0
DWIDTH 12 0
BBX 10 13 1 1
BITMAP
0001FF0000
0001FF0000
0001FF0000
0001FF0000
0001FF0000
FFFFFFFFFD
FFFFFFFFFD
1112FF1111
0001FF0000
0001FF0000
0001FF0000
0001FF0000
0001760000
ENDCHAR
STARTCHAR comma
ENCODING 44
SWIDTH 196 0
DWIDTH 5 0
BBX 4 6 0 -3
BITMAP
0485
08F9
08F8
0BF5
3FC0
4C30
ENDCHAR
STARTCHAR hyphen
ENCODING 45
SWIDTH 248 0
DWIDTH 6 0
BBX 6 2 0 6
BITMAP
7FFFF6
5CCCC4
ENDCHAR
STARTCHAR period
ENCODING 46
SWIDTH 263 0
DWIDTH 6 0
BBX 4 3 1 0
BITMAP
0770
4FF5
2DD2
ENDCHAR
STARTCHAR slash
ENCODING 47
SWIDTH 370 0
DWIDTH 9 0
BBX 8 18 0 -1
BITMAP
000000CE
000002F9
000007F4
00000CE0
00002F90
00007F40
0000CE00
0002F900
0007F400
000CE000
002F9000
007F4000
00CE0000
02F90000
07F40000
0CE00000
2F900000
7F400000
ENDCHAR
STARTCHAR zero
ENCODING 48
SWIDTH 493 0
DWIDTH 12 0
BBX 10 17 1 0
BITMAP
004CEEB300
05FFDDFE30
0DF6009FB0
4FD0001EF1
7F90000BF4
9F70000AF6
AF600009F7
AF600009F7
AF600009F7
AF600009F7
9F600009F7
9F70000AF6
7F90000CF4
3FD0001FF1
0DF7008FA0
04FFDDFE20
004CEEB300
ENDCHAR
STARTCHAR one
ENCODING 49
SWIDTH 493 0
DWIDTH 12 0
BBX 7 17 1 0
BITMAP
00015B80
039EFF80
2FFDCF80
2B408F80
00008F80
00008F80
00008F80
00008F80
00008F80
00008F80
00008F80
00008F80
00008F80
00008F80
00008F80
00008F80
00008F80
ENDCHAR
STARTCHAR two
ENCODING 50
SWIDTH 493 0
DWIDTH 12 0
BBX 10 17 1 0
BITMAP
006CEEB400
09FFDEFF50
4FE3009FD0
AF70001FF3
DF40000DF4
4410000DF2
0000002FD0
000000AF70
000005FD00
00002EF400
0000CF8000
0009FB0000
005FD10000
03EF300000
1DF6000000
8FFCCCCCCA
9FFFFFFFFE
ENDCHAR
STARTCHAR three
ENCODING 51
SWIDTH 493 0
DWIDTH 12 0
BBX 10 17 1 0
BITMAP
007DFEA300
09FFDEFE30
4FE3009FB0
9F80002FF0
8B40001FF0
0000003FD0
000004DF60
000FFFF600
000BCEFC10
000001AFB0
0000001FF1
0000000DF3
9B30000DF3
BF60001FF1
6FD2009FB0
0BFFCEFE20
008DFEA200
ENDCHAR
STARTCHAR four
ENCODING 52
SWIDTH 493 0
DWIDTH 12 0
BBX 12 17 0 0
BITMAP
0000003FF300
000000CFF300
000005FFF300
00000DEDF300
00007F7DF300
0001ED1DF300
0008F60DF300
002FD00DF300
00AF500DF300
03FC000DF300
0BF4000DF300
3FFFFFFFFFF2
3CCCCCCEFCC1
0000000DF300
0000000DF300
0000000DF300
0000000DF300
ENDCHAR
STARTCHAR five
ENCODING 53
SWIDTH 493 0
DWIDTH 12 0
BBX 10 17 1 0
BITMAP
01FFFFFFF6
03FFFFFFF6
04FA000000
05F9000000
07F7000000
08F6000000
09F9CED800
0AFFFFFFA0
08E7117FF4
0000000AF9
00000005FC
00000004FC
3B800005FC
1FE00009F9
0BF9004EF4
02EFEDFF90
002AEFC600
ENDCHAR
STARTCHAR six
ENCODING 54
SWIDTH 493 0
DWIDTH 12 0
BBX 10 17 1 0
BITMAP
00006BE900
002DFFE800
00DFB30000
06FC000000
0CF4000000
1FE0000000
4FB7DFD700
5FFFEDFF80
6FF9105FF2
7FD0000BF7
7F900007F9
6FA00006FA
4FC00007F9
1EF3000BF6
09FB105FE1
01DFEDFF60
0019EFC500
ENDCHAR
STARTCHAR seven
ENCODING 55
SWIDTH 493 0
DWIDTH 12 0
BBX 10 17 1 0
BITMAP
FFFFFFFFFC
CCCCCCCDFA
0000000AF5
0000001FE0
0000007F80
000000CF30
000003FC00
000009F700
00001EF100
00005FA000
0000BF5000
0002FE0000
0008F90000
000DF30000
004FD00000
00AF700000
01FF200000
ENDCHAR
STARTCHAR eight
ENCODING 56
SWIDTH 493 0
DWIDTH 12 0
BBX 10 17 1 0
BITMAP
005CFEB300
06FFDEFF40
1EF6009FC0
4FD0001FF1
4FC0000EF2
2FE0002FE0
0AF912BF80
01BFFFF900
03DFDEFC10
1DF5008FB0
6FB0000DF3
9F70000AF6
9F70000AF7
7FA0000DF5
2FF4006FE1
07FFDDFF50
005CFEB400
ENDCHAR
STARTCHAR nine
ENCODING 57
SWIDTH 493 0
DWIDTH 12 0
BBX 10 17 1 0
BITMAP
005CFD8100
06FFDFFB00
1EF502EF60
7FA0006FC0
AF60001FF1
BF40000EF3
BF50000CF4
AF60000CF4
7FB0004FF4
2EF714EFF3
06FFFFADF2
004AB71FE0
0000004FA0
000000CF50
00003BFC00
009EFFC100
00BEB60000
ENDCHAR
STARTCHAR colon
ENCODING 58
SWIDTH 233 0
DWIDTH 6 0
BBX 4 13 1 0
BITMAP
0770
5FF4
2DD2
0000
0000
0000
0000
0000
0000
0000
0760
5FF4
2ED1
ENDCHAR
STARTCHAR semicolon
ENCODING 59
SWIDTH 202 0
DWIDTH 5 0
BBX 4 16 0 -3
BITMAP
0284
09FF
05EA
0000
0000
0000
0000
0000
0000
0000
0387
05FC
06FB
09F7
1EE1
2C40
ENDCHAR
STARTCHAR less
ENCODING 60
SWIDTH 445 0
DWIDTH 11 0
BBX 9 11 0 2
BITMAP
00000003A0
0000019FE0
00007EFF90
004DFFA200
0BFFB30000
1FF7000000
0BFFA30000
005DFFA200
00007EFF90
0000019FE0
00000003A0
ENDCHAR
STARTCHAR equal
ENCODING 61
SWIDTH 479 0
DWIDTH 12 0
BBX 9 7 1 5
BITMAP
4FFFFFFFE0
4DDDDDDDD0
0000000000
0000000000
0000000000
4FFFFFFFE0
3DDDDDDDD0
ENDCHAR
STARTCHAR greater
ENCODING 62
SWIDTH 459 0
DWIDTH 11 0
BBX 9 11 1 2
BITMAP
5810000000
6FE6000000
3BFFD50000
004BFFC300
00004BFFA0
0000008FF0
00005CFFA0
005CFFC300
3CFFD50000
6FE6000000
5810000000
ENDCHAR
STARTCHAR question
ENCODING 63
SWIDTH 421 0
DWIDTH 10 0
BBX 9 17 1 0
BITMAP
03BEEC4000
3FFFFFF400
BFA109FC00
FF2001FF10
220000FF10
000003FE00
00000AF900
00006FE100
0003FF4000
000CF70000
002FE00000
004FC00000
0012100000
0000000000
0006300000
004FE00000
002EA00000
ENDCHAR
STARTCHAR at
ENCODING 64
SWIDTH 769 0
DWIDTH 18 0
BBX 17 22 1 -5
BITMAP
0000039DFEC7100000
00008FEA99CFD30000
000AF8100003CE2000
006F700000001DC000
01EA0000000004F400
07F20008EE9100C900
0CC0009FA9FB007D00
2F8004F800EA005F10
5F400AF101F9003F30
7F200EB002F8002F30
9F003F8003F7002F40
9F005F6004F6003F30
9F006F6005F4005F20
8F106F7008F4009D00
7F203FB01EF501E800
3F600DFCD9FD7CD100
0EA003DE905DEB2000
09F200000000000000
02FB00000000000000
007FB1000012000000
0007FFA88AE9000000
000029DFFC82000000
ENDCHAR
STARTCHAR A
ENCODING 65
SWIDTH 576 0
DWIDTH 14 0
BBX 14 17 0 0
BITMAP
000002FE100000
000007FF500000
00000CFFA00000
00002FCEE00000
00007F7AF40000
0000CF35F90000
0002FD01FE0000
0006F900CF4000
000BF5007F9000
001FF1003FE000
006FB0000DF400
00BFFFFFFFF800
01FFDDDDDDFD00
06FC000001EF30
0AF8000000AF80
1FF30000005FD0
5FD00000001FF3
ENDCHAR
STARTCHAR B
ENCODING 66
SWIDTH 545 0
DWIDTH 13 0
BBX 11 17 1 0
BITMAP
2FFFFFEC6000
2FFDDDEFF800
2FF00007FF10
2FF00000EF50
2FF00000CF50
2FF00001EF30
2FF0002BFA00
2FFFFFFFA100
2FFCCCEFE500
2FF00005FF20
2FF00000AF80
2FF000007FA0
2FF000008FA0
2FF00000BF80
2FF00006FF30
2FFDDDEFF800
2FFFFFEC6000
ENDCHAR
STARTCHAR C
ENCODING 67
SWIDTH 566 0
DWIDTH 14 0
BBX 12 17 1 0
BITMAP
0005BEFD8100
009FFEEFFD20
06FE5002CFB0
0EF600002FF2
4FE000000CF6
7FB0000007B6
8FA000000000
8F9000000000
8F9000000000
8F9000000000
8FA000000000
7FB0000007A5
4FE000000CF6
0EF500001FF2
06FE4002BFB0
00AFFDDFFD20
0006CEFD8100
ENDCHAR
STARTCHAR D
ENCODING 68
SWIDTH 570 0
DWIDTH 14 0
BBX 12 17 1 0
BITMAP
2FFFFEC81000
2FFDDEFFE300
2FF0002AFE10
2FF00000BF80
2FF000004FD0
2FF000001FF1
2FF000000EF2
2FF000000EF3
2FF000000EF3
2FF000000EF3
2FF000000EF2
2FF000001FF1
2FF000004FD0
2FF00000BF80
2FF0002AFE10
2FFDDEFFE300
2FFFFEC71000
ENDCHAR
STARTCHAR E
ENCODING 69
SWIDTH 496 0
DWIDTH 12 0
BBX 10 17 1 0
BITMAP
2FFFFFFFFE
2FFDDDDDDC
2FF0000000
2FF0000000
2FF0000000
2FF0000000
2FF0000000
2FFFFFFFF0
2FFDDDDDD0
2FF0000000
2FF0000000
2FF0000000
2FF0000000
2FF0000000
2FF0000000
2FFDDDDDDD
2FFFFFFFFF
ENDCHAR
STARTCHAR F
ENCODING 70
SWIDTH 480 0
DWIDTH 12 0
BBX 10 17 1 0
BITMAP
2FFFFFFFFB
2FFDDDDDD9
2FF0000000
2FF0000000
2FF0000000
2FF0000000
2FF0000000
2FFFFFFFB0
2FFDDDDDA0
2FF0000000
2FF0000000
2FF0000000
2FF0000000
2FF0000000
2FF0000000
2FF0000000
2FF0000000
ENDCHAR
STARTCHAR G
ENCODING 71
SWIDTH 590 0
DWIDTH 14 0
BBX 12 17 1 0
BITMAP
0007CEFD9200
01CFFEEFFE20
09FD4002CFC0
1FF400002FF3
5FD000000CF6
7FA000000242
8F9000000000
8F9000000000
8F9000000000
8F9000BFFFF8
8F90009CCEF8
7FB0000009F8
4FE0000009F8
0EF6000009F8
07FE50004DF8
009FFEDEFFC1
0005BEFEB600
ENDCHAR
STARTCHAR H
ENCODING 72
SWIDTH 620 0
DWIDTH 15 0
BBX 12 17 1 0
BITMAP
2FF0000002FF
2FF0000002FF
2FF0000002FF
2FF0000002FF
2FF0000002FF
2FF0000002FF
2FF0000002FF
2FFFFFFFFFFF
2FFDDDDDDDFF
2FF0000002FF
2FF0000002FF
2FF0000002FF
2FF0000002FF
2FF0000002FF
2FF0000002FF
2FF0000002FF
2FF0000002FF
ENDCHAR
STARTCHAR I
ENCODING 73
SWIDTH 250 0
DWIDTH 6 0
BBX 4 17 1 0
BITMAP
1FF1
1FF1
1FF1
1FF1
1FF1
1FF1
1FF1
1FF1
1FF1
1FF1
1FF1
1FF1
1FF1
1FF1
1FF1
1FF1
1FF1
ENDCHAR
STARTCHAR J
ENCODING 74
SWIDTH 483 0
DWIDTH 12 0
BBX 10 17 0 0
BITMAP
00000004FD
00000004FD
00000004FD
00000004FD
00000004FD
00000004FD
00000004FD
00000004FD
00000004FD
00000004FD
00000004FD
00000004FD
4ED00005FC
2FF20009FA
0DFA104FF5
04FFFEFFA0
003BEFD700
ENDCHAR
STARTCHAR K
ENCODING 75
SWIDTH 544 0
DWIDTH 13 0
BBX 12 17 1 0
BITMAP
2FF000006FF3
2FF00002EF70
2FF0000CFB00
2FF0008FD100
2FF004FF4000
2FF01EF70000
2FF0BFB00000
2FF7FF300000
2FFFFFA00000
2FFF8FF40000
2FF808FD1000
2FF001DF8000
2FF0005FF300
2FF0000BFC00
2FF00002EF60
2FF000007FE2
2FF000000DFA
ENDCHAR
STARTCHAR L
ENCODING 76
SWIDTH 475 0
DWIDTH 11 0
BBX 10 17 1 0
BITMAP
2FF0000000
2FF0000000
2FF0000000
2FF0000000
2FF0000000
2FF0000000
2FF0000000
2FF0000000
2FF0000000
2FF0000000
2FF0000000
2FF0000000
2FF0000000
2FF0000000
2FF0000000
2FFDDDDDD9
2FFFFFFFFA
ENDCHAR
STARTCHAR M
ENCODING 77
SWIDTH 755 0
DWIDTH 18 0
BBX 16 17 1 0
BITMAP
2FFC00000000AFF4
2FFF10000000EFF4
2FFF60000004FFF4
2FFFB0000009FFF4
2FDEF100000EFCF4
2FDAF600004FBBF4
2FD5FA00009F6BF4
2FD0EF1000DF1CF4
2FE0AF5003FB0CF4
2FE04FA008F60DF4
2FF00EE00DF10DF4
2FF009F43FB00DF4
2FF004F97F600DF4
2FF000EECF100DF4
2FF0009FFB000DF4
2FF0004FF6000DF4
2FF0000EF1000DF4
ENDCHAR
STARTCHAR N
ENCODING 78
SWIDTH 619 0
DWIDTH 15 0
BBX 12 17 1 0
BITMAP
2FF4000002FF
2FFC000002FF
2FFF500002FF
2FFFC00002FF
2FFAF50002FF
2FF3FD0002FF
2FF0AF6002FF
2FF02FD002FF
2FF009F602FF
2FF002FE12FF
2FF0008F72FF
2FF0001EE3FF
2FF00008FAFF
2FF00001EFFF
2FF000007FFF
2FF000001EFF
2FF0000007FF
ENDCHAR
STARTCHAR O
ENCODING 79
SWIDTH 600 0
DWIDTH 14 0
BBX 12 17 1 0
BITMAP
0005BEFD8100
009FFFFFFE20
06FE6003BFC0
0EF600001DF5
3FE0000008FA
6FB0000005FC
7F90000003FE
8F90000003FE
8F90000003FE
8F90000003FE
8F90000003FE
6FB0000005FD
4FE0000008FA
0EF500000DF5
07FE5002BFD0
00AFFFEFFE30
0005BEFD9100
ENDCHAR
STARTCHAR P
ENCODING 80
SWIDTH 554 0
DWIDTH 13 0
BBX 12 17 1 0
BITMAP
2FFFFFFD8100
2FFDDDEFFD20
2FF00003DFA0
2FF000003FF2
2FF000000EF4
2FF000000CF5
2FF000000DF4
2FF000003FF1
2FF00014DFA0
2FFFFFFFFD10
2FFDDDCB7100
2FF000000000
2FF000000000
2FF000000000
2FF000000000
2FF000000000
2FF000000000
ENDCHAR
STARTCHAR Q
ENCODING 81
SWIDTH 600 0
DWIDTH 14 0
BBX 12 20 1 -3
BITMAP
0006CEEC8100
00BFFFFFFD20
08FE5003CFB0
1EF400001EF4
5FD0000009F8
8F90000006FB
9F80000005FC
AF80000004FD
AF80000004FD
AF80000004FD
9F80000005FC
8F90000006FB
5FD0000009F8
1FF400001EF4
08FE4003CFC0
00BFFEEFFD20
0006CEEEFE30
00000001BFE4
000000000AFB
000000000061
ENDCHAR
STARTCHAR R
ENCODING 82
SWIDTH 530 0
DWIDTH 13 0
BBX 12 17 1 0
BITMAP
2FFFFFEB5000
2FFDDDFFF900
2FF00007FF30
2FF00000BF80
2FF000008FA0
2FF000008FA0
2FF00000CF70
2FF0002AFE10
2FFFFFFFE400
2FFDDDFF3000
2FF000BF8000
2FF0005FE100
2FF0000DF600
2FF00007FD00
2FF00001EF40
2FF000009FB0
2FF000003FF3
ENDCHAR
STARTCHAR S
ENCODING 83
SWIDTH 518 0
DWIDTH 12 0
BBX 11 17 1 0
BITMAP
004AEFD81000
06FFFEFFD200
2FF8002BFB00
7FC00001EF30
8FA00000CF60
6FD000002310
2EFA10000000
05FFE9400000
003BFFFC4000
000038EFF500
0000001AFE10
33000000EF50
EF400000BF70
BF800000DF50
4FF60008FE10
07FFFDFFF600
003ADFEA3000
ENDCHAR
STARTCHAR T
ENCODING 84
SWIDTH 520 0
DWIDTH 13 0
BBX 12 17 0 0
BITMAP
4FFFFFFFFFFC
4DDDDFFEDDDA
00000CF50000
00000CF50000
00000CF50000
00000CF50000
00000CF50000
00000CF50000
00000CF50000
00000CF50000
00000CF50000
00000CF50000
00000CF50000
00000CF50000
00000CF50000
00000CF50000
00000CF50000
ENDCHAR
STARTCHAR U
ENCODING 85
SWIDTH 561 0
DWIDTH 13 0
BBX 11 17 1 0
BITMAP
7FA000002FF0
7FA000002FF0
7FA000002FF0
7FA000002FF0
7FA000002FF0
7FA000002FF0
7FA000002FF0
7FA000002FF0
7FA000002FF0
7FA000002FF0
7FA000002FF0
7FA000002FF0
6FB000003FE0
4FE100007FC0
0DFA1004EF60
04FFFDEFFA00
003ADFEC6000
ENDCHAR
STARTCHAR V
ENCODING 86
SWIDTH 560 0
DWIDTH 13 0
BBX 13 17 0 0
BITMAP
5FE00000008FC0
1FF4000000CF80
0BF8000001FF30
06FC000006FD00
02FF20000AF800
00CF60000EF400
007FA0003FE000
002FE0008F9000
000DF400CF5000
0008F801FF1000
0003FC05FA0000
0000EF1AF60000
00009F6EF10000
00004FDFB00000
00000EFF700000
00000AFF200000
000005FC000000
ENDCHAR
STARTCHAR W
ENCODING 87
SWIDTH 761 0
DWIDTH 18 0
BBX 18 17 0 0
BITMAP
1FF10000BF400009F8
0DF40000EF80000CF5
0AF70003FFB0000EF2
07F90006FFE0002FE0
04FC000AFAF3005FB0
01FF000DE5F6007F80
00DF202FA1FA00AF50
00AF505F70DD00DF20
007F809F30AF10FE00
004FB0CE006F53FB00
001FD1FB003F86F800
000DF5F7000EB8F500
000AFAF4000BEAF200
0007FEF00007FEE000
0004FFC00004FFB000
0001FF800001FF8000
0000DF400000CF5000
ENDCHAR
STARTCHAR X
ENCODING 88
SWIDTH 550 0
DWIDTH 13 0
BBX 13 17 0 0
BITMAP
0DFA000006FF20
05FF20000DF900
00CFA0006FE100
004FF200DF8000
000BFA06FE1000
0003FF2DF70000
0000AFDFE10000
00002FFF600000
00000CFF100000
00003FFF700000
0000BFCFE10000
0004FF2CF80000
000CF905FE2000
005FF200CF9000
00DF90005FF200
06FF20000CFA00
1DF9000005FF30
ENDCHAR
STARTCHAR Y
ENCODING 89
SWIDTH 524 0
DWIDTH 13 0
BBX 13 17 0 0
BITMAP
6FE1000006FE10
1EF600000DF800
08FC00004FF100
01FF3000AF9000
009FA001FF2000
002FF107FA0000
000AF70DF40000
0004FD5FC00000
0000CFDF500000
00005FFD000000
00000DF7000000
00000CF5000000
00000CF5000000
00000CF5000000
00000CF5000000
00000CF5000000
00000CF5000000
ENDCHAR
STARTCHAR Z
ENCODING 90
SWIDTH 522 0
DWIDTH 13 0
BBX 11 17 1 0
BITMAP
DFFFFFFFFF40
BDDDDDDDFF30
00000008FB00
0000002FF300
000000AF9000
000004FE1000
00000CF70000
00006FD00000
0001EF400000
0009FB000000
003FF2000000
00BF80000000
05FE10000000
0DF600000000
7FC000000000
EFEDDDDDDD70
EFFFFFFFFF80
ENDCHAR
STARTCHAR bracketleft
ENCODING 91
SWIDTH 250 0
DWIDTH 6 0
BBX 5 24 1 -4
BITMAP
6FFF80
6FEC60
6FA000
6FA000
6FA000
6FA000
6FA000
6FA000
6FA000
6FA000
6FA000
6FA000
6FA000
6FA000
6FA000
6FA000
6FA000
6FA000
6FA000
6FA000
6FA000
6FA000
6FEC60
6FFF80
ENDCHAR
STARTCHAR backslash
ENCODING 92
SWIDTH 369 0
DWIDTH 9 0
BBX 9 18 0 -1
BITMAP
4FB0000000
0EF1000000
09F6000000
04FB000000
00EF100000
009F600000
004FB00000
000EF10000
0009F60000
0004FB0000
0000EF1000
00009F6000
00004FB000
00000EF100
000009F600
000004FB00
000000EF10
0000009F50
ENDCHAR
STARTCHAR bracketright
ENCODING 93
SWIDTH 250 0
DWIDTH 6 0
BBX 5 24 0 -4
BITMAP
AFFF40
8CEF40
00CF40
00CF40
00CF40
00CF40
00CF40
00CF40
00CF40
00CF40
00CF40
00CF40
00CF40
00CF40
00CF40
00CF40
00CF40
00CF40
00CF40
00CF40
00CF40
00CF40
8CEF40
AFFF40
ENDCHAR
STARTCHAR asciicircum
ENCODING 94
SWIDTH 371 0
DWIDTH 9 0
BBX 8 8 0 9
BITMAP
0006F500
000CFA00
002FFF10
008F9F60
00DD1EC0
04F80AF2
0AF305F8
1ED001ED
ENDCHAR
STARTCHAR underscore
ENCODING 95
SWIDTH 404 0
DWIDTH 10 0
BBX 10 2 0 -2
BITMAP
BFFFFFFFF7
8CCCCCCCC5
ENDCHAR
STARTCHAR grave
ENCODING 96
SWIDTH 309 0
DWIDTH 7 0
BBX 6 3 0 15
BITMAP
1CFB00
01CFA0
001BC3
ENDCHAR
STARTCHAR a
ENCODING 97
SWIDTH 479 0
DWIDTH 12 0
BBX 10 13 1 0
BITMAP
006CEEB300
09FFCDFF20
3FE2009F90
4960004FC0
0000004FC0
005BEFFFC0
09FFB8AFC0
4FE2004FC0
9F80004FC0
9F70004FC0
7FC103DFD0
1EFFEFCFE0
03BEE91FF2
ENDCHAR
STARTCHAR b
ENCODING 98
SWIDTH 493 0
DWIDTH 12 0
BBX 10 18 1 0
BITMAP
7F90000000
7F90000000
7F90000000
7F90000000
7F90000000
7F95CFD800
7FDFEEFFA0
7FF6005FF3
7FB0000AF7
7F900006FA
7F900005FB
7F900005FB
7F900005FB
7F900006FA
7FB0000AF7
7FF6005FF3
7FCFEEFFA0
7F75CFD800
ENDCHAR
STARTCHAR c
ENCODING 99
SWIDTH 461 0
DWIDTH 11 0
BBX 10 13 1 0
BITMAP
006CEEB300
09FFDDFF40
4FE3007FC0
9F80000EF2
CF40000682
DF30000000
DF30000000
DF30000000
CF40000231
9F70000DF2
4FE3006FD0
09FFDDFE30
006CEEB300
ENDCHAR
STARTCHAR d
ENCODING 100
SWIDTH 496 0
DWIDTH 12 0
BBX 10 18 1 0
BITMAP
0000000CF4
0000000CF4
0000000CF4
0000000CF4
0000000CF4
018DFC4CF4
0BFFEEFEF4
5FE4008FF4
9F80000DF4
CF40000CF4
DF30000CF4
DF30000CF4
DF30000CF4
CF40000CF4
9F80000DF4
4FE4007FF4
0AFFEEFDF4
018DFC4AF4
ENDCHAR
STARTCHAR e
ENCODING 101
SWIDTH 468 0
DWIDTH 11 0
BBX 10 13 1 0
BITMAP
005CEEB400
07FFDDFF40
2FE3008FC0
8F80000EF1
BF50000CF4
CFFFFFFFF4
DFCCCCCCC3
DF40000000
CF50000000
9F90000000
4FF50019A0
09FFECEFC1
006CEEC710
ENDCHAR
STARTCHAR f
ENCODING 102
SWIDTH 316 0
DWIDTH 8 0
BBX 8 18 0 0
BITMAP
0002AEE4
000DFFD4
005FD100
007F9000
008F8000
3FFFFFB0
2ADFDA70
008F8000
008F8000
008F8000
008F8000
008F8000
008F8000
008F8000
008F8000
008F8000
008F8000
008F8000
ENDCHAR
STARTCHAR g
ENCODING 103
SWIDTH 492 0
DWIDTH 12 0
BBX 10 18 1 -5
BITMAP
018DFC49F4
0BFFEEFDF4
4FE4007FF4
9F80000CF4
CF50000CF4
DF30000CF4
DF30000CF4
DF40000CF4
CF50000CF4
9F80000CF4
4FE4007FF4
0BFFEEFEF4
018DFC4CF4
0000000CF4
0000001EF2
0A70009FC0
0CFECEFF40
007CFEB300
ENDCHAR
STARTCHAR h
ENCODING 104
SWIDTH 482 0
DWIDTH 12 0
BBX 10 18 1 0
BITMAP
7F90000000
7F90000000
7F90000000
7F90000000
7F90000000
7F94CFD700
7FDFEEFF60
7FF8009FC0
7FC0002FF0
7F90000FF1
7F90000FF1
7F90000FF1
7F90000FF1
7F90000FF1
7F90000FF1
7F90000FF1
7F90000FF1
7F90000FF1
ENDCHAR
STARTCHAR i
ENCODING 105
SWIDTH 229 0
DWIDTH 6 0
BBX 3 18 1 0
BITMAP
0630
5FD0
3EA0
0000
0000
4FC0
4FC0
4FC0
4FC0
4FC0
4FC0
4FC0
4FC0
4FC0
4FC0
4FC0
4FC0
4FC0
ENDCHAR
STARTCHAR j
ENCODING 106
SWIDTH 223 0
DWIDTH 5 0
BBX 5 23 -1 -5
BITMAP
001720
008FA0
005E70
000000
000000
006FA0
006FA0
006FA0
006FA0
006FA0
006FA0
006FA0
006FA0
006FA0
006FA0
006FA0
006FA0
006FA0
006FA0
006FA0
009F80
4EFF40
3ED700
ENDCHAR
STARTCHAR k
ENCODING 107
SWIDTH 450 0
DWIDTH 11 0
BBX 10 18 1 0
BITMAP
7FA0000000
7FA0000000
7FA0000000
7FA0000000
7FA0000000
7FA000BFA0
7FA007FD10
7FA02FF300
7FA0CF7000
7FA7FB0000
7FCFF30000
7FFFFA0000
7FF9EF4000
7FB07FD000
7FA00DF700
7FA005FE20
7FA000BFA0
7FA0002FF4
ENDCHAR
STARTCHAR l
ENCODING 108
SWIDTH 229 0
DWIDTH 6 0
BBX 3 18 1 0
BITMAP
4FC0
4FC0
4FC0
4FC0
4FC0
4FC0
4FC0
4FC0
4FC0
4FC0
4FC0
4FC0
4FC0
4FC0
4FC0
4FC0
4FC0
4FC0
ENDCHAR
STARTCHAR m
ENCODING 109
SWIDTH 752 0
DWIDTH 18 0
BBX 16 13 1 0
BITMAP
7F86CFD603BEEA10
7FEFDEFF8EFEFFC0
7FF500AFFC103FF3
7FA0002FF4000BF6
7F90000FF10009F7
7F90000FF10009F7
7F90000FF10009F7
7F90000FF10009F7
7F90000FF10009F7
7F90000FF10009F7
7F90000FF10009F7
7F90000FF10009F7
7F90000FF10009F7
ENDCHAR
STARTCHAR n
ENCODING 110
SWIDTH 483 0
DWIDTH 12 0
BBX 10 13 1 0
BITMAP
7F84CFD700
7FCFEEFF60
7FF8009FC0
7FC0002FF0
7F90000FF1
7F90000FF1
7F90000FF1
7F90000FF1
7F90000FF1
7F90000FF1
7F90000FF1
7F90000FF1
7F90000FF1
ENDCHAR
STARTCHAR o
ENCODING 111
SWIDTH 501 0
DWIDTH 12 0
BBX 10 13 1 0
BITMAP
004BEEB500
06FFDDFF70
2FF5005FF3
8FA0000AF9
CF500005FC
DF300003FD
DF300002FE
DF300003FD
CF500004FC
8FA00009F9
2FF5004EF3
07FFDDFF70
005BEEC500
ENDCHAR
STARTCHAR p
ENCODING 112
SWIDTH 493 0
DWIDTH 12 0
BBX 10 18 1 -5
BITMAP
7F75DFD800
7FCFEEFFA0
7FF5006FF3
7FA0000BF7
7F900007F9
7F900005FB
7F900005FB
7F900005FA
7F900007FA
7FA0000AF7
7FE3005FF3
7FEFCDFF90
7F96DFD800
7F90000000
7F90000000
7F90000000
7F90000000
7F90000000
ENDCHAR
STARTCHAR q
ENCODING 113
SWIDTH 500 0
DWIDTH 12 0
BBX 10 18 1 -5
BITMAP
019DFC5AF4
0BFFDDFEF4
5FE3006FF4
AF80000CF4
CF40000CF4
DF30000CF4
DF30000CF4
DF30000CF4
CF40000CF4
9F80000CF4
5FE3005FF4
0BFFCDFEF4
018DFC5CF4
0000000CF4
0000000CF4
0000000CF4
0000000CF4
0000000CF4
ENDCHAR
STARTCHAR r
ENCODING 114
SWIDTH 304 0
DWIDTH 7 0
BBX 6 13 1 0
BITMAP
7F97EB
7FEFFC
7FF922
7FC000
7F9000
7F9000
7F9000
7F9000
7F9000
7F9000
7F9000
7F9000
7F9000
ENDCHAR
STARTCHAR s
ENCODING 115
SWIDTH 455 0
DWIDTH 11 0
BBX 9 13 1 0
BITMAP
018DFE9100
0BFECEFD10
4FD101DF60
7FA0006C70
5FE3000000
0BFFA30000
007EFFB300
00016DFE20
000001BF90
CF50005FB0
8FC100AF90
1DFECEFE20
019DFD9200
ENDCHAR
STARTCHAR t
ENCODING 116
SWIDTH 295 0
DWIDTH 7 0
BBX 7 16 0 0
BITMAP
00CF4000
00CF4000
00CF4000
BFFFFF30
7AEFBA20
00CF4000
00CF4000
00CF4000
00CF4000
00CF4000
00CF4000
00CF4000
00CF4000
00BF7000
007FFE30
0009ED20
ENDCHAR
STARTCHAR u
ENCODING 117
SWIDTH 483 0
DWIDTH 12 0
BBX 9 13 1 0
BITMAP
7F90001FF0
7F90001FF0
7F90001FF0
7F90001FF0
7F90001FF0
7F90001FF0
7F90001FF0
7F90001FF0
7F90001FF0
6FB0002FF0
3FF301BFF0
0BFFDFEFF0
01AEEB3EF0
ENDCHAR
STARTCHAR v
ENCODING 118
SWIDTH 427 0
DWIDTH 10 0
BBX 10 13 0 0
BITMAP
5FC00009F8
1FF1000CF3
0BF4001FE0
06F8005FA0
02FC008F50
00DF10CF10
008F51FC00
004F85F700
000EC8F300
000AFDE000
0006FF9000
0001FF5000
0000CF1000
ENDCHAR
STARTCHAR w
ENCODING 119
SWIDTH 649 0
DWIDTH 16 0
BBX 15 13 0 0
BITMAP
4FB0003FB0003FD0
1FE0007FE0006F90
0CF300BFF4009F60
09F600EFF800CF20
05F903F9FB00FE00
02FC07F4CF13FA00
00DF1BF18F46F600
00AF4FB04F8AF300
006FBF700ECDE000
002FFF400BFFB000
000EFE0007FF7000
000AFB0003FF3000
0007F70000EF0000
ENDCHAR
STARTCHAR x
ENCODING 120
SWIDTH 438 0
DWIDTH 11 0
BBX 10 13 0 0
BITMAP
1EF5000DF8
07FB004FE1
01EF30BF70
006FA3FD00
000DFBF600
0005FFC000
0000EF7000
0007FFD000
001EFAF700
008F92FE10
01EF20AF80
09FA003FE2
2FF3000BF9
ENDCHAR
STARTCHAR y
ENCODING 121
SWIDTH 416 0
DWIDTH 10 0
BBX 10 18 0 -5
BITMAP
7FC0000CF6
2FF1001FF2
0DF4004FC0
09F8008F80
04FC00CF40
00EF11FE00
00AF54FA00
006F88F600
002FCCF200
000CFFD000
0008FF8000
0003FF4000
0000EE0000
0001FA0000
0006F60000
002DF10000
0EFF800000
0DE8000000
ENDCHAR
STARTCHAR z
ENCODING 122
SWIDTH 438 0
DWIDTH 11 0
BBX 9 13 1 0
BITMAP
DFFFFFFF50
ACCCCCFF40
000008FC00
00002FF300
0000BF8000
0005FD1000
001DF50000
008FB00000
02FF200000
0BF8000000
5FD1000000
DFDCCCCC70
DFFFFFFF90
ENDCHAR
STARTCHAR braceleft
ENCODING 123
SWIDTH 306 0
DWIDTH 7 0
BBX 7 23 0 -4
BITMAP
00001880
0000BF80
0007FA00
000DF300
000FF000
002FE000
002FE000
002FE000
003FD000
005FB000
02DF6000
2FFA0000
2DFD1000
00AF9000
004FD000
002FE000
002FE000
002FE000
001FF000
000EF200
0008F800
0001CF70
00001880
ENDCHAR
STARTCHAR bar
ENCODING 124
SWIDTH 243 0
DWIDTH 6 0
BBX 2 20 2 -3
BITMAP
EC
EC
EC
EC
EC
EC
EC
EC
EC
EC
EC
EC
EC
EC
EC
EC
EC
EC
EC
EC
ENDCHAR
STARTCHAR braceright
ENCODING 125
SWIDTH 306 0
DWIDTH 7 0
BBX 7 23 0 -4
BITMAP
4A200000
4EE30000
05FB0000
00DF2000
00AF5000
009F7000
009F7000
009F7000
009F7000
006FA000
001EF500
0004EF70
0008FE50
004FD100
008F8000
009F7000
009F7000
009F7000
00AF5000
00CF3000
04FD0000
4EE30000
4B300000
ENDCHAR
STARTCHAR asciitilde
ENCODING 126
SWIDTH 589 0
DWIDTH 14 0
BBX 12 5 1 5
BITMAP
008DC4000096
08FFFF5002F8
1ED25EF509F4
5F7005FFEFC0
7F50004CFB20
ENDCHAR
STARTCHAR uni00A0
ENCODING 160
SWIDTH 229 0
DWIDTH 6 0
BBX 1 1 0 0
BITMAP
00
ENDCHAR
STARTCHAR exclamdown
ENCODING 161
SWIDTH 231 0
DWIDTH 6 0
BBX 3 17 1 -4
BITMAP
3EA0
5FE0
0630
0000
0220
2FC0
2FC0
2FC0
2FC0
3FC0
3FD0
3FD0
3FD0
3FD0
4FD0
4FE0
4FE0
ENDCHAR
STARTCHAR cent
ENCODING 162
SWIDTH 479 0
DWIDTH 12 0
BBX 10 19 1 -3
BITMAP
0001990000
0002FE0000
0002FE0000
004CFFC400
05FFCCFF40
0EF5006FD0
5FB0000DF2
9F70000582
BF50000000
CF40000000
BF50000000
9F60000110
5FA0000CF3
1EF4005FD0
06FFBBFF40
005DFFC400
0002FE0000
0002FE0000
0001CB0000
ENDCHAR
STARTCHAR sterling
ENCODING 163
SWIDTH 510 0
DWIDTH 12 0
BBX 11 17 1 0
BITMAP
0004BEEB4000
005FFEFFF400
01EF801AFC00
04FE0002FF10
07FB00007710
07FA00000000
07FB00000000
06FB00000000
DFFFFFC00000
BDFFDDA00000
05FD00000000
04FD00000000
04FD00000000
05FC00000000
0AF800000000
BFFDDDDDDD60
DFFFFFFFFF70
ENDCHAR
STARTCHAR currency
ENCODING 164
SWIDTH 712 0
DWIDTH 17 0
BBX 15 16 1 0
BITMAP
0200000000000200
2E803ADFEB505F50
7FFCFFFFFFFCFFB0
09FFF93127EFFC10
04FF4000002EF800
0CF700000004FE10
2FE100000000CF50
4FB0000000008F80
5FA0000000007F90
4FB0000000008F80
2FE100000000CF50
0CF700000004FE10
05FF4000002EF900
1CFFF93127EFFE30
8FFAFFFFFFFBDFC0
1B503ADFEB502C20
ENDCHAR
STARTCHAR yen
ENCODING 165
SWIDTH 463 0
DWIDTH 11 0
BBX 11 17 0 0
BITMAP
7FE00000CF90
1FF50003FF30
0AFB0009FC00
04FF200EF600
00DF805FE100
007FD0BF9000
001FF6FF3000
000AFFFC0000
0004FFF60000
08FFFFFFFA00
0477CFC77500
00008F900000
08FFFFFFFA00
0477BFC77400
00008F900000
00008F900000
00008F900000
ENDCHAR
STARTCHAR brokenbar
ENCODING 166
SWIDTH 239 0
DWIDTH 6 0
BBX 3 20 1 -3
BITMAP
4FE0
4FE0
4FE0
4FE0
4FE0
4FE0
4FE0
4FE0
4FE0
0000
0000
4FE0
4FE0
4FE0
4FE0
4FE0
4FE0
4FE0
4FE0
4FE0
ENDCHAR
STARTCHAR section
ENCODING 167
SWIDTH 537 0
DWIDTH 13 0
BBX 11 23 1 -6
BITMAP
004AEFEA2000
06FFECEFE300
1EF7001AFD00
5FC00001EF30
6FB00000CF50
4FE100000000
0DFD50000000
05FFFE820000
2EFBEFFFA100
9F8004BFFC00
CF400005FF50
BF5000009F80
8FC100008F90
1EFE8200CF60
03CFFFCCFC00
0005AFFFE100
0000018FF900
01000005FF10
DF400000FF20
BF700001FF10
6FE5001BFC00
0AFFECEFE300
006BEFD92000
ENDCHAR
STARTCHAR dieresis
ENCODING 168
SWIDTH 417 0
DWIDTH 10 0
BBX 8 3 1 15
BITMAP
26200262
BFA00BFB
8E7007E7
ENDCHAR
STARTCHAR copyright
ENCODING 169
SWIDTH 785 0
DWIDTH 19 0
BBX 17 17 1 0
BITMAP
000017CEFEB6000000
0005EFB878CFD30000
007FA2000003CE4000
04F7019EFD600AE200
1EA00CFB8DF701DB00
6F206F8000DE005F20
BB00AF10008D100E70
D800CE000000000C90
E700CD000000000AA0
D800CE000000000C90
AB00AF10009D100E70
6F206F7000DE005F20
1EA00CFA8CF701DB00
04F7019EEC600AE200
007FA1000003CE4000
0005EFA868BFD30000
000017CEFEB6000000
ENDCHAR
STARTCHAR ordfeminine
ENCODING 170
SWIDTH 395 0
DWIDTH 10 0
BBX 7 9 1 8
BITMAP
02AED700
0CFBDF50
1EA02FA0
00001FB0
05CEFFC0
2FD65FC0
5F801FC0
2FEADFC0
07EE9EE0
ENDCHAR
STARTCHAR guillemotleft
ENCODING 171
SWIDTH 417 0
DWIDTH 10 0
BBX 8 9 1 2
BITMAP
004F51DA
01DB09F2
09F34F80
4FA1DE10
BF46F900
4FA1DE10
09F34F80
01DB09F2
004F51D9
ENDCHAR
STARTCHAR logicalnot
ENCODING 172
SWIDTH 487 0
DWIDTH 12 0
BBX 9 5 1 4
BITMAP
8FFFFFFFB0
7DDDDDEFB0
0000005FB0
0000005FB0
0000005FB0
ENDCHAR
STARTCHAR uni00AD
ENCODING 173
SWIDTH 248 0
DWIDTH 6 0
BBX 6 2 0 6
BITMAP
7FFFF6
5CCCC4
ENDCHAR
STARTCHAR registered
ENCODING 174
SWIDTH 786 0
DWIDTH 19 0
BBX 17 17 1 0
BITMAP
000017CEFEB5000000
0005EFA878CFD30000
007FA2000003CE4000
05F7000000000AE200
1EA00FFFFD8101DB00
6F200FC78AFA005F20
BB000FA000BE000E70
D8000FA003EC000C90
E7000FFFFFD2000AA0
D8000FC88AF8000C90
AB000FA000CE000E70
6F200FA000BE005F20
1EA00FA000AF11DA00
04F7000000000AE200
007F91000003CE4000
0005EFA868BFD30000
000017CEFEB6000000
ENDCHAR
STARTCHAR macron
ENCODING 175
SWIDTH 414 0
DWIDTH 10 0
BBX 8 2 1 15
BITMAP
5FFFFFF7
3AAAAAA5
ENDCHAR
STARTCHAR degree
ENCODING 176
SWIDTH 373 0
DWIDTH 9 0
BBX 7 7 1 10
BITMAP
02BEB200
1DD8DD10
5F303F50
6F000F60
3F817F30
08FFF800
00474000
ENDCHAR
STARTCHAR plusminus
ENCODING 177
SWIDTH 469 0
DWIDTH 11 0
BBX 10 15 1 0
BITMAP
0001CA0000
0001FC0000
0001FC0000
0001FC0000
0001FC0000
CFFFFFFFF4
9CCCFECCC3
0001FC0000
0001FC0000
0001FC0000
0001FC0000
0001970000
0000000000
5CCCCCCCA0
6FFFFFFFC0
ENDCHAR
STARTCHAR uni00B2
ENCODING 178
SWIDTH 329 0
DWIDTH 8 0
BBX 7 9 0 8
BITMAP
01AEE800
0BF9BF70
1FA01FA0
00004F90
0001DE20
001CE400
01CE4000
0BFB8880
0FFFFFF0
ENDCHAR
STARTCHAR uni00B3
ENCODING 179
SWIDTH 329 0
DWIDTH 8 0
BBX 7 9 0 8
BITMAP
03BEEA10
0EE9AF90
02203F80
002FFC00
0015AF70
00000EC0
2E900EB0
0CF9BF60
02BED700
ENDCHAR
STARTCHAR acute
ENCODING 180
SWIDTH 313 0
DWIDTH 8 0
BBX 6 3 1 15
BITMAP
00BFB1
0AFB10
3CA000
ENDCHAR
STARTCHAR mu
ENCODING 181
SWIDTH 498 0
DWIDTH 12 0
BBX 10 18 1 -5
BITMAP
4FC0000DF4
4FC0000DF4
4FC0000DF4
4FC0000DF4
4FC0000DF4
4FC0000DF4
4FC0000DF4
4FC0000DF4
4FD0000DF4
4FF1000DF4
4FF7007FF4
4FFFDDFEF4
4FDAEE6AF4
4FC0000000
4FC0000000
4FC0000000
4FC0000000
4FC0000000
ENDCHAR
STARTCHAR paragraph
ENCODING 182
SWIDTH 434 0
DWIDTH 10 0
BBX 9 18 0 0
BITMAP
0000011100
0019EFFF80
01CFFFFF80
08FFFFFF80
0EFFFFFF80
2FFFFFFF80
2FFFFFFF80
1FFFFFFF80
0DFFFFFF80
07FFFFFF80
00BFFFFF80
0006BDEF80
0000008F80
0000008F80
0000008F80
0000008F80
0000008F80
0000008F80
ENDCHAR
STARTCHAR periodcentered
ENCODING 183
SWIDTH 243 0
DWIDTH 6 0
BBX 4 3 1 7
BITMAP
2EC0
5FF1
1860
ENDCHAR
STARTCHAR cedilla
ENCODING 184
SWIDTH 229 0
DWIDTH 6 0
BBX 4 5 1 -5
BITMAP
6F20
5DC2
02F7
29F5
8D80
ENDCHAR
STARTCHAR uni00B9
ENCODING 185
SWIDTH 329 0
DWIDTH 8 0
BBX 5 9 1 8
BITMAP
149D30
9FFF40
438F40
008F40
008F40
008F40
008F40
008F40
008F40
ENDCHAR
STARTCHAR ordmasculine
ENCODING 186
SWIDTH 402 0
DWIDTH 10 0
BBX 8 9 1 8
BITMAP
02BEE800
0DFBDF80
5F901DF1
8F4009F3
9F3008F4
8F4009F3
5F800DF1
0DFBDF80
02BFE800
ENDCHAR
STARTCHAR guillemotright
ENCODING 187
SWIDTH 417 0
DWIDTH 10 0
BBX 9 9 1 2
BITMAP
8E21E90000
1EB07F4000
07F60DD100
00DE15F900
007F80EF10
00DE15F900
07F60DD100
1EB07F4000
8E21E90000
ENDCHAR
STARTCHAR onequarter
ENCODING 188
SWIDTH 637 0
DWIDTH 15 0
BBX 14 17 1 0
BITMAP
26BB0000000000
FEFC0000000000
51FC0000095000
00FC00003F5000
00FC0000BC0000
00FC0004F40000
00FC000CB00000
00FC005F300000
00FC00DA00AF60
000006F204FF60
00000D900CEF60
00007F206E7F60
0001E801E85F60
0008E108E15F60
001E700FFFFFF6
002B100888AFB3
00000000005F60
ENDCHAR
STARTCHAR onehalf
ENCODING 189
SWIDTH 677 0
DWIDTH 16 0
BBX 15 17 0 0
BITMAP
026BB00000000000
1FEFC00000000000
051FC00002B10000
000FC0000AD00000
000FC0003F500000
000FC000BC000000
000FC004F4000000
000FC00CB0000000
000FC04F32AED800
000000CB0CF9CF60
000005F32E902FA0
00000DA000005F80
00006F200002EE10
0001E900001DE300
0007E10001CE3000
000780000CFB8870
000000000FFFFFF0
ENDCHAR
STARTCHAR threequarters
ENCODING 190
SWIDTH 673 0
DWIDTH 16 0
BBX 15 17 1 0
BITMAP
09EEC50000000000
6EA8EF1000000000
0001AF2000770000
00AFF60001E80000
0046ED1008E10000
00007F402F700000
59107F409D000000
6FC8ED12F6000000
08DEB30AD00DF300
0000003F506FF300
000000BC01EEF300
000004F409D8F300
00000CB03F58F300
00005F30BC08F300
0000DA02FFFFFF30
0001B201888CF910
000000000008F300
ENDCHAR
STARTCHAR questiondown
ENCODING 191
SWIDTH 421 0
DWIDTH 10 0
BBX 10 18 0 -5
BITMAP
0000CD1000
0001FF2000
0000450000
0000000000
0000000000
0000EF2000
0001FF1000
0007FC0000
002EF40000
00CF800000
06FD000000
0CF5000000
1FF0000000
2FE0000000
1FF1001FF1
0CF9009FC0
04FFFFFF40
004CEEB400
ENDCHAR
STARTCHAR Agrave
ENCODING 192
SWIDTH 576 0
DWIDTH 14 0
BBX 14 21 0 0
BITMAP
0003EF60000000
00003EF5000000
000003DA000000
00000000000000
000002FE100000
000007FF500000
00000CFFA00000
00002FCEE00000
00007F7AF40000
0000CF35F90000
0002FD01FE0000
0006F900CF4000
000BF5007F9000
001FF1003FE000
006FB0000DF400
00BFFFFFFFF800
01FFDDDDDDFD00
06FC000001EF30
0AF8000000AF80
1FF30000005FD0
5FD00000001FF3
ENDCHAR
STARTCHAR Aacute
ENCODING 193
SWIDTH 576 0
DWIDTH 14 0
BBX 14 21 0 0
BITMAP
00000006FE3000
0000005FE30000
000001AD200000
00000000000000
000002FE100000
000007FF500000
00000CFFA00000
00002FCEE00000
00007F7AF40000
0000CF35F90000
0002FD01FE0000
0006F900CF4000
000BF5007F9000
001FF1003FE000
006FB0000DF400
00BFFFFFFFF800
01FFDDDDDDFD00
06FC000001EF30
0AF8000000AF80
1FF30000005FD0
5FD00000001FF3
ENDCHAR
STARTCHAR Acircumflex
ENCODING 194
SWIDTH 576 0
DWIDTH 14 0
BBX 14 21 0 0
BITMAP
000003EE200000
00004EBCE30000
0000AC12D90000
00000000000000
000002FE100000
000007FF500000
00000CFFA00000
00002FCEE00000
00007F7AF40000
0000CF35F90000
0002FD01FE0000
0006F900CF4000
000BF5007F9000
001FF1003FE000
006FB0000DF400
00BFFFFFFFF800
01FFDDDDDDFD00
06FC000001EF30
0AF8000000AF80
1FF30000005FD0
5FD00000001FF3
ENDCHAR
STARTCHAR Atilde
ENCODING 195
SWIDTH 576 0
DWIDTH 14 0
BBX 14 21 0 0
BITMAP
000049600C5000
0003FFFDCF4000
0007D14CE80000
00000000000000
000002FE100000
000007FF500000
00000CFFA00000
00002FCEE00000
00007F7AF40000
0000CF35F90000
0002FD01FE0000
0006F900CF4000
000BF5007F9000
001FF1003FE000
006FB0000DF400
00BFFFFFFFF800
01FFDDDDDDFD00
06FC000001EF30
0AF8000000AF80
1FF30000005FD0
5FD00000001FF3
ENDCHAR
STARTCHAR Adieresis
ENCODING 196
SWIDTH 576 0
DWIDTH 14 0
BBX 14 21 0 0
BITMAP
00026200262000
000BFA00BFB000
0008E7007E7000
00000000000000
000002FE100000
000007FF500000
00000CFFA00000
00002FCEE00000
00007F7AF40000
0000CF35F90000
0002FD01FE0000
0006F900CF4000
000BF5007F9000
001FF1003FE000
006FB0000DF400
00BFFFFFFFF800
01FFDDDDDDFD00
06FC000001EF30
0AF8000000AF80
1FF30000005FD0
5FD00000001FF3
ENDCHAR
STARTCHAR Aring
ENCODING 197
SWIDTH 576 0
DWIDTH 14 0
BBX 14 23 0 0
BITMAP
000007ED600000
00004E34E30000
00008A00B70000
00004E33E40000
000007EE700000
00000000000000
000002FE100000
000007FF500000
00000CFFA00000
00002FCEE00000
00007F7AF40000
0000CF35F90000
0002FD01FE0000
0006F900CF4000
000BF5007F9000
001FF1003FE000
006FB0000DF400
00BFFFFFFFF800
01FFDDDDDDFD00
06FC000001EF30
0AF8000000AF80
1FF30000005FD0
5FD00000001FF3
ENDCHAR
STARTCHAR AE
ENCODING 198
SWIDTH 812 0
DWIDTH 19 0
BBX 19 17 0 0
BITMAP
000000009FFFFFFFFF50
00000002FFFDCCCCCC40
0000000AFEF800000000
0000002FE8F900000000
000000AF87FA00000000
000003FE16FA00000000
00000AF806FB00000000
00003FF205FFFFFFF800
0000AF9005FECCCCC600
0003FF2004FC00000000
000BFA0004FD00000000
003FFFFFFFFD00000000
00BFFFFFFFFE00000000
04FF411113FE00000000
0BFB000002FF00000000
4FF4000001FFCCCCCCB0
CFB0000000FFFFFFFFE0
ENDCHAR
STARTCHAR Ccedilla
ENCODING 199
SWIDTH 566 0
DWIDTH 14 0
BBX 12 22 1 -5
BITMAP
0005BEFD8100
009FFEEFFD20
06FE5002CFB0
0EF600002FF2
4FE000000CF6
7FB0000007B6
8FA000000000
8F9000000000
8F9000000000
8F9000000000
8FA000000000
7FB0000007A5
4FE000000CF6
0EF500001FF2
06FE4002BFB0
00AFFDDFFD20
0006CEFD8100
00000DA00000
00000AE70000
0000009F0000
000005DD0000
00000EB30000
ENDCHAR
STARTCHAR Egrave
ENCODING 200
SWIDTH 496 0
DWIDTH 12 0
BBX 10 21 1 0
BITMAP
01BFB00000
001BFA0000
0001BC3000
0000000000
2FFFFFFFFE
2FFDDDDDDC
2FF0000000
2FF0000000
2FF0000000
2FF0000000
2FF0000000
2FFFFFFFF0
2FFDDDDDD0
2FF0000000
2FF0000000
2FF0000000
2FF0000000
2FF0000000
2FF0000000
2FFDDDDDDD
2FFFFFFFFF
ENDCHAR
STARTCHAR Eacute
ENCODING 201
SWIDTH 496 0
DWIDTH 12 0
BBX 10 21 1 0
BITMAP
000002EF70
00001DF700
00007D6000
0000000000
2FFFFFFFFE
2FFDDDDDDC
2FF0000000
2FF0000000
2FF0000000
2FF0000000
2FF0000000
2FFFFFFFF0
2FFDDDDDD0
2FF0000000
2FF0000000
2FF0000000
2FF0000000
2FF0000000
2FF0000000
2FFDDDDDDD
2FFFFFFFFF
ENDCHAR
STARTCHAR Ecircumflex
ENCODING 202
SWIDTH 496 0
DWIDTH 12 0
BBX 10 21 1 0
BITMAP
0001BF7000
001CE8F700
006D50AC20
0000000000
2FFFFFFFFE
2FFDDDDDDC
2FF0000000
2FF0000000
2FF0000000
2FF0000000
2FF0000000
2FFFFFFFF0
2FFDDDDDD0
2FF0000000
2FF0000000
2FF0000000
2FF0000000
2FF0000000
2FF0000000
2FFDDDDDDD
2FFFFFFFFF
ENDCHAR
STARTCHAR Edieresis
ENCODING 203
SWIDTH 496 0
DWIDTH 12 0
BBX 10 21 1 0
BITMAP
0064000540
06FF105FF1
03EC003EC1
0000000000
2FFFFFFFFE
2FFDDDDDDC
2FF0000000
2FF0000000
2FF0000000
2FF0000000
2FF0000000
2FFFFFFFF0
2FFDDDDDD0
2FF0000000
2FF0000000
2FF0000000
2FF0000000
2FF0000000
2FF0000000
2FFDDDDDDD
2FFFFFFFFF
ENDCHAR
STARTCHAR Igrave
ENCODING 204
SWIDTH 250 0
DWIDTH 6 0
BBX 6 21 -1 0
BITMAP
3EF600
03EF50
003DA1
000000
001FF1
001FF1
001FF1
001FF1
001FF1
001FF1
001FF1
001FF1
001FF1
001FF1
001FF1
001FF1
001FF1
001FF1
001FF1
001FF1
001FF1
ENDCHAR
STARTCHAR Iacute
ENCODING 205
SWIDTH 250 0
DWIDTH 6 0
BBX 6 21 1 0
BITMAP
006FE3
05FE30
0AD300
000000
1FF100
1FF100
1FF100
1FF100
1FF100
1FF100
1FF100
1FF100
1FF100
1FF100
1FF100
1FF100
1FF100
1FF100
1FF100
1FF100
1FF100
ENDCHAR
STARTCHAR Icircumflex
ENCODING 206
SWIDTH 250 0
DWIDTH 6 0
BBX 6 21 0 0
BITMAP
03EE30
3EBBE3
9D11D9
000000
01FF10
01FF10
01FF10
01FF10
01FF10
01FF10
01FF10
01FF10
01FF10
01FF10
01FF10
01FF10
01FF10
01FF10
01FF10
01FF10
01FF10
ENDCHAR
STARTCHAR Idieresis
ENCODING 207
SWIDTH 250 0
DWIDTH 6 0
BBX 8 21 -1 0
BITMAP
26200162
AFB00AFB
7E7007E8
00000000
001FF100
001FF100
001FF100
001FF100
001FF100
001FF100
001FF100
001FF100
001FF100
001FF100
001FF100
001FF100
001FF100
001FF100
001FF100
001FF100
001FF100
ENDCHAR
STARTCHAR Eth
ENCODING 208
SWIDTH 585 0
DWIDTH 14 0
BBX 13 17 0 0
BITMAP
00CFFFFDA30000
00CFEDDFFF7000
00CF50016FF500
00CF500005FD00
00CF500000EF30
00CF500000AF60
00CF5000009F80
CFFFFF80008F80
9CEFDC60008F80
00CF5000008F80
00CF5000009F80
00CF500000BF60
00CF500000EF30
00CF500006FD00
00CF50016FF500
00CFDDDFFF7000
00CFFFED930000
ENDCHAR
STARTCHAR Ntilde
ENCODING 209
SWIDTH 619 0
DWIDTH 15 0
BBX 12 21 1 0
BITMAP
000188107A00
000CFFEBEA00
001E619EC200
000000000000
2FF4000002FF
2FFC000002FF
2FFF500002FF
2FFFC00002FF
2FFAF50002FF
2FF3FD0002FF
2FF0AF6002FF
2FF02FD002FF
2FF009F602FF
2FF002FE12FF
2FF0008F72FF
2FF0001EE3FF
2FF00008FAFF
2FF00001EFFF
2FF000007FFF
2FF000001EFF
2FF0000007FF
ENDCHAR
STARTCHAR Ograve
ENCODING 210
SWIDTH 600 0
DWIDTH 14 0
BBX 12 21 1 0
BITMAP
001CFA000000
0001CF900000
00001CC30000
000000000000
0005BEFD8100
009FFFFFFE20
06FE6003BFC0
0EF600001DF5
3FE0000008FA
6FB0000005FC
7F90000003FE
8F90000003FE
8F90000003FE
8F90000003FE
8F90000003FE
6FB0000005FD
4FE0000008FA
0EF500000DF5
07FE5002BFD0
00AFFFEFFE30
0005BEFD9100
ENDCHAR
STARTCHAR Oacute
ENCODING 211
SWIDTH 600 0
DWIDTH 14 0
BBX 12 21 1 0
BITMAP
0000003EF600
000002EF6000
000007D50000
000000000000
0005BEFD8100
009FFFFFFE20
06FE6003BFC0
0EF600001DF5
3FE0000008FA
6FB0000005FC
7F90000003FE
8F90000003FE
8F90000003FE
8F90000003FE
8F90000003FE
6FB0000005FD
4FE0000008FA
0EF500000DF5
07FE5002BFD0
00AFFFEFFE30
0005BEFD9100
ENDCHAR
STARTCHAR Ocircumflex
ENCODING 212
SWIDTH 600 0
DWIDTH 14 0
BBX 12 21 1 0
BITMAP
00001CF50000
0001CE9F6000
0007D40BB100
000000000000
0005BEFD8100
009FFFFFFE20
06FE6003BFC0
0EF600001DF5
3FE0000008FA
6FB0000005FC
7F90000003FE
8F90000003FE
8F90000003FE
8F90000003FE
8F90000003FE
6FB0000005FD
4FE0000008FA
0EF500000DF5
07FE5002BFD0
00AFFFEFFE30
0005BEFD9100
ENDCHAR
STARTCHAR Otilde
ENCODING 213
SWIDTH 600 0
DWIDTH 14 0
BBX 12 21 1 0
BITMAP
000297108800
001DFFEBF800
003F42AEB100
000000000000
0005BEFD8100
009FFFFFFE20
06FE6003BFC0
0EF600001DF5
3FE0000008FA
6FB0000005FC
7F90000003FE
8F90000003FE
8F90000003FE
8F90000003FE
8F90000003FE
6FB0000005FD
4FE0000008FA
0EF500000DF5
07FE5002BFD0
00AFFFEFFE30
0005BEFD9100
ENDCHAR
STARTCHAR Odieresis
ENCODING 214
SWIDTH 600 0
DWIDTH 14 0
BBX 12 21 1 0
BITMAP
001630006300
007FE006FF00
004EB004EB00
000000000000
0005BEFD8100
009FFFFFFE20
06FE6003BFC0
0EF600001DF5
3FE0000008FA
6FB0000005FC
7F90000003FE
8F90000003FE
8F90000003FE
8F90000003FE
8F90000003FE
6FB0000005FD
4FE0000008FA
0EF500000DF5
07FE5002BFD0
00AFFFEFFE30
0005BEFD9100
ENDCHAR
STARTCHAR multiply
ENCODING 215
SWIDTH 470 0
DWIDTH 11 0
BBX 9 11 1 2
BITMAP
2A00000940
BF90007FD0
2EF604FF40
05FF5EF700
008FFFA000
000DFE1000
007FFF9000
04FF6EF600
2EF604FF40
AF90007FD0
2A00000930
ENDCHAR
STARTCHAR Oslash
ENCODING 216
SWIDTH 600 0
DWIDTH 14 0
BBX 13 19 1 -1
BITMAP
00000000003710
0003ADFC70CB00
006FFFFFFDF300
03FF7103CFC000
0BF800007FF300
2FF10001EEF800
6FB00008E7FC00
8F90001E73FE00
9F80009E12FF00
9F8002F601FF00
9F800AD002FF00
8F903F5003FE00
6FB0BC0005FC00
2FF6F40009F800
0BFFB0002EF300
03FF8003CFA000
00DFFFEFFC1000
07F5AEFD700000
0C800000000000
ENDCHAR
STARTCHAR Ugrave
ENCODING 217
SWIDTH 561 0
DWIDTH 13 0
BBX 11 21 1 0
BITMAP
006FE3000000
0006FE200000
00006D800000
000000000000
7FA000002FF0
7FA000002FF0
7FA000002FF0
7FA000002FF0
7FA000002FF0
7FA000002FF0
7FA000002FF0
7FA000002FF0
7FA000002FF0
7FA000002FF0
7FA000002FF0
7FA000002FF0
6FB000003FE0
4FE100007FC0
0DFA1004EF60
04FFFDEFFA00
003ADFEC6000
ENDCHAR
STARTCHAR Uacute
ENCODING 218
SWIDTH 561 0
DWIDTH 13 0
BBX 11 21 1 0
BITMAP
000000AFC100
000008FC1000
00002CB10000
000000000000
7FA000002FF0
7FA000002FF0
7FA000002FF0
7FA000002FF0
7FA000002FF0
7FA000002FF0
7FA000002FF0
7FA000002FF0
7FA000002FF0
7FA000002FF0
7FA000002FF0
7FA000002FF0
6FB000003FE0
4FE100007FC0
0DFA1004EF60
04FFFDEFFA00
003ADFEC6000
ENDCHAR
STARTCHAR Ucircumflex
ENCODING 219
SWIDTH 561 0
DWIDTH 13 0
BBX 11 21 1 0
BITMAP
00006FC10000
0006F9EC1000
002BA04D6000
000000000000
7FA000002FF0
7FA000002FF0
7FA000002FF0
7FA000002FF0
7FA000002FF0
7FA000002FF0
7FA000002FF0
7FA000002FF0
7FA000002FF0
7FA000002FF0
7FA000002FF0
7FA000002FF0
6FB000003FE0
4FE100007FC0
0DFA1004EF60
04FFFDEFFA00
003ADFEC6000
ENDCHAR
STARTCHAR Udieresis
ENCODING 220
SWIDTH 561 0
DWIDTH 13 0
BBX 11 21 1 0
BITMAP
003610036100
00EF700EF700
00BE400AE500
000000000000
7FA000002FF0
7FA000002FF0
7FA000002FF0
7FA000002FF0
7FA000002FF0
7FA000002FF0
7FA000002FF0
7FA000002FF0
7FA000002FF0
7FA000002FF0
7FA000002FF0
7FA000002FF0
6FB000003FE0
4FE100007FC0
0DFA1004EF60
04FFFDEFFA00
003ADFEC6000
ENDCHAR
STARTCHAR Yacute
ENCODING 221
SWIDTH 524 0
DWIDTH 13 0
BBX 13 21 0 0
BITMAP
0000002EF70000
000001DF700000
000007D6000000
00000000000000
6FE1000006FE10
1EF600000DF800
08FC00004FF100
01FF3000AF9000
009FA001FF2000
002FF107FA0000
000AF70DF40000
0004FD5FC00000
0000CFDF500000
00005FFD000000
00000DF7000000
00000CF5000000
00000CF5000000
00000CF5000000
00000CF5000000
00000CF5000000
00000CF5000000
ENDCHAR
STARTCHAR Thorn
ENCODING 222
SWIDTH 515 0
DWIDTH 12 0
BBX 11 17 1 0
BITMAP
3FD000000000
3FD000000000
3FD000000000
3FFFFFD91000
3FFCCCFFD100
3FD0001CFA00
3FD00003FF10
3FD00000DF40
3FD00000CF40
3FD00000EF30
3FD00004FE00
3FD0004EF800
3FFFFFFFB000
3FFCCBA50000
3FD000000000
3FD000000000
3FD000000000
ENDCHAR
STARTCHAR germandbls
ENCODING 223
SWIDTH 521 0
DWIDTH 13 0
BBX 11 18 1 0
BITMAP
006DFD910000
07FFDEFA0000
1EF502EF2000
4FC000AF5000
6FA000AF4000
7F9000DF2000
7F9006FB0000
7F900CF40000
7F900EF20000
7F900CF70000
7F9004FF5000
7F90006FF500
7F900007FE10
7F900000CF60
7F9000009F60
7F906001DF40
7F92FECEFC00
7F918CED9100
ENDCHAR
STARTCHAR agrave
ENCODING 224
SWIDTH 479 0
DWIDTH 12 0
BBX 10 18 1 0
BITMAP
03EF600000
003EF50000
0003DA0000
0000000000
0000000000
006CEEB300
09FFCDFF20
3FE2009F90
4960004FC0
0000004FC0
005BEFFFC0
09FFB8AFC0
4FE2004FC0
9F80004FC0
9F70004FC0
7FC103DFD0
1EFFEFCFE0
03BEE91FF2
ENDCHAR
STARTCHAR aacute
ENCODING 225
SWIDTH 479 0
DWIDTH 12 0
BBX 10 18 1 0
BITMAP
000006FE30
00005FE300
0001AD2000
0000000000
0000000000
006CEEB300
09FFCDFF20
3FE2009F90
4960004FC0
0000004FC0
005BEFFFC0
09FFB8AFC0
4FE2004FC0
9F80004FC0
9F70004FC0
7FC103DFD0
1EFFEFCFE0
03BEE91FF2
ENDCHAR
STARTCHAR acircumflex
ENCODING 226
SWIDTH 479 0
DWIDTH 12 0
BBX 10 18 1 0
BITMAP
0003EE3000
004EBCE300
00AC12D900
0000000000
0000000000
006CEEB300
09FFCDFF20
3FE2009F90
4960004FC0
0000004FC0
005BEFFFC0
09FFB8AFC0
4FE2004FC0
9F80004FC0
9F70004FC0
7FC103DFD0
1EFFEFCFE0
03BEE91FF2
ENDCHAR
STARTCHAR atilde
ENCODING 227
SWIDTH 479 0
DWIDTH 12 0
BBX 10 18 1 0
BITMAP
0049600B50
03FFFDCF40
07D14CE800
0000000000
0000000000
006CEEB300
09FFCDFF20
3FE2009F90
4960004FC0
0000004FC0
005BEFFFC0
09FFB8AFC0
4FE2004FC0
9F80004FC0
9F70004FC0
7FC103DFD0
1EFFEFCFE0
03BEE91FF2
ENDCHAR
STARTCHAR adieresis
ENCODING 228
SWIDTH 479 0
DWIDTH 12 0
BBX 10 18 1 0
BITMAP
0262002620
0BFA00AFB0
08E7007E80
0000000000
0000000000
006CEEB300
09FFCDFF20
3FE2009F90
4960004FC0
0000004FC0
005BEFFFC0
09FFB8AFC0
4FE2004FC0
9F80004FC0
9F70004FC0
7FC103DFD0
1EFFEFCFE0
03BEE91FF2
ENDCHAR
STARTCHAR aring
ENCODING 229
SWIDTH 479 0
DWIDTH 12 0
BBX 10 19 1 0
BITMAP
0007ED6000
004E34E300
008A00B700
004E33E400
0007EE7000
0000000000
006CEEB300
09FFCDFF20
3FE2009F90
4960004FC0
0000004FC0
005BEFFFC0
09FFB8AFC0
4FE2004FC0
9F80004FC0
9F70004FC0
7FC103DFD0
1EFFEFCFE0
03BEE91FF2
ENDCHAR
STARTCHAR ae
ENCODING 230
SWIDTH 728 0
DWIDTH 17 0
BBX 16 13 1 0
BITMAP
019DFD8019EFC500
2EFECEFACFEDFF70
9FC102EFF9004FE1
6A40009FE1000AF5
0000008FA00008F8
03ADEEFFFFFFFFF9
3FFDBBDFDAAAAAA6
BFA0008FA0000000
FF20008FC0000000
FF10008FF3000000
CF7005EFFC1003B0
5FFDDFF5CFECDFF4
07DFD92018DFEB40
ENDCHAR
STARTCHAR ccedilla
ENCODING 231
SWIDTH 461 0
DWIDTH 11 0
BBX 10 18 1 -5
BITMAP
006CEEB300
09FFDDFF40
4FE3007FC0
9F80000EF2
CF40000682
DF30000000
DF30000000
DF30000000
CF40000231
9F70000DF2
4FE3006FD0
09FFDDFE30
006CEEB300
0005F30000
0004CD2000
00001F8000
00028F6000
0007D80000
ENDCHAR
STARTCHAR egrave
ENCODING 232
SWIDTH 468 0
DWIDTH 11 0
BBX 10 18 1 0
BITMAP
05FF400000
005FE30000
0005D80000
0000000000
0000000000
005CEEB400
07FFDDFF40
2FE3008FC0
8F80000EF1
BF50000CF4
CFFFFFFFF4
DFCCCCCCC3
DF40000000
CF50000000
9F90000000
4FF50019A0
09FFECEFC1
006CEEC710
ENDCHAR
STARTCHAR eacute
ENCODING 233
SWIDTH 468 0
DWIDTH 11 0
BBX 10 18 1 0
BITMAP
000009FD20
00008FC100
0002BC1000
0000000000
0000000000
005CEEB400
07FFDDFF40
2FE3008FC0
8F80000EF1
BF50000CF4
CFFFFFFFF4
DFCCCCCCC3
DF40000000
CF50000000
9F90000000
4FF50019A0
09FFECEFC1
006CEEC710
ENDCHAR
STARTCHAR ecircumflex
ENCODING 234
SWIDTH 468 0
DWIDTH 11 0
BBX 10 18 1 0
BITMAP
0005FC1000
006F9DC100
01BB03D700
0000000000
0000000000
005CEEB400
07FFDDFF40
2FE3008FC0
8F80000EF1
BF50000CF4
CFFFFFFFF4
DFCCCCCCC3
DF40000000
CF50000000
9F90000000
4FF50019A0
09FFECEFC1
006CEEC710
ENDCHAR
STARTCHAR edieresis
ENCODING 235
SWIDTH 468 0
DWIDTH 11 0
BBX 10 18 1 0
BITMAP
0361003610
0EF800DF80
0AE500AE50
0000000000
0000000000
005CEEB400
07FFDDFF40
2FE3008FC0
8F80000EF1
BF50000CF4
CFFFFFFFF4
DFCCCCCCC3
DF40000000
CF50000000
9F90000000
4FF50019A0
09FFECEFC1
006CEEC710
ENDCHAR
STARTCHAR igrave
ENCODING 236
SWIDTH 234 0
DWIDTH 6 0
BBX 5 18 -1 0
BITMAP
5FF400
05FE30
005D90
000000
000000
004FC0
004FC0
004FC0
004FC0
004FC0
004FC0
004FC0
004FC0
004FC0
004FC0
004FC0
004FC0
004FC0
ENDCHAR
STARTCHAR iacute
ENCODING 237
SWIDTH 234 0
DWIDTH 6 0
BBX 6 18 1 0
BITMAP
009FD2
07FC10
2BC100
000000
000000
4FC000
4FC000
4FC000
4FC000
4FC000
4FC000
4FC000
4FC000
4FC000
4FC000
4FC000
4FC000
4FC000
ENDCHAR
STARTCHAR icircumflex
ENCODING 238
SWIDTH 234 0
DWIDTH 6 0
BBX 7 18 -1 0
BITMAP
005FD100
05F9DD20
1BB03D70
00000000
00000000
004FC000
004FC000
004FC000
004FC000
004FC000
004FC000
004FC000
004FC000
004FC000
004FC000
004FC000
004FC000
004FC000
ENDCHAR
STARTCHAR idieresis
ENCODING 239
SWIDTH 234 0
DWIDTH 6 0
BBX 8 18 -1 0
BITMAP
36100261
DF800DF9
AE5009E6
00000000
00000000
004FC000
004FC000
004FC000
004FC000
004FC000
004FC000
004FC000
004FC000
004FC000
004FC000
004FC000
004FC000
004FC000
ENDCHAR
STARTCHAR eth
ENCODING 240
SWIDTH 513 0
DWIDTH 12 0
BBX 10 18 1 0
BITMAP
00C8200010
04FFE62BA0
0029FFFD30
0000AFF800
001BF9FF30
000A408FB0
0000001FF2
003BED9CF6
04FFECFFF9
0DF8001CFB
4FD00004FC
8F900004FC
9F700005FB
8F900007F9
5FD0000CF5
0DF8005FD1
04EFDCFF40
003AEEB300
ENDCHAR
STARTCHAR ntilde
ENCODING 241
SWIDTH 483 0
DWIDTH 12 0
BBX 10 18 1 0
BITMAP
0059501C40
05FFFCCF20
09C15DE700
0000000000
0000000000
7F84CFD700
7FCFEEFF60
7FF8009FC0
7FC0002FF0
7F90000FF1
7F90000FF1
7F90000FF1
7F90000FF1
7F90000FF1
7F90000FF1
7F90000FF1
7F90000FF1
7F90000FF1
ENDCHAR
STARTCHAR ograve
ENCODING 242
SWIDTH 501 0
DWIDTH 12 0
BBX 10 18 1 0
BITMAP
04EF500000
004EF40000
0004D90000
0000000000
0000000000
004BEEB500
06FFDDFF70
2FF5005FF3
8FA0000AF9
CF500005FC
DF300003FD
DF300002FE
DF300003FD
CF500004FC
8FA00009F9
2FF5004EF3
07FFDDFF70
005BEEC500
ENDCHAR
STARTCHAR oacute
ENCODING 243
SWIDTH 501 0
DWIDTH 12 0
BBX 10 18 1 0
BITMAP
000007FE30
00006FD200
0001BC2000
0000000000
0000000000
004BEEB500
06FFDDFF70
2FF5005FF3
8FA0000AF9
CF500005FC
DF300003FD
DF300002FE
DF300003FD
CF500004FC
8FA00009F9
2FF5004EF3
07FFDDFF70
005BEEC500
ENDCHAR
STARTCHAR ocircumflex
ENCODING 244
SWIDTH 501 0
DWIDTH 12 0
BBX 10 18 1 0
BITMAP
0004ED2000
004EACD200
00AC12D800
0000000000
0000000000
004BEEB500
06FFDDFF70
2FF5005FF3
8FA0000AF9
CF500005FC
DF300003FD
DF300002FE
DF300003FD
CF500004FC
8FA00009F9
2FF5004EF3
07FFDDFF70
005BEEC500
ENDCHAR
STARTCHAR otilde
ENCODING 245
SWIDTH 501 0
DWIDTH 12 0
BBX 10 18 1 0
BITMAP
0059500C50
04FFFDCF30
08D14CE700
0000000000
0000000000
004BEEB500
06FFDDFF70
2FF5005FF3
8FA0000AF9
CF500005FC
DF300003FD
DF300002FE
DF300003FD
CF500004FC
8FA00009F9
2FF5004EF3
07FFDDFF70
005BEEC500
ENDCHAR
STARTCHAR odieresis
ENCODING 246
SWIDTH 501 0
DWIDTH 12 0
BBX 10 18 1 0
BITMAP
0261002610
0CF900BFA0
08E6008E70
0000000000
0000000000
004BEEB500
06FFDDFF70
2FF5005FF3
8FA0000AF9
CF500005FC
DF300003FD
DF300002FE
DF300003FD
CF500004FC
8FA00009F9
2FF5004EF3
07FFDDFF70
005BEEC500
ENDCHAR
STARTCHAR divide
ENCODING 247
SWIDTH 500 0
DWIDTH 12 0
BBX 11 13 0 1
BITMAP
00002EC00000
00005FF10000
000007600000
000000000000
000000000000
1FFFFFFFFFC0
1FFFFFFFFFC0
022222222220
000000000000
000005300000
00004FF10000
00003FE10000
000001100000
ENDCHAR
STARTCHAR oslash
ENCODING 248
SWIDTH 498 0
DWIDTH 12 0
BBX 10 17 1 -2
BITMAP
0000000130
0000000AB0
003BEEBF40
04FFDDFF40
1EF600EFE1
6FB005ECF6
AF600B96FA
CF402F34FC
DF309C03FD
CF41E503FD
AF66E006FB
6FCC800BF7
1EFF205FE1
04FFDDFF50
02FCEEB400
08D0000000
0430000000
ENDCHAR
STARTCHAR ugrave
ENCODING 249
SWIDTH 483 0
DWIDTH 12 0
BBX 9 18 1 0
BITMAP
05FF400000
005FE30000
0005D80000
0000000000
0000000000
7F90001FF0
7F90001FF0
7F90001FF0
7F90001FF0
7F90001FF0
7F90001FF0
7F90001FF0
7F90001FF0
7F90001FF0
6FB0002FF0
3FF301BFF0
0BFFDFEFF0
01AEEB3EF0
ENDCHAR
STARTCHAR uacute
ENCODING 250
SWIDTH 483 0
DWIDTH 12 0
BBX 9 18 1 0
BITMAP
000009FD20
00008FC100
0002BC1000
0000000000
0000000000
7F90001FF0
7F90001FF0
7F90001FF0
7F90001FF0
7F90001FF0
7F90001FF0
7F90001FF0
7F90001FF0
7F90001FF0
6FB0002FF0
3FF301BFF0
0BFFDFEFF0
01AEEB3EF0
ENDCHAR
STARTCHAR ucircumflex
ENCODING 251
SWIDTH 483 0
DWIDTH 12 0
BBX 9 18 1 0
BITMAP
0005FC1000
006F9DC100
01BB03D700
0000000000
0000000000
7F90001FF0
7F90001FF0
7F90001FF0
7F90001FF0
7F90001FF0
7F90001FF0
7F90001FF0
7F90001FF0
7F90001FF0
6FB0002FF0
3FF301BFF0
0BFFDFEFF0
01AEEB3EF0
ENDCHAR
STARTCHAR udieresis
ENCODING 252
SWIDTH 483 0
DWIDTH 12 0
BBX 9 18 1 0
BITMAP
0361003610
0EF800DF80
0AE500AE50
0000000000
0000000000
7F90001FF0
7F90001FF0
7F90001FF0
7F90001FF0
7F90001FF0
7F90001FF0
7F90001FF0
7F90001FF0
7F90001FF0
6FB0002FF0
3FF301BFF0
0BFFDFEFF0
01AEEB3EF0
ENDCHAR
STARTCHAR yacute
ENCODING 253
SWIDTH 416 0
DWIDTH 10 0
BBX 10 23 0 -5
BITMAP
000003EF60
00002EF500
00008D5000
0000000000
0000000000
7FC0000CF6
2FF1001FF2
0DF4004FC0
09F8008F80
04FC00CF40
00EF11FE00
00AF54FA00
006F88F600
002FCCF200
000CFFD000
0008FF8000
0003FF4000
0000EE0000
0001FA0000
0006F60000
002DF10000
0EFF800000
0DE8000000
ENDCHAR
STARTCHAR thorn
ENCODING 254
SWIDTH 508 0
DWIDTH 12 0
BBX 10 23 1 -5
BITMAP
5FB0000000
5FB0000000
5FB0000000
5FB0000000
5FB0000000
5FB5CFD700
5FEFEEFF80
5FF7007FF2
5FC0000CF7
5FB00007FA
5FB00005FB
5FB00004FC
5FB00005FC
5FB00007FA
5FB0000BF7
5FF5006FF2
5FFFDDFF70
5FB6CFD700
5FB0000000
5FB0000000
5FB0000000
5FB0000000
5FB0000000
ENDCHAR
STARTCHAR ydieresis
ENCODING 255
SWIDTH 416 0
DWIDTH 10 0
BBX 10 23 0 -5
BITMAP
0163000630
07FE007FE0
04EB004EB0
0000000000
0000000000
7FC0000CF6
2FF1001FF2
0DF4004FC0
09F8008F80
04FC00CF40
00EF11FE00
00AF54FA00
006F88F600
002FCCF200
000CFFD000
0008FF8000
0003FF4000
0000EE0000
0001FA0000
0006F60000
002DF10000
0EFF800000
0DE8000000
ENDCHAR
STARTCHAR Amacron
ENCODING 256
SWIDTH 576 0
DWIDTH 14 0
BBX 14 21 0 0
BITMAP
0004AAAAAA4000
0006FFFFFF6000
00000000000000
00000000000000
000002FE100000
000007FF500000
00000CFFA00000
00002FCEE00000
00007F7AF40000
0000CF35F90000
0002FD01FE0000
0006F900CF4000
000BF5007F9000
001FF1003FE000
006FB0000DF400
00BFFFFFFFF800
01FFDDDDDDFD00
06FC000001EF30
0AF8000000AF80
1FF30000005FD0
5FD00000001FF3
ENDCHAR
STARTCHAR amacron
ENCODING 257
SWIDTH 479 0
DWIDTH 12 0
BBX 10 17 1 0
BITMAP
04AAAAAA40
06FFFFFF70
0000000000
0000000000
006CEEB300
09FFCDFF20
3FE2009F90
4960004FC0
0000004FC0
005BEFFFC0
09FFB8AFC0
4FE2004FC0
9F80004FC0
9F70004FC0
7FC103DFD0
1EFFEFCFE0
03BEE91FF2
ENDCHAR
STARTCHAR Abreve
ENCODING 258
SWIDTH 576 0
DWIDTH 14 0
BBX 14 23 0 0
BITMAP
00036100263000
0006F6007F5000
0001DE78ED1000
00002AEEA20000
00000000000000
00000000000000
000002FE100000
000007FF500000
00000CFFA00000
00002FCEE00000
00007F7AF40000
0000CF35F90000
0002FD01FE0000
0006F900CF4000
000BF5007F9000
001FF1003FE000
006FB0000DF400
00BFFFFFFFF800
01FFDDDDDDFD00
06FC000001EF30
0AF8000000AF80
1FF30000005FD0
5FD00000001FF3
ENDCHAR
STARTCHAR abreve
ENCODING 259
SWIDTH 479 0
DWIDTH 12 0
BBX 10 19 1 0
BITMAP
0361002630
06F6007F50
01DE78ED10
002AEEA200
0000000000
0000000000
006CEEB300
09FFCDFF20
3FE2009F90
4960004FC0
0000004FC0
005BEFFFC0
09FFB8AFC0
4FE2004FC0
9F80004FC0
9F70004FC0
7FC103DFD0
1EFFEFCFE0
03BEE91FF2
ENDCHAR
STARTCHAR Aogonek
ENCODING 260
SWIDTH 576 0
DWIDTH 14 0
BBX 14 22 0 -5
BITMAP
000002FE100000
000007FF500000
00000CFFA00000
00002FCEE00000
00007F7AF40000
0000CF35F90000
0002FD01FE0000
0006F900CF4000
000BF5007F9000
001FF1003FE000
006FB0000DF400
00BFFFFFFFF800
01FFDDDDDDFD00
06FC000001EF30
0AF8000000AF80
1FF30000005FD0
5FD00000001FF3
00000000007F60
0000000003F900
0000000007F500
0000000006FDB0
0000000001BEB0
ENDCHAR
STARTCHAR aogonek
ENCODING 261
SWIDTH 479 0
DWIDTH 12 0
BBX 10 18 1 -5
BITMAP
006CEEB300
09FFCDFF20
3FE2009F90
4960004FC0
0000004FC0
005BEFFFC0
09FFB8AFC0
4FE2004FC0
9F80004FC0
9F70004FC0
7FC103DFD0
1EFFEFDFE0
03BEE92FF2
0000008F50
000004F800
000008F400
000007FCB0
000001BEB0
ENDCHAR
STARTCHAR Cacute
ENCODING 262
SWIDTH 566 0
DWIDTH 14 0
BBX 12 21 1 0
BITMAP
0000007FE300
000005FD2000
00001BD20000
000000000000
0005BEFD8100
009FFEEFFD20
06FE5002CFB0
0EF600002FF2
4FE000000CF6
7FB0000007B6
8FA000000000
8F9000000000
8F9000000000
8F9000000000
8FA000000000
7FB0000007A5
4FE000000CF6
0EF500001FF2
06FE4002BFB0
00AFFDDFFD20
0006CEFD8100
ENDCHAR
STARTCHAR cacute
ENCODING 263
SWIDTH 461 0
DWIDTH 11 0
BBX 10 18 1 0
BITMAP
00001DF900
0001CF8000
0005D80000
0000000000
0000000000
006CEEB300
09FFDDFF40
4FE3007FC0
9F80000EF2
CF40000682
DF30000000
DF30000000
DF30000000
CF40000231
9F70000DF2
4FE3006FD0
09FFDDFE30
006CEEB300
ENDCHAR
STARTCHAR Ccircumflex
ENCODING 264
SWIDTH 566 0
DWIDTH 14 0
BBX 12 21 1 0
BITMAP
00004ED20000
0004EACE2000
000AC12D8000
000000000000
0005BEFD8100
009FFEEFFD20
06FE5002CFB0
0EF600002FF2
4FE000000CF6
7FB0000007B6
8FA000000000
8F9000000000
8F9000000000
8F9000000000
8FA000000000
7FB0000007A5
4FE000000CF6
0EF500001FF2
06FE4002BFB0
00AFFDDFFD20
0006CEFD8100
ENDCHAR
STARTCHAR ccircumflex
ENCODING 265
SWIDTH 461 0
DWIDTH 11 0
BBX 10 18 1 0
BITMAP
000AF80000
00AF8F9000
04D608C300
0000000000
0000000000
006CEEB300
09FFDDFF40
4FE3007FC0
9F80000EF2
CF40000682
DF30000000
DF30000000
DF30000000
CF40000231
9F70000DF2
4FE3006FD0
09FFDDFE30
006CEEB300
ENDCHAR
STARTCHAR Cdotaccent
ENCODING 266
SWIDTH 566 0
DWIDTH 14 0
BBX 12 21 1 0
BITMAP
000006500000
00004FF20000
00002ED10000
000000000000
0005BEFD8100
009FFEEFFD20
06FE5002CFB0
0EF600002FF2
4FE000000CF6
7FB0000007B6
8FA000000000
8F9000000000
8F9000000000
8F9000000000
8FA000000000
7FB0000007A5
4FE000000CF6
0EF500001FF2
06FE4002BFB0
00AFFDDFFD20
0006CEFD8100
ENDCHAR
STARTCHAR cdotaccent
ENCODING 267
SWIDTH 461 0
DWIDTH 11 0
BBX 10 18 1 0
BITMAP
0002720000
000BFA0000
0008E70000
0000000000
0000000000
006CEEB300
09FFDDFF40
4FE3007FC0
9F80000EF2
CF40000682
DF30000000
DF30000000
DF30000000
CF40000231
9F70000DF2
4FE3006FD0
09FFDDFE30
006CEEB300
ENDCHAR
STARTCHAR Ccaron
ENCODING 268
SWIDTH 566 0
DWIDTH 14 0
BBX 12 21 1 0
BITMAP
001CD12EB000
0002DBCC1000
00003ED10000
000000000000
0005BEFD8100
009FFEEFFD20
06FE5002CFB0
0EF600002FF2
4FE000000CF6
7FB0000007B6
8FA000000000
8F9000000000
8F9000000000
8F9000000000
8FA000000000
7FB0000007A5
4FE000000CF6
0EF500001FF2
06FE4002BFB0
00AFFDDFFD20
0006CEFD8100
ENDCHAR
STARTCHAR ccaron
ENCODING 269
SWIDTH 461 0
DWIDTH 11 0
BBX 10 18 1 0
BITMAP
05F708F400
007F8F6000
0009F70000
0000000000
0000000000
006CEEB300
09FFDDFF40
4FE3007FC0
9F80000EF2
CF40000682
DF30000000
DF30000000
DF30000000
CF40000231
9F70000DF2
4FE3006FD0
09FFDDFE30
006CEEB300
ENDCHAR
STARTCHAR Dcaron
ENCODING 270
SWIDTH 570 0
DWIDTH 14 0
BBX 12 21 1 0
BITMAP
008F40BE2000
000AE9E30000
0000BF500000
000000000000
2FFFFEC81000
2FFDDEFFE300
2FF0002AFE10
2FF00000BF80
2FF000004FD0
2FF000001FF1
2FF000000EF2
2FF000000EF3
2FF000000EF3
2FF000000EF3
2FF000000EF2
2FF000001FF1
2FF000004FD0
2FF00000BF80
2FF0002AFE10
2FFDDEFFE300
2FFFFEC71000
ENDCHAR
STARTCHAR dcaron
ENCODING 271
SWIDTH 569 0
DWIDTH 14 0
BBX 13 18 1 0
BITMAP
0000000CF47F70
0000000CF48F70
0000000CF4AF40
0000000CF5EE00
0000000CF4A500
018DFC4CF40000
0BFFEEFEF40000
5FE4008FF40000
9F80000DF40000
CF40000CF40000
DF30000CF40000
DF30000CF40000
DF30000CF40000
CF40000CF40000
9F80000DF40000
4FE4007FF40000
0AFFEEFDF40000
018DFC4AF40000
ENDCHAR
STARTCHAR Dcroat
ENCODING 272
SWIDTH 585 0
DWIDTH 14 0
BBX 13 17 0 0
BITMAP
00CFFFFDA30000
00CFEDDFFF7000
00CF50016FF500
00CF500005FD00
00CF500000EF30
00CF500000AF60
00CF5000009F80
CFFFFF80008F80
9CEFDC60008F80
00CF5000008F80
00CF5000009F80
00CF500000BF60
00CF500000EF30
00CF500006FD00
00CF50016FF500
00CFDDDFFF7000
00CFFFED930000
ENDCHAR
STARTCHAR dcroat
ENCODING 273
SWIDTH 529 0
DWIDTH 13 0
BBX 12 18 1 0
BITMAP
0000000CF400
0000000CF400
00003FFFFFF3
00002CCEFCC2
0000000CF400
006DFC5CF400
07FFEEFEF400
2FF6008FF400
7FB0000DF400
BF60000CF400
DF40000CF400
DF30000CF400
CF40000CF400
BF60000CF400
7FB0000DF400
2FF6008FF400
07FFEEFFF400
006DFD7AF400
ENDCHAR
STARTCHAR Emacron
ENCODING 274
SWIDTH 496 0
DWIDTH 12 0
BBX 10 21 1 0
BITMAP
00AAAAAA80
00FFFFFFC0
0000000000
0000000000
2FFFFFFFFE
2FFDDDDDDC
2FF0000000
2FF0000000
2FF0000000
2FF0000000
2FF0000000
2FFFFFFFF0
2FFDDDDDD0
2FF0000000
2FF0000000
2FF0000000
2FF0000000
2FF0000000
2FF0000000
2FFDDDDDDD
2FFFFFFFFF
ENDCHAR
STARTCHAR emacron
ENCODING 275
SWIDTH 468 0
DWIDTH 11 0
BBX 10 17 1 0
BITMAP
06AAAAAA30
08FFFFFF40
0000000000
0000000000
005CEEB400
07FFDDFF40
2FE3008FC0
8F80000EF1
BF50000CF4
CFFFFFFFF4
DFCCCCCCC3
DF40000000
CF50000000
9F90000000
4FF50019A0
09FFECEFC1
006CEEC710
ENDCHAR
STARTCHAR Ebreve
ENCODING 276
SWIDTH 496 0
DWIDTH 12 0
BBX 10 23 1 0
BITMAP
0164000550
00FC001FA0
009F97CF40
0008DEC500
0000000000
0000000000
2FFFFFFFFE
2FFDDDDDDC
2FF0000000
2FF0000000
2FF0000000
2FF0000000
2FF0000000
2FFFFFFFF0
2FFDDDDDD0
2FF0000000
2FF0000000
2FF0000000
2FF0000000
2FF0000000
2FF0000000
2FFDDDDDDD
2FFFFFFFFF
ENDCHAR
STARTCHAR ebreve
ENCODING 277
SWIDTH 468 0
DWIDTH 11 0
BBX 10 19 1 0
BITMAP
0460003620
08F4009F20
02ED79FB00
003BED9100
0000000000
0000000000
005CEEB400
07FFDDFF40
2FE3008FC0
8F80000EF1
BF50000CF4
CFFFFFFFF4
DFCCCCCCC3
DF40000000
CF50000000
9F90000000
4FF50019A0
09FFECEFC1
006CEEC710
ENDCHAR
STARTCHAR Edotaccent
ENCODING 278
SWIDTH 496 0
DWIDTH 12 0
BBX 10 21 1 0
BITMAP
0000371000
0000DF8000
0000AE5000
0000000000
2FFFFFFFFE
2FFDDDDDDC
2FF0000000
2FF0000000
2FF0000000
2FF0000000
2FF0000000
2FFFFFFFF0
2FFDDDDDD0
2FF0000000
2FF0000000
2FF0000000
2FF0000000
2FF0000000
2FF0000000
2FFDDDDDDD
2FFFFFFFFF
ENDCHAR
STARTCHAR edotaccent
ENCODING 279
SWIDTH 468 0
DWIDTH 11 0
BBX 10 18 1 0
BITMAP
0001640000
0006FF0000
0004EB0000
0000000000
0000000000
005CEEB400
07FFDDFF40
2FE3008FC0
8F80000EF1
BF50000CF4
CFFFFFFFF4
DFCCCCCCC3
DF40000000
CF50000000
9F90000000
4FF50019A0
09FFECEFC1
006CEEC710
ENDCHAR
STARTCHAR Eogonek
ENCODING 280
SWIDTH 496 0
DWIDTH 12 0
BBX 10 22 1 -5
BITMAP
2FFFFFFFFE
2FFDDDDDDC
2FF0000000
2FF0000000
2FF0000000
2FF0000000
2FF0000000
2FFFFFFFF0
2FFDDDDDD0
2FF0000000
2FF0000000
2FF0000000
2FF0000000
2FF0000000
2FF0000000
2FFDDDDDDD
2FFFFFFFFF
0000003EB1
000000DE10
000002FA00
000001FEA5
0000007ED4
ENDCHAR
STARTCHAR eogonek
ENCODING 281
SWIDTH 468 0
DWIDTH 11 0
BBX 10 18 1 -5
BITMAP
005CEEB400
07FFDDFF40
2FE3008FC0
8F80000EF1
BF50000CF4
CFFFFFFFF4
DFCCCCCCC3
DF40000000
CF50000000
9F90000000
4FF50019A0
09FFECEFC1
006CFFE710
00009F5000
0001FB0000
0003F90000
0001FEA400
00007ED300
ENDCHAR
STARTCHAR Ecaron
ENCODING 282
SWIDTH 496 0
DWIDTH 12 0
BBX 10 21 1 0
BITMAP
007F50AE30
0009E8F400
0000BF6000
0000000000
2FFFFFFFFE
2FFDDDDDDC
2FF0000000
2FF0000000
2FF0000000
2FF0000000
2FF0000000
2FFFFFFFF0
2FFDDDDDD0
2FF0000000
2FF0000000
2FF0000000
2FF0000000
2FF0000000
2FF0000000
2FFDDDDDDD
2FFFFFFFFF
ENDCHAR
STARTCHAR ecaron
ENCODING 283
SWIDTH 468 0
DWIDTH 11 0
BBX 10 18 1 0
BITMAP
02DB03F900
003E9DB000
0004FC1000
0000000000
0000000000
005CEEB400
07FFDDFF40
2FE3008FC0
8F80000EF1
BF50000CF4
CFFFFFFFF4
DFCCCCCCC3
DF40000000
CF50000000
9F90000000
4FF50019A0
09FFECEFC1
006CEEC710
ENDCHAR
STARTCHAR Gcircumflex
ENCODING 284
SWIDTH 590 0
DWIDTH 14 0
BBX 12 21 1 0
BITMAP
00005FC10000
0006F9DC1000
001BB03D7000
000000000000
0007CEFD9200
01CFFEEFFE20
09FD4002CFC0
1FF400002FF3
5FD000000CF6
7FA000000242
8F9000000000
8F9000000000
8F9000000000
8F9000BFFFF8
8F90009CCEF8
7FB0000009F8
4FE0000009F8
0EF6000009F8
07FE50004DF8
009FFEDEFFC1
0005BEFEB600
ENDCHAR
STARTCHAR gcircumflex
ENCODING 285
SWIDTH 492 0
DWIDTH 12 0
BBX 10 23 1 -5
BITMAP
0007FB1000
007F8EC100
02BA05D600
0000000000
0000000000
018DFC49F4
0BFFEEFDF4
4FE4007FF4
9F80000CF4
CF50000CF4
DF30000CF4
DF30000CF4
DF40000CF4
CF50000CF4
9F80000CF4
4FE4007FF4
0BFFEEFEF4
018DFC4CF4
0000000CF4
0000001EF2
0A70009FC0
0CFECEFF40
007CFEB300
ENDCHAR
STARTCHAR Gbreve
ENCODING 286
SWIDTH 590 0
DWIDTH 14 0
BBX 12 23 1 0
BITMAP
004600036200
008F300AF200
002FD79FB000
0003BED91000
000000000000
000000000000
0007CEFD9200
01CFFEEFFE20
09FD4002CFC0
1FF400002FF3
5FD000000CF6
7FA000000242
8F9000000000
8F9000000000
8F9000000000
8F9000BFFFF8
8F90009CCEF8
7FB0000009F8
4FE0000009F8
0EF6000009F8
07FE50004DF8
009FFEDEFFC1
0005BEFEB600
ENDCHAR
STARTCHAR gbreve
ENCODING 287
SWIDTH 492 0
DWIDTH 12 0
BBX 10 24 1 -5
BITMAP
0560003610
0AF200BF10
03FC79F900
004CED8100
0000000000
0000000000
018DFC49F4
0BFFEEFDF4
4FE4007FF4
9F80000CF4
CF50000CF4
DF30000CF4
DF30000CF4
DF40000CF4
CF50000CF4
9F80000CF4
4FE4007FF4
0BFFEEFEF4
018DFC4CF4
0000000CF4
0000001EF2
0A70009FC0
0CFECEFF40
007CFEB300
ENDCHAR
STARTCHAR Gdotaccent
ENCODING 288
SWIDTH 590 0
DWIDTH 14 0
BBX 12 21 1 0
BITMAP
000016400000
00006FF00000
00004EB00000
000000000000
0007CEFD9200
01CFFEEFFE20
09FD4002CFC0
1FF400002FF3
5FD000000CF6
7FA000000242
8F9000000000
8F9000000000
8F9000000000
8F9000BFFFF8
8F90009CCEF8
7FB0000009F8
4FE0000009F8
0EF6000009F8
07FE50004DF8
009FFEDEFFC1
0005BEFEB600
ENDCHAR
STARTCHAR gdotaccent
ENCODING 289
SWIDTH 492 0
DWIDTH 12 0
BBX 10 23 1 -5
BITMAP
0001730000
0008FD0000
0005EA0000
0000000000
0000000000
018DFC49F4
0BFFEEFDF4
4FE4007FF4
9F80000CF4
CF50000CF4
DF30000CF4
DF30000CF4
DF40000CF4
CF50000CF4
9F80000CF4
4FE4007FF4
0BFFEEFEF4
018DFC4CF4
0000000CF4
0000001EF2
0A70009FC0
0CFECEFF40
007CFEB300
ENDCHAR
STARTCHAR uni0122
ENCODING 290
SWIDTH 590 0
DWIDTH 14 0
BBX 12 23 1 -6
BITMAP
0007CEFD9200
01CFFEEFFE20
09FD4002CFC0
1FF400002FF3
5FD000000CF6
7FA000000242
8F9000000000
8F9000000000
8F9000000000
8F9000BFFFF8
8F90009CCEF8
7FB0000009F8
4FE0000009F8
0EF6000009F8
07FE50004DF8
009FFEDEFFC1
0005BEFEB600
000000000000
000009F60000
00000AF50000
00000CF20000
00002FC00000
00001B400000
ENDCHAR
STARTCHAR uni0123
ENCODING 291
SWIDTH 492 0
DWIDTH 12 0
BBX 10 25 1 -5
BITMAP
00004A1000
0000DF1000
0004FC0000
0006FA0000
0006FA0000
0000000000
0000000000
018DFC49F4
0BFFEEFDF4
4FE4007FF4
9F80000CF4
CF50000CF4
DF30000CF4
DF30000CF4
DF40000CF4
CF50000CF4
9F80000CF4
4FE4007FF4
0BFFEEFEF4
018DFC4CF4
0000000CF4
0000001EF2
0A70009FC0
0CFECEFF40
007CFEB300
ENDCHAR
STARTCHAR Hcircumflex
ENCODING 292
SWIDTH 620 0
DWIDTH 15 0
BBX 12 21 1 0
BITMAP
00001CF50000
0001CE9F6000
0007D40BB100
000000000000
2FF0000002FF
2FF0000002FF
2FF0000002FF
2FF0000002FF
2FF0000002FF
2FF0000002FF
2FF0000002FF
2FFFFFFFFFFF
2FFDDDDDDDFF
2FF0000002FF
2FF0000002FF
2FF0000002FF
2FF0000002FF
2FF0000002FF
2FF0000002FF
2FF0000002FF
2FF0000002FF
ENDCHAR
STARTCHAR hcircumflex
ENCODING 293
SWIDTH 482 0
DWIDTH 12 0
BBX 10 22 1 0
BITMAP
001CF50000
02DD9F5000
07D30BB100
0000000000
7F90000000
7F90000000
7F90000000
7F90000000
7F90000000
7F94CFD700
7FDFEEFF60
7FF8009FC0
7FC0002FF0
7F90000FF1
7F90000FF1
7F90000FF1
7F90000FF1
7F90000FF1
7F90000FF1
7F90000FF1
7F90000FF1
7F90000FF1
ENDCHAR
STARTCHAR Hbar
ENCODING 294
SWIDTH 611 0
DWIDTH 15 0
BBX 15 17 0 0
BITMAP
02FF0000002FF000
02FF0000002FF000
02FF0000002FF000
7FFFFFFFFFFFFF40
5BFFAAAAAABFFA30
02FF0000002FF000
02FF0000002FF000
02FFFFFFFFFFF000
02FFDDDDDDDFF000
02FF0000002FF000
02FF0000002FF000
02FF0000002FF000
02FF0000002FF000
02FF0000002FF000
02FF0000002FF000
02FF0000002FF000
02FF0000002FF000
ENDCHAR
STARTCHAR hbar
ENCODING 295
SWIDTH 497 0
DWIDTH 12 0
BBX 12 18 -1 0
BITMAP
001FF0000000
001FF0000000
3FFFFFF30000
2CCFFCC20000
001FF0000000
001FF2AEEA10
001FFDFDFFB0
001FFC104FF2
001FF2000CF5
001FF0000AF6
001FF0000AF6
001FF0000AF6
001FF0000AF6
001FF0000AF6
001FF0000AF6
001FF0000AF6
001FF0000AF6
001FF0000AF6
ENDCHAR
STARTCHAR Itilde
ENCODING 296
SWIDTH 250 0
DWIDTH 6 0
BBX 8 21 -1 0
BITMAP
049600B6
3FFFDCF4
7E24CE90
00000000
001FF100
001FF100
001FF100
001FF100
001FF100
001FF100
001FF100
001FF100
001FF100
001FF100
001FF100
001FF100
001FF100
001FF100
001FF100
001FF100
001FF100
ENDCHAR
STARTCHAR itilde
ENCODING 297
SWIDTH 234 0
DWIDTH 6 0
BBX 8 18 -1 0
BITMAP
069501C3
5FFFCCF2
9C15DE60
00000000
00000000
004FC000
004FC000
004FC000
004FC000
004FC000
004FC000
004FC000
004FC000
004FC000
004FC000
004FC000
004FC000
004FC000
ENDCHAR
STARTCHAR Imacron
ENCODING 298
SWIDTH 250 0
DWIDTH 6 0
BBX 8 21 -1 0
BITMAP
3AAAAAA5
5FFFFFF7
00000000
00000000
001FF100
001FF100
001FF100
001FF100
001FF100
001FF100
001FF100
001FF100
001FF100
001FF100
001FF100
001FF100
001FF100
001FF100
001FF100
001FF100
001FF100
ENDCHAR
STARTCHAR imacron
ENCODING 299
SWIDTH 234 0
DWIDTH 6 0
BBX 8 17 -1 0
BITMAP
5AAAAAA3
8FFFFFF4
00000000
00000000
004FC000
004FC000
004FC000
004FC000
004FC000
004FC000
004FC000
004FC000
004FC000
004FC000
004FC000
004FC000
004FC000
ENDCHAR
STARTCHAR Ibreve
ENCODING 300
SWIDTH 250 0
DWIDTH 6 0
BBX 8 23 -1 0
BITMAP
36200263
5F7006F5
1DE77ED1
02AEEA20
00000000
00000000
001FF100
001FF100
001FF100
001FF100
001FF100
001FF100
001FF100
001FF100
001FF100
001FF100
001FF100
001FF100
001FF100
001FF100
001FF100
001FF100
001FF100
ENDCHAR
STARTCHAR ibreve
ENCODING 301
SWIDTH 234 0
DWIDTH 6 0
BBX 8 19 -1 0
BITMAP
46100362
8F4009F3
2ED78FB0
03BED910
00000000
00000000
004FC000
004FC000
004FC000
004FC000
004FC000
004FC000
004FC000
004FC000
004FC000
004FC000
004FC000
004FC000
004FC000
ENDCHAR
STARTCHAR Iogonek
ENCODING 302
SWIDTH 250 0
DWIDTH 6 0
BBX 5 22 0 -5
BITMAP
01FF10
01FF10
01FF10
01FF10
01FF10
01FF10
01FF10
01FF10
01FF10
01FF10
01FF10
01FF10
01FF10
01FF10
01FF10
01FF10
01FF10
08F500
4F8000
8F4000
7FCB00
1BEB00
ENDCHAR
STARTCHAR iogonek
ENCODING 303
SWIDTH 229 0
DWIDTH 6 0
BBX 4 23 0 -5
BITMAP
0063
05FD
03EA
0000
0000
04FC
04FC
04FC
04FC
04FC
04FC
04FC
04FC
04FC
04FC
04FC
04FC
04FE
1BE3
7F50
BF00
AFB9
3DE8
ENDCHAR
STARTCHAR Idotaccent
ENCODING 304
SWIDTH 250 0
DWIDTH 6 0
BBX 4 21 1 0
BITMAP
0550
3FF3
1DD1
0000
1FF1
1FF1
1FF1
1FF1
1FF1
1FF1
1FF1
1FF1
1FF1
1FF1
1FF1
1FF1
1FF1
1FF1
1FF1
1FF1
1FF1
ENDCHAR
STARTCHAR dotlessi
ENCODING 305
SWIDTH 234 0
DWIDTH 6 0
BBX 3 13 1 0
BITMAP
4FC0
4FC0
4FC0
4FC0
4FC0
4FC0
4FC0
4FC0
4FC0
4FC0
4FC0
4FC0
4FC0
ENDCHAR
STARTCHAR IJ
ENCODING 306
SWIDTH 733 0
DWIDTH 18 0
BBX 15 17 1 0
BITMAP
1FF1000000004FD0
1FF1000000004FD0
1FF1000000004FD0
1FF1000000004FD0
1FF1000000004FD0
1FF1000000004FD0
1FF1000000004FD0
1FF1000000004FD0
1FF1000000004FD0
1FF1000000004FD0
1FF1000000004FD0
1FF1000000004FD0
1FF104ED00005FC0
1FF102FF20009FA0
1FF100DFA104FF50
1FF1004FFFEFFA00
1FF10003BEFD7000
ENDCHAR
STARTCHAR ij
ENCODING 307
SWIDTH 452 0
DWIDTH 11 0
BBX 9 23 1 -5
BITMAP
0630004500
5FD001FF30
3EA000CD10
0000000000
0000000000
4FC000EF30
4FC000EF30
4FC000EF30
4FC000EF30
4FC000EF30
4FC000EF30
4FC000EF30
4FC000EF30
4FC000EF30
4FC000EF30
4FC000EF30
4FC000EF30
4FC000EF30
000000EF30
000000EF20
000002FF10
0000AEFB00
0000AEB200
ENDCHAR
STARTCHAR Jcircumflex
ENCODING 308
SWIDTH 483 0
DWIDTH 12 0
BBX 12 21 0 0
BITMAP
00000009F900
0000009F8FA0
000004C707C4
000000000000
00000004FD00
00000004FD00
00000004FD00
00000004FD00
00000004FD00
00000004FD00
00000004FD00
00000004FD00
00000004FD00
00000004FD00
00000004FD00
00000004FD00
4ED00005FC00
2FF20009FA00
0DFA104FF500
04FFFEFFA000
003BEFD70000
ENDCHAR
STARTCHAR jcircumflex
ENCODING 309
SWIDTH 237 0
DWIDTH 6 0
BBX 7 23 -1 -5
BITMAP
003EE200
04EBCE30
0AC12D90
00000000
00000000
001FF000
001FF000
001FF000
001FF000
001FF000
001FF000
001FF000
001FF000
001FF000
001FF000
001FF000
001FF000
001FF000
001FF000
002FD000
006FB000
4CFF5000
4EE70000
ENDCHAR
STARTCHAR uni0136
ENCODING 310
SWIDTH 544 0
DWIDTH 13 0
BBX 12 22 1 -5
BITMAP
2FF000006FF3
2FF00002EF70
2FF0000CFB00
2FF0008FD100
2FF004FF4000
2FF01EF70000
2FF0BFB00000
2FF7FF300000
2FFFFFA00000
2FFF8FF40000
2FF808FD1000
2FF001DF8000
2FF0005FF300
2FF0000BFC00
2FF00002EF60
2FF000007FE2
2FF000000DFA
00003FB00000
00004FA00000
00006F800000
0000BF300000
000079000000
ENDCHAR
STARTCHAR uni0137
ENCODING 311
SWIDTH 450 0
DWIDTH 11 0
BBX 10 23 1 -5
BITMAP
7FA0000000
7FA0000000
7FA0000000
7FA0000000
7FA0000000
7FA000BFA0
7FA007FD10
7FA02FF300
7FA0CF7000
7FA7FB0000
7FCFF30000
7FFFFA0000
7FF9EF4000
7FB07FD000
7FA00DF700
7FA005FE20
7FA000BFA0
7FA0002FF4
0008F60000
0009F60000
000BF30000
001FD00000
001A400000
ENDCHAR
STARTCHAR kgreenlandic
ENCODING 312
SWIDTH 491 0
DWIDTH 12 0
BBX 10 13 1 0
BITMAP
4FC0002EF5
4FC001CF90
4FC009FC00
4FC05FE200
4FC2EF4000
4FFFF80000
4FFEFC0000
4FC1DF7000
4FC05FE200
4FC00BFB00
4FC002EF60
4FC0007FE2
4FC0000DFB
ENDCHAR
STARTCHAR Lacute
ENCODING 313
SWIDTH 475 0
DWIDTH 11 0
BBX 10 21 1 0
BITMAP
008FD20000
06FD200000
1BC2000000
0000000000
2FF0000000
2FF0000000
2FF0000000
2FF0000000
2FF0000000
2FF0000000
2FF0000000
2FF0000000
2FF0000000
2FF0000000
2FF0000000
2FF0000000
2FF0000000
2FF0000000
2FF0000000
2FFDDDDDD9
2FFFFFFFFA
ENDCHAR
STARTCHAR lacute
ENCODING 314
SWIDTH 229 0
DWIDTH 6 0
BBX 6 23 1 0
BITMAP
009FC1
08FC10
2CB100
000000
000000
4FC000
4FC000
4FC000
4FC000
4FC000
4FC000
4FC000
4FC000
4FC000
4FC000
4FC000
4FC000
4FC000
4FC000
4FC000
4FC000
4FC000
4FC000
ENDCHAR
STARTCHAR uni013B
ENCODING 315
SWIDTH 475 0
DWIDTH 11 0
BBX 10 23 1 -6
BITMAP
2FF0000000
2FF0000000
2FF0000000
2FF0000000
2FF0000000
2FF0000000
2FF0000000
2FF0000000
2FF0000000
2FF0000000
2FF0000000
2FF0000000
2FF0000000
2FF0000000
2FF0000000
2FFDDDDDD9
2FFFFFFFFA
0000000000
0000AF4000
0000BF3000
0000DF1000
0003FB0000
0002B30000
ENDCHAR
STARTCHAR uni013C
ENCODING 316
SWIDTH 229 0
DWIDTH 6 0
BBX 3 24 1 -6
BITMAP
4FC0
4FC0
4FC0
4FC0
4FC0
4FC0
4FC0
4FC0
4FC0
4FC0
4FC0
4FC0
4FC0
4FC0
4FC0
4FC0
4FC0
4FC0
0000
4FB0
4FA0
6F80
BF30
7900
ENDCHAR
STARTCHAR Lcaron
ENCODING 317
SWIDTH 475 0
DWIDTH 11 0
BBX 10 17 1 0
BITMAP
2FF007F700
2FF008F700
2FF00AF400
2FF01EE000
2FF00A5000
2FF0000000
2FF0000000
2FF0000000
2FF0000000
2FF0000000
2FF0000000
2FF0000000
2FF0000000
2FF0000000
2FF0000000
2FFDDDDDD9
2FFFFFFFFA
ENDCHAR
STARTCHAR lcaron
ENCODING 318
SWIDTH 302 0
DWIDTH 7 0
BBX 7 18 1 0
BITMAP
4FC0AF40
4FC0BF40
4FC0DF10
4FC3FB00
4FC1B300
4FC00000
4FC00000
4FC00000
4FC00000
4FC00000
4FC00000
4FC00000
4FC00000
4FC00000
4FC00000
4FC00000
4FC00000
4FC00000
ENDCHAR
STARTCHAR Ldot
ENCODING 319
SWIDTH 475 0
DWIDTH 11 0
BBX 10 17 1 0
BITMAP
2FF0000000
2FF0000000
2FF0000000
2FF0000000
2FF0000000
2FF0000000
2FF0046100
2FF00EF700
2FF00BE400
2FF0000000
2FF0000000
2FF0000000
2FF0000000
2FF0000000
2FF0000000
2FFDDDDDD9
2FFFFFFFFA
ENDCHAR
STARTCHAR ldot
ENCODING 320
SWIDTH 336 0
DWIDTH 8 0
BBX 7 18 1 0
BITMAP
4FC00000
4FC00000
4FC00000
4FC00000
4FC00000
4FC00000
4FC00000
4FC05600
4FC2FF40
4FC1DE20
4FC00000
4FC00000
4FC00000
4FC00000
4FC00000
4FC00000
4FC00000
4FC00000
ENDCHAR
STARTCHAR Lslash
ENCODING 321
SWIDTH 475 0
DWIDTH 11 0
BBX 11 17 0 0
BITMAP
02FF00000000
02FF00000000
02FF00000000
02FF00000000
02FF00000000
02FF00000000
02FF4A600000
04FFFC300000
5FFF30000000
37FF00000000
02FF00000000
02FF00000000
02FF00000000
02FF00000000
02FF00000000
02FFDDDDDD90
02FFFFFFFFA0
ENDCHAR
STARTCHAR lslash
ENCODING 322
SWIDTH 250 0
DWIDTH 6 0
BBX 6 18 0 0
BITMAP
02FF00
02FF00
02FF00
02FF00
02FF00
02FF00
02FF00
02FF96
04FFD4
5FFF00
35FF00
02FF00
02FF00
02FF00
02FF00
02FF00
02FF00
02FF00
ENDCHAR
STARTCHAR Nacute
ENCODING 323
SWIDTH 619 0
DWIDTH 15 0
BBX 12 21 1 0
BITMAP
0000002DF800
000001DF8000
000006D70000
000000000000
2FF4000002FF
2FFC000002FF
2FFF500002FF
2FFFC00002FF
2FFAF50002FF
2FF3FD0002FF
2FF0AF6002FF
2FF02FD002FF
2FF009F602FF
2FF002FE12FF
2FF0008F72FF
2FF0001EE3FF
2FF00008FAFF
2FF00001EFFF
2FF000007FFF
2FF000001EFF
2FF0000007FF
ENDCHAR
STARTCHAR nacute
ENCODING 324
SWIDTH 483 0
DWIDTH 12 0
BBX 10 18 1 0
BITMAP
000008FD20
00007FD200
0001BC1000
0000000000
0000000000
7F84CFD700
7FCFEEFF60
7FF8009FC0
7FC0002FF0
7F90000FF1
7F90000FF1
7F90000FF1
7F90000FF1
7F90000FF1
7F90000FF1
7F90000FF1
7F90000FF1
7F90000FF1
ENDCHAR
STARTCHAR uni0145
ENCODING 325
SWIDTH 619 0
DWIDTH 15 0
BBX 12 23 1 -6
BITMAP
2FF4000002FF
2FFC000002FF
2FFF500002FF
2FFFC00002FF
2FFAF50002FF
2FF3FD0002FF
2FF0AF6002FF
2FF02FD002FF
2FF009F602FF
2FF002FE12FF
2FF0008F72FF
2FF0001EE3FF
2FF00008FAFF
2FF00001EFFF
2FF000007FFF
2FF000001EFF
2FF0000007FF
000000000000
00000BF40000
00000BF30000
00000DF10000
00003FB00000
00002B300000
ENDCHAR
STARTCHAR uni0146
ENCODING 326
SWIDTH 483 0
DWIDTH 12 0
BBX 10 19 1 -6
BITMAP
7F84CFD700
7FCFEEFF60
7FF8009FC0
7FC0002FF0
7F90000FF1
7F90000FF1
7F90000FF1
7F90000FF1
7F90000FF1
7F90000FF1
7F90000FF1
7F90000FF1
7F90000FF1
0000000000
0004FB0000
0004FA0000
0006F80000
000BF20000
0007800000
ENDCHAR
STARTCHAR Ncaron
ENCODING 327
SWIDTH 619 0
DWIDTH 15 0
BBX 12 21 1 0
BITMAP
0006F609F300
00008E8F5000
00000AF60000
000000000000
2FF4000002FF
2FFC000002FF
2FFF500002FF
2FFFC00002FF
2FFAF50002FF
2FF3FD0002FF
2FF0AF6002FF
2FF02FD002FF
2FF009F602FF
2FF002FE12FF
2FF0008F72FF
2FF0001EE3FF
2FF00008FAFF
2FF00001EFFF
2FF000007FFF
2FF000001EFF
2FF0000007FF
ENDCHAR
STARTCHAR ncaron
ENCODING 328
SWIDTH 483 0
DWIDTH 12 0
BBX 10 18 1 0
BITMAP
01DC12EA00
002EADB000
0003ED1000
0000000000
0000000000
7F84CFD700
7FCFEEFF60
7FF8009FC0
7FC0002FF0
7F90000FF1
7F90000FF1
7F90000FF1
7F90000FF1
7F90000FF1
7F90000FF1
7F90000FF1
7F90000FF1
7F90000FF1
ENDCHAR
STARTCHAR napostrophe
ENCODING 329
SWIDTH 483 0
DWIDTH 12 0
BBX 12 18 -1 0
BITMAP
0CF300000000
0CF200000000
0EE000000000
4FA000000000
2B2000000000
007F84CFD700
007FCFEEFF60
007FF8009FC0
007FC0002FF0
007F90000FF1
007F90000FF1
007F90000FF1
007F90000FF1
007F90000FF1
007F90000FF1
007F90000FF1
007F90000FF1
007F90000FF1
ENDCHAR
STARTCHAR Eng
ENCODING 330
SWIDTH 599 0
DWIDTH 14 0
BBX 12 22 1 -5
BITMAP
4FF3000007FB
4FFA000007FB
4FFF300007FB
4FFFB00007FB
4FEEF40007FB
4FE6FB0007FB
4FE0DF4007FB
4FE06FC007FB
4FE00DF507FB
4FE005FD07FB
4FE000CF57FB
4FE0004FD7FB
4FE0000BFDFB
4FE00004FFFB
4FE00000BFFB
4FE000003FFB
4FE000000AFB
0000000007FB
0000000008FA
000000000CF7
00000009EFF2
00000009FC40
ENDCHAR
STARTCHAR eng
ENCODING 331
SWIDTH 498 0
DWIDTH 12 0
BBX 10 18 1 -5
BITMAP
6F83BFD700
6FBEEEFF70
6FF5008FE0
6FB0000EF2
6FA0000DF3
6FA0000CF4
6FA0000CF4
6FA0000CF4
6FA0000CF4
6FA0000CF4
6FA0000CF4
6FA0000CF4
6FA0000CF4
0000000CF4
0000000DF3
0000003FF1
00000EFF90
00001EEA10
ENDCHAR
STARTCHAR Omacron
ENCODING 332
SWIDTH 600 0
DWIDTH 14 0
BBX 12 21 1 0
BITMAP
001AAAAAA700
002FFFFFFB00
000000000000
000000000000
0005BEFD8100
009FFFFFFE20
06FE6003BFC0
0EF600001DF5
3FE0000008FA
6FB0000005FC
7F90000003FE
8F90000003FE
8F90000003FE
8F90000003FE
8F90000003FE
6FB0000005FD
4FE0000008FA
0EF500000DF5
07FE5002BFD0
00AFFFEFFE30
0005BEFD9100
ENDCHAR
STARTCHAR omacron
ENCODING 333
SWIDTH 501 0
DWIDTH 12 0
BBX 10 17 1 0
BITMAP
04AAAAAA40
07FFFFFF60
0000000000
0000000000
004BEEB500
06FFDDFF70
2FF5005FF3
8FA0000AF9
CF500005FC
DF300003FD
DF300002FE
DF300003FD
CF500004FC
8FA00009F9
2FF5004EF3
07FFDDFF70
005BEEC500
ENDCHAR
STARTCHAR Obreve
ENCODING 334
SWIDTH 600 0
DWIDTH 14 0
BBX 12 23 1 0
BITMAP
001630006400
001FA003F900
000AF97DF300
00018DEC4000
000000000000
000000000000
0005BEFD8100
009FFFFFFE20
06FE6003BFC0
0EF600001DF5
3FE0000008FA
6FB0000005FC
7F90000003FE
8F90000003FE
8F90000003FE
8F90000003FE
8F90000003FE
6FB0000005FD
4FE0000008FA
0EF500000DF5
07FE5002BFD0
00AFFFEFFE30
0005BEFD9100
ENDCHAR
STARTCHAR obreve
ENCODING 335
SWIDTH 501 0
DWIDTH 12 0
BBX 10 19 1 0
BITMAP
0361002620
07F5008F40
01EE78EC00
002BEEA100
0000000000
0000000000
004BEEB500
06FFDDFF70
2FF5005FF3
8FA0000AF9
CF500005FC
DF300003FD
DF300002FE
DF300003FD
CF500004FC
8FA00009F9
2FF5004EF3
07FFDDFF70
005BEEC500
ENDCHAR
STARTCHAR Ohungarumlaut
ENCODING 336
SWIDTH 600 0
DWIDTH 14 0
BBX 12 22 1 0
BITMAP
00001EF29FA0
00007F94FE10
0000DF2DF500
0002B83CA000
000000000000
0005BEFD8100
009FFFFFFE20
06FE6003BFC0
0EF600001DF5
3FE0000008FA
6FB0000005FC
7F90000003FE
8F90000003FE
8F90000003FE
8F90000003FE
8F90000003FE
6FB0000005FD
4FE0000008FA
0EF500000DF5
07FE5002BFD0
00AFFFEFFE30
0005BEFD9100
ENDCHAR
STARTCHAR ohungarumlaut
ENCODING 337
SWIDTH 501 0
DWIDTH 12 0
BBX 10 19 1 0
BITMAP
0005FC1DF5
000CF49FA0
003FC3FE10
005D46D500
0000000000
0000000000
004BEEB500
06FFDDFF70
2FF5005FF3
8FA0000AF9
CF500005FC
DF300003FD
DF300002FE
DF300003FD
CF500004FC
8FA00009F9
2FF5004EF3
07FFDDFF70
005BEEC500
ENDCHAR
STARTCHAR OE
ENCODING 338
SWIDTH 826 0
DWIDTH 20 0
BBX 17 17 1 0
BITMAP
0006CEFFFFFFFFFFD0
01BFFCCEFFDDDDDDB0
09FB1003FE00000000
2FE10003FE00000000
7F900003FE00000000
AF600003FE00000000
BF500003FE00000000
BF500003FFFFFFFE00
BF500003FFDDDDDC00
BF500003FE00000000
BF500003FE00000000
AF600003FE00000000
7F900003FE00000000
2FE10003FE00000000
09FB1003FE00000000
01BFFCCEFFDDDDDDC0
0006CEFFFFFFFFFFF0
ENDCHAR
STARTCHAR oe
ENCODING 339
SWIDTH 777 0
DWIDTH 19 0
BBX 17 13 1 0
BITMAP
003BEEA3006DFD7000
04FFDDFE39FFDFF900
1DF6007FEFD203EF30
5FB0000DFF50008F80
9F700008FF10005FA0
BF500006FFFFFFFFB0
CF400005FFCCCCCC90
BF500006FE00000000
9F700008FF10000000
5FC0000CFF60000000
1EF6007FEFE2003A10
04FFDDFF4AFFCDFF40
003BEEB3007DFEB400
ENDCHAR
STARTCHAR Racute
ENCODING 340
SWIDTH 530 0
DWIDTH 13 0
BBX 12 21 1 0
BITMAP
000003EF6000
00002EF50000
00008D500000
000000000000
2FFFFFEB5000
2FFDDDFFF900
2FF00007FF30
2FF00000BF80
2FF000008FA0
2FF000008FA0
2FF00000CF70
2FF0002AFE10
2FFFFFFFE400
2FFDDDFF3000
2FF000BF8000
2FF0005FE100
2FF0000DF600
2FF00007FD00
2FF00001EF40
2FF000009FB0
2FF000003FF3
ENDCHAR
STARTCHAR racute
ENCODING 341
SWIDTH 304 0
DWIDTH 7 0
BBX 7 18 1 0
BITMAP
0003EF60
002EF500
008D5000
00000000
00000000
7F97EB00
7FEFFC00
7FF92200
7FC00000
7F900000
7F900000
7F900000
7F900000
7F900000
7F900000
7F900000
7F900000
7F900000
ENDCHAR
STARTCHAR uni0156
ENCODING 342
SWIDTH 530 0
DWIDTH 13 0
BBX 12 23 1 -6
BITMAP
2FFFFFEB5000
2FFDDDFFF900
2FF00007FF30
2FF00000BF80
2FF000008FA0
2FF000008FA0
2FF00000CF70
2FF0002AFE10
2FFFFFFFE400
2FFDDDFF3000
2FF000BF8000
2FF0005FE100
2FF0000DF600
2FF00007FD00
2FF00001EF40
2FF000009FB0
2FF000003FF3
000000000000
0000BF300000
0000CF200000
0000EF100000
0004FA000000
0002B2000000
ENDCHAR
STARTCHAR uni0157
ENCODING 343
SWIDTH 304 0
DWIDTH 7 0
BBX 6 19 1 -6
BITMAP
7F97EB
7FEFFC
7FF922
7FC000
7F9000
7F9000
7F9000
7F9000
7F9000
7F9000
7F9000
7F9000
7F9000
000000
4FB000
5FA000
7F7000
CF2000
780000
ENDCHAR
STARTCHAR Rcaron
ENCODING 344
SWIDTH 530 0
DWIDTH 13 0
BBX 12 21 1 0
BITMAP
008F40BE2000
000AE9E30000
0000CF400000
000000000000
2FFFFFEB5000
2FFDDDFFF900
2FF00007FF30
2FF00000BF80
2FF000008FA0
2FF000008FA0
2FF00000CF70
2FF0002AFE10
2FFFFFFFE400
2FFDDDFF3000
2FF000BF8000
2FF0005FE100
2FF0000DF600
2FF00007FD00
2FF00001EF40
2FF000009FB0
2FF000003FF3
ENDCHAR
STARTCHAR rcaron
ENCODING 345
SWIDTH 304 0
DWIDTH 7 0
BBX 7 18 1 0
BITMAP
8F40BE20
0AE9E300
00CF4000
00000000
00000000
7F97EB00
7FEFFC00
7FF92200
7FC00000
7F900000
7F900000
7F900000
7F900000
7F900000
7F900000
7F900000
7F900000
7F900000
ENDCHAR
STARTCHAR Sacute
ENCODING 346
SWIDTH 518 0
DWIDTH 12 0
BBX 11 21 1 0
BITMAP
000002EF8000
00001DF70000
00006D600000
000000000000
004AEFD81000
06FFFEFFD200
2FF8002BFB00
7FC00001EF30
8FA00000CF60
6FD000002310
2EFA10000000
05FFE9400000
003BFFFC4000
000038EFF500
0000001AFE10
33000000EF50
EF400000BF70
BF800000DF50
4FF60008FE10
07FFFDFFF600
003ADFEA3000
ENDCHAR
STARTCHAR sacute
ENCODING 347
SWIDTH 455 0
DWIDTH 11 0
BBX 9 18 1 0
BITMAP
000008FD20
00007FD200
0001BC1000
0000000000
0000000000
018DFE9100
0BFECEFD10
4FD101DF60
7FA0006C70
5FE3000000
0BFFA30000
007EFFB300
00016DFE20
000001BF90
CF50005FB0
8FC100AF90
1DFECEFE20
019DFD9200
ENDCHAR
STARTCHAR Scircumflex
ENCODING 348
SWIDTH 518 0
DWIDTH 12 0
BBX 11 21 1 0
BITMAP
0001BF700000
001BE8F70000
005D50AC2000
000000000000
004AEFD81000
06FFFEFFD200
2FF8002BFB00
7FC00001EF30
8FA00000CF60
6FD000002310
2EFA10000000
05FFE9400000
003BFFFC4000
000038EFF500
0000001AFE10
33000000EF50
EF400000BF70
BF800000DF50
4FF60008FE10
07FFFDFFF600
003ADFEA3000
ENDCHAR
STARTCHAR scircumflex
ENCODING 349
SWIDTH 455 0
DWIDTH 11 0
BBX 9 18 1 0
BITMAP
0004FD2000
005FADD200
01AC13D800
0000000000
0000000000
018DFE9100
0BFECEFD10
4FD101DF60
7FA0006C70
5FE3000000
0BFFA30000
007EFFB300
00016DFE20
000001BF90
CF50005FB0
8FC100AF90
1DFECEFE20
019DFD9200
ENDCHAR
STARTCHAR Scedilla
ENCODING 350
SWIDTH 518 0
DWIDTH 12 0
BBX 11 22 1 -5
BITMAP
004AEFD81000
06FFFEFFD200
2FF8002BFB00
7FC00001EF30
8FA00000CF60
6FD000002310
2EFA10000000
05FFE9400000
003BFFFC4000
000038EFF500
0000001AFE10
33000000EF50
EF400000BF70
BF800000DF50
4FF60008FE10
07FFFDFFF600
003ADFEA3000
00006F200000
00005CD20000
000002F70000
000029F60000
00007D800000
ENDCHAR
STARTCHAR scedilla
ENCODING 351
SWIDTH 455 0
DWIDTH 11 0
BBX 9 18 1 -5
BITMAP
018DFE9100
0BFECEFD10
4FD101DF60
7FA0006C70
5FE3000000
0BFFA30000
007EFFB300
00016DFE20
000001BF90
CF50005FB0
8FC100AF90
1DFECEFE20
019DFD9200
0000E90000
0001AE7000
00000AE000
00005EC000
0001EB3000
ENDCHAR
STARTCHAR Scaron
ENCODING 352
SWIDTH 518 0
DWIDTH 12 0
BBX 11 21 1 0
BITMAP
007F50AE3000
0009E8F40000
0000BF600000
000000000000
004AEFD81000
06FFFEFFD200
2FF8002BFB00
7FC00001EF30
8FA00000CF60
6FD000002310
2EFA10000000
05FFE9400000
003BFFFC4000
000038EFF500
0000001AFE10
33000000EF50
EF400000BF70
BF800000DF50
4FF60008FE10
07FFFDFFF600
003ADFEA3000
ENDCHAR
STARTCHAR scaron
ENCODING 353
SWIDTH 455 0
DWIDTH 11 0
BBX 9 18 1 0
BITMAP
01DC12EA00
002EADB000
0003ED1000
0000000000
0000000000
018DFE9100
0BFECEFD10
4FD101DF60
7FA0006C70
5FE3000000
0BFFA30000
007EFFB300
00016DFE20
000001BF90
CF50005FB0
8FC100AF90
1DFECEFE20
019DFD9200
ENDCHAR
STARTCHAR uni0162
ENCODING 354
SWIDTH 520 0
DWIDTH 13 0
BBX 12 22 0 -5
BITMAP
4FFFFFFFFFFC
4DDDDFFEDDDA
00000CF50000
00000CF50000
00000CF50000
00000CF50000
00000CF50000
00000CF50000
00000CF50000
00000CF50000
00000CF50000
00000CF50000
00000CF50000
00000CF50000
00000CF50000
00000CF50000
00000CF50000
000008F00000
000006DB1000
0000004F5000
000003AF3000
000009D60000
ENDCHAR
STARTCHAR uni0163
ENCODING 355
SWIDTH 295 0
DWIDTH 7 0
BBX 7 21 0 -5
BITMAP
00CF4000
00CF4000
00CF4000
BFFFFF30
7AEFBA20
00CF4000
00CF4000
00CF4000
00CF4000
00CF4000
00CF4000
00CF4000
00CF4000
00BF7000
007FFE30
0009ED20
0000F800
0001AE50
00000BD0
00016EB0
0002EA20
ENDCHAR
STARTCHAR Tcaron
ENCODING 356
SWIDTH 520 0
DWIDTH 13 0
BBX 12 21 0 0
BITMAP
0008F40BE200
0000AE9E3000
00000BF50000
000000000000
4FFFFFFFFFFC
4DDDDFFEDDDA
00000CF50000
00000CF50000
00000CF50000
00000CF50000
00000CF50000
00000CF50000
00000CF50000
00000CF50000
00000CF50000
00000CF50000
00000CF50000
00000CF50000
00000CF50000
00000CF50000
00000CF50000
ENDCHAR
STARTCHAR tcaron
ENCODING 357
SWIDTH 314 0
DWIDTH 8 0
BBX 8 20 0 0
BITMAP
000001FE
000001FD
000003FB
000008F5
00CF45B0
00CF4000
00CF4000
BFFFFF30
7AEFBA20
00CF4000
00CF4000
00CF4000
00CF4000
00CF4000
00CF4000
00CF4000
00CF4000
00BF7000
007FFE30
0009ED20
ENDCHAR
STARTCHAR Tbar
ENCODING 358
SWIDTH 520 0
DWIDTH 13 0
BBX 12 17 0 0
BITMAP
4FFFFFFFFFFC
4DDDDFFEDDDA
00000CF50000
00000CF50000
00000CF50000
00000CF50000
000CFFFFF800
0009CEFDC600
00000CF50000
00000CF50000
00000CF50000
00000CF50000
00000CF50000
00000CF50000
00000CF50000
00000CF50000
00000CF50000
ENDCHAR
STARTCHAR tbar
ENCODING 359
SWIDTH 295 0
DWIDTH 7 0
BBX 7 16 0 0
BITMAP
00CF4000
00CF4000
00CF4000
BFFFFF30
7AEFBA20
00CF4000
00CF4000
FFFFFF60
BCEFCC40
00CF4000
00CF4000
00CF4000
00CF4000
00BF7000
007FFE30
0009ED20
ENDCHAR
STARTCHAR Utilde
ENCODING 360
SWIDTH 561 0
DWIDTH 13 0
BBX 11 21 1 0
BITMAP
00069402C300
006FFFCDE100
00AB16DE5000
000000000000
7FA000002FF0
7FA000002FF0
7FA000002FF0
7FA000002FF0
7FA000002FF0
7FA000002FF0
7FA000002FF0
7FA000002FF0
7FA000002FF0
7FA000002FF0
7FA000002FF0
7FA000002FF0
6FB000003FE0
4FE100007FC0
0DFA1004EF60
04FFFDEFFA00
003ADFEC6000
ENDCHAR
STARTCHAR utilde
ENCODING 361
SWIDTH 483 0
DWIDTH 12 0
BBX 9 18 1 0
BITMAP
0069401C30
06FFFCDF10
0AB15DE600
0000000000
0000000000
7F90001FF0
7F90001FF0
7F90001FF0
7F90001FF0
7F90001FF0
7F90001FF0
7F90001FF0
7F90001FF0
7F90001FF0
6FB0002FF0
3FF301BFF0
0BFFDFEFF0
01AEEB3EF0
ENDCHAR
STARTCHAR Umacron
ENCODING 362
SWIDTH 561 0
DWIDTH 13 0
BBX 11 21 1 0
BITMAP
006AAAAAA200
009FFFFFF300
000000000000
000000000000
7FA000002FF0
7FA000002FF0
7FA000002FF0
7FA000002FF0
7FA000002FF0
7FA000002FF0
7FA000002FF0
7FA000002FF0
7FA000002FF0
7FA000002FF0
7FA000002FF0
7FA000002FF0
6FB000003FE0
4FE100007FC0
0DFA1004EF60
04FFFDEFFA00
003ADFEC6000
ENDCHAR
STARTCHAR umacron
ENCODING 363
SWIDTH 483 0
DWIDTH 12 0
BBX 9 17 1 0
BITMAP
06AAAAAA30
08FFFFFF40
0000000000
0000000000
7F90001FF0
7F90001FF0
7F90001FF0
7F90001FF0
7F90001FF0
7F90001FF0
7F90001FF0
7F90001FF0
7F90001FF0
6FB0002FF0
3FF301BFF0
0BFFDFEFF0
01AEEB3EF0
ENDCHAR
STARTCHAR Ubreve
ENCODING 364
SWIDTH 561 0
DWIDTH 13 0
BBX 11 23 1 0
BITMAP
004600036100
009F300AF100
003FD79FA000
0004CED81000
000000000000
000000000000
7FA000002FF0
7FA000002FF0
7FA000002FF0
7FA000002FF0
7FA000002FF0
7FA000002FF0
7FA000002FF0
7FA000002FF0
7FA000002FF0
7FA000002FF0
7FA000002FF0
7FA000002FF0
6FB000003FE0
4FE100007FC0
0DFA1004EF60
04FFFDEFFA00
003ADFEC6000
ENDCHAR
STARTCHAR ubreve
ENCODING 365
SWIDTH 483 0
DWIDTH 12 0
BBX 9 19 1 0
BITMAP
0460003620
08F4009F20
02ED79FB00
003BED9100
0000000000
0000000000
7F90001FF0
7F90001FF0
7F90001FF0
7F90001FF0
7F90001FF0
7F90001FF0
7F90001FF0
7F90001FF0
7F90001FF0
6FB0002FF0
3FF301BFF0
0BFFDFEFF0
01AEEB3EF0
ENDCHAR
STARTCHAR Uring
ENCODING 366
SWIDTH 561 0
DWIDTH 13 0
BBX 11 23 1 0
BITMAP
00019ED40000
0008C26E1000
000B600E3000
0008C26E1000
0001AED40000
000000000000
7FA000002FF0
7FA000002FF0
7FA000002FF0
7FA000002FF0
7FA000002FF0
7FA000002FF0
7FA000002FF0
7FA000002FF0
7FA000002FF0
7FA000002FF0
7FA000002FF0
7FA000002FF0
6FB000003FE0
4FE100007FC0
0DFA1004EF60
04FFFDEFFA00
003ADFEC6000
ENDCHAR
STARTCHAR uring
ENCODING 367
SWIDTH 483 0
DWIDTH 12 0
BBX 9 19 1 0
BITMAP
0009ED4000
007C25E100
00A700D400
007C25E100
0009ED5000
0000000000
7F90001FF0
7F90001FF0
7F90001FF0
7F90001FF0
7F90001FF0
7F90001FF0
7F90001FF0
7F90001FF0
7F90001FF0
6FB0002FF0
3FF301BFF0
0BFFDFEFF0
01AEEB3EF0
ENDCHAR
STARTCHAR Uhungarumlaut
ENCODING 368
SWIDTH 561 0
DWIDTH 13 0
BBX 11 22 1 0
BITMAP
00007FA2FF30
0000EF2BF700
0006F95FC000
0007D28D3000
000000000000
7FA000002FF0
7FA000002FF0
7FA000002FF0
7FA000002FF0
7FA000002FF0
7FA000002FF0
7FA000002FF0
7FA000002FF0
7FA000002FF0
7FA000002FF0
7FA000002FF0
7FA000002FF0
6FB000003FE0
4FE100007FC0
0DFA1004EF60
04FFFDEFFA00
003ADFEC6000
ENDCHAR
STARTCHAR uhungarumlaut
ENCODING 369
SWIDTH 483 0
DWIDTH 12 0
BBX 10 19 1 0
BITMAP
0007FA2EF3
000DF3AF80
005FA5FD00
006D28D400
0000000000
0000000000
7F90001FF0
7F90001FF0
7F90001FF0
7F90001FF0
7F90001FF0
7F90001FF0
7F90001FF0
7F90001FF0
7F90001FF0
6FB0002FF0
3FF301BFF0
0BFFDFEFF0
01AEEB3EF0
ENDCHAR
STARTCHAR Uogonek
ENCODING 370
SWIDTH 561 0
DWIDTH 13 0
BBX 11 22 1 -5
BITMAP
7FA000002FF0
7FA000002FF0
7FA000002FF0
7FA000002FF0
7FA000002FF0
7FA000002FF0
7FA000002FF0
7FA000002FF0
7FA000002FF0
7FA000002FF0
7FA000002FF0
7FA000002FF0
6FB000003FE0
4FE100007FC0
0DFA1004EF60
04FFFDEFFA00
0039DFFF6000
000006F70000
00000CE10000
00000ED00000
00000BFA7000
000003DE6000
ENDCHAR
STARTCHAR uogonek
ENCODING 371
SWIDTH 483 0
DWIDTH 12 0
BBX 10 18 1 -5
BITMAP
7F90001FF0
7F90001FF0
7F90001FF0
7F90001FF0
7F90001FF0
7F90001FF0
7F90001FF0
7F90001FF0
7F90001FF0
6FB0002FF0
3FF301BFF0
0BFFDFEFF0
01AEEB3EF0
0000007F60
000003F900
000007F500
000006FDB0
000001BEB1
ENDCHAR
STARTCHAR Wcircumflex
ENCODING 372
SWIDTH 761 0
DWIDTH 18 0
BBX 18 21 0 0
BITMAP
00000001BF70000000
0000001CE8F7000000
0000006D50AC200000
000000000000000000
1FF10000BF400009F8
0DF40000EF80000CF5
0AF70003FFB0000EF2
07F90006FFE0002FE0
04FC000AFAF3005FB0
01FF000DE5F6007F80
00DF202FA1FA00AF50
00AF505F70DD00DF20
007F809F30AF10FE00
004FB0CE006F53FB00
001FD1FB003F86F800
000DF5F7000EB8F500
000AFAF4000BEAF200
0007FEF00007FEE000
0004FFC00004FFB000
0001FF800001FF8000
0000DF400000CF5000
ENDCHAR
STARTCHAR wcircumflex
ENCODING 373
SWIDTH 649 0
DWIDTH 16 0
BBX 15 18 0 0
BITMAP
0000006FC1000000
000006F9EC100000
00002BA04D600000
0000000000000000
0000000000000000
4FB0003FB0003FD0
1FE0007FE0006F90
0CF300BFF4009F60
09F600EFF800CF20
05F903F9FB00FE00
02FC07F4CF13FA00
00DF1BF18F46F600
00AF4FB04F8AF300
006FBF700ECDE000
002FFF400BFFB000
000EFE0007FF7000
000AFB0003FF3000
0007F70000EF0000
ENDCHAR
STARTCHAR Ycircumflex
ENCODING 374
SWIDTH 524 0
DWIDTH 13 0
BBX 13 21 0 0
BITMAP
00001BF7000000
0001CE8F700000
0006D50AC20000
00000000000000
6FE1000006FE10
1EF600000DF800
08FC00004FF100
01FF3000AF9000
009FA001FF2000
002FF107FA0000
000AF70DF40000
0004FD5FC00000
0000CFDF500000
00005FFD000000
00000DF7000000
00000CF5000000
00000CF5000000
00000CF5000000
00000CF5000000
00000CF5000000
00000CF5000000
ENDCHAR
STARTCHAR ycircumflex
ENCODING 375
SWIDTH 416 0
DWIDTH 10 0
BBX 10 23 0 -5
BITMAP
0001CF5000
001DD9F600
007D30BB10
0000000000
0000000000
7FC0000CF6
2FF1001FF2
0DF4004FC0
09F8008F80
04FC00CF40
00EF11FE00
00AF54FA00
006F88F600
002FCCF200
000CFFD000
0008FF8000
0003FF4000
0000EE0000
0001FA0000
0006F60000
002DF10000
0EFF800000
0DE8000000
ENDCHAR
STARTCHAR Ydieresis
ENCODING 376
SWIDTH 524 0
DWIDTH 13 0
BBX 13 21 0 0
BITMAP
00064000540000
006FF105FF1000
003EC003EC1000
00000000000000
6FE1000006FE10
1EF600000DF800
08FC00004FF100
01FF3000AF9000
009FA001FF2000
002FF107FA0000
000AF70DF40000
0004FD5FC00000
0000CFDF500000
00005FFD000000
00000DF7000000
00000CF5000000
00000CF5000000
00000CF5000000
00000CF5000000
00000CF5000000
00000CF5000000
ENDCHAR
STARTCHAR Zacute
ENCODING 377
SWIDTH 522 0
DWIDTH 13 0
BBX 11 21 1 0
BITMAP
000002EF7000
00001DF70000
00007D600000
000000000000
DFFFFFFFFF40
BDDDDDDDFF30
00000008FB00
0000002FF300
000000AF9000
000004FE1000
00000CF70000
00006FD00000
0001EF400000
0009FB000000
003FF2000000
00BF80000000
05FE10000000
0DF600000000
7FC000000000
EFEDDDDDDD70
EFFFFFFFFF80
ENDCHAR
STARTCHAR zacute
ENCODING 378
SWIDTH 438 0
DWIDTH 11 0
BBX 9 18 1 0
BITMAP
00002EF700
0002DF6000
0007D60000
0000000000
0000000000
DFFFFFFF50
ACCCCCFF40
000008FC00
00002FF300
0000BF8000
0005FD1000
001DF50000
008FB00000
02FF200000
0BF8000000
5FD1000000
DFDCCCCC70
DFFFFFFF90
ENDCHAR
STARTCHAR Zdotaccent
ENCODING 379
SWIDTH 522 0
DWIDTH 13 0
BBX 11 21 1 0
BITMAP
000037100000
0000DF800000
0000AE500000
000000000000
DFFFFFFFFF40
BDDDDDDDFF30
00000008FB00
0000002FF300
000000AF9000
000004FE1000
00000CF70000
00006FD00000
0001EF400000
0009FB000000
003FF2000000
00BF80000000
05FE10000000
0DF600000000
7FC000000000
EFEDDDDDDD70
EFFFFFFFFF80
ENDCHAR
STARTCHAR zdotaccent
ENCODING 380
SWIDTH 438 0
DWIDTH 11 0
BBX 9 18 1 0
BITMAP
0003610000
000EF80000
000AE50000
0000000000
0000000000
DFFFFFFF50
ACCCCCFF40
000008FC00
00002FF300
0000BF8000
0005FD1000
001DF50000
008FB00000
02FF200000
0BF8000000
5FD1000000
DFDCCCCC70
DFFFFFFF90
ENDCHAR
STARTCHAR Zcaron
ENCODING 381
SWIDTH 522 0
DWIDTH 13 0
BBX 11 21 1 0
BITMAP
007F50AE3000
0009E8F40000
0000BF600000
000000000000
DFFFFFFFFF40
BDDDDDDDFF30
00000008FB00
0000002FF300
000000AF9000
000004FE1000
00000CF70000
00006FD00000
0001EF400000
0009FB000000
003FF2000000
00BF80000000
05FE10000000
0DF600000000
7FC000000000
EFEDDDDDDD70
EFFFFFFFFF80
ENDCHAR
STARTCHAR zcaron
ENCODING 382
SWIDTH 438 0
DWIDTH 11 0
BBX 9 18 1 0
BITMAP
07F50AE300
009E9F4000
000BF50000
0000000000
0000000000
DFFFFFFF50
ACCCCCFF40
000008FC00
00002FF300
0000BF8000
0005FD1000
001DF50000
008FB00000
02FF200000
0BF8000000
5FD1000000
DFDCCCCC70
DFFFFFFF90
ENDCHAR
STARTCHAR longs
ENCODING 383
SWIDTH 234 0
DWIDTH 6 0
BBX 6 18 1 0
BITMAP
008EF8
08FFC6
0EF500
2FE000
3FD000
3FD000
3FD000
3FD000
3FD000
3FD000
3FD000
3FD000
3FD000
3FD000
3FD000
3FD000
3FD000
3FD000
ENDCHAR
STARTCHAR uni018F
ENCODING 399
SWIDTH 597 0
DWIDTH 14 0
BBX 12 17 1 0
BITMAP
006BEFDA3000
06FFFEFFF800
02930017FF60
000000006FE1
000000000CF6
0000000007FA
0000000005FD
0000000003FE
FFFFFFFFFFFF
EFCBBBBBBCFE
EF30000005FD
CF40000007FA
9F7000000CF6
4FD100005FE1
0BFB2005EF60
02DFFEEFF700
0017CEEB4000
ENDCHAR
STARTCHAR florin
ENCODING 402
SWIDTH 309 0
DWIDTH 7 0
BBX 8 23 0 -5
BITMAP
0003BEE2
002EFED0
007FC000
009F7000
00AF6000
5FFFFF40
3ADFCA30
00AF6000
00AF6000
00AF6000
00AF6000
00AF6000
00AF6000
00AF6000
00AF6000
00AF6000
00AF6000
00AF6000
00AF6000
00BF5000
01EF3000
BDFB0000
CEB20000
ENDCHAR
STARTCHAR Ohorn
ENCODING 416
SWIDTH 592 0
DWIDTH 14 0
BBX 14 19 1 0
BITMAP
00000000000121
000000000009F4
0005BEEB400BF2
009FFFFFF65FD0
07FE5006EFFE30
1EF400005FE100
5FC000000DF200
AF80000009F700
CF50000006F900
DF40000005FB00
DF40000005FC00
DF40000005FB00
CF50000006FB00
AF80000009F800
6FC000000DF500
1EF400005FE100
07FE5005EF7000
009FFEEFFA0000
0005BEEC500000
ENDCHAR
STARTCHAR ohorn
ENCODING 417
SWIDTH 502 0
DWIDTH 12 0
BBX 12 14 1 0
BITMAP
0000000005B2
003BEEA208F2
04FFDDFD3DD0
1EF6006FFF40
6FB0000CF500
AF600006F900
CF400004FC00
DF300003FD00
CF400003FD00
AF600006FB00
6FB0000BF700
1EF6006FE200
04FFDDFF6000
003BEEB40000
ENDCHAR
STARTCHAR Uhorn
ENCODING 431
SWIDTH 608 0
DWIDTH 15 0
BBX 15 19 1 0
BITMAP
0000000000000760
0000000000000FC0
7FA000002FF03F90
7FA000002FF3CF40
7FA000002FFFF900
7FA000002FF84000
7FA000002FF00000
7FA000002FF00000
7FA000002FF00000
7FA000002FF00000
7FA000002FF00000
7FA000002FF00000
7FA000002FF00000
7FA000002FF00000
6FC000004FD00000
2FF200009FA00000
0BFC2006FF300000
02DFFEFFF6000000
0018DFEB40000000
ENDCHAR
STARTCHAR uhorn
ENCODING 432
SWIDTH 549 0
DWIDTH 13 0
BBX 13 14 1 0
BITMAP
00000000003810
7F90001FF06F20
7F90001FF2BE00
7F90001FFFE500
7F90001FF41000
7F90001FF00000
7F90001FF00000
7F90001FF00000
7F90001FF00000
7F90001FF00000
6FB0002FF00000
3FF301BFF00000
0BFFDFEFF00000
01AEEB3EF00000
ENDCHAR
STARTCHAR uni01F0
ENCODING 496
SWIDTH 237 0
DWIDTH 6 0
BBX 7 23 -1 -5
BITMAP
1CD12EB0
01DBCC10
002ED200
00000000
00000000
001FF000
001FF000
001FF000
001FF000
001FF000
001FF000
001FF000
001FF000
001FF000
001FF000
001FF000
001FF000
001FF000
001FF000
002FD000
006FB000
4CFF5000
4EE70000
ENDCHAR
STARTCHAR Aringacute
ENCODING 506
SWIDTH 576 0
DWIDTH 14 0
BBX 14 23 0 0
BITMAP
00000008F70000
0000002D500000
00000000000000
000003DD200000
00000A66900000
00000A66A00000
000005FF300000
000007FF500000
00000CFFA00000
00002FCEE00000
00007F7AF40000
0000CF35F90000
0002FD01FE0000
0006F900CF4000
000BF5007F9000
001FF1003FE000
006FB0000DF400
00BFFFFFFFF800
01FFDDDDDDFD00
06FC000001EF30
0AF8000000AF80
1FF30000005FD0
5FD00000001FF3
ENDCHAR
STARTCHAR aringacute
ENCODING 507
SWIDTH 479 0
DWIDTH 12 0
BBX 10 20 1 0
BITMAP
000008F700
00002D5000
0000000000
0003DD2000
000A669000
000A66A000
0003DD3000
006CEEB300
09FFCDFF20
3FE2009F90
4960004FC0
0000004FC0
005BEFFFC0
09FFB8AFC0
4FE2004FC0
9F80004FC0
9F70004FC0
7FC103DFD0
1EFFEFCFE0
03BEE91FF2
ENDCHAR
STARTCHAR AEacute
ENCODING 508
SWIDTH 812 0
DWIDTH 19 0
BBX 19 21 0 0
BITMAP
0000000001DF90000000
000000001CF800000000
000000005D7000000000
00000000000000000000
000000009FFFFFFFFF50
00000002FFFDCCCCCC40
0000000AFEF800000000
0000002FE8F900000000
000000AF87FA00000000
000003FE16FA00000000
00000AF806FB00000000
00003FF205FFFFFFF800
0000AF9005FECCCCC600
0003FF2004FC00000000
000BFA0004FD00000000
003FFFFFFFFD00000000
00BFFFFFFFFE00000000
04FF411113FE00000000
0BFB000002FF00000000
4FF4000001FFCCCCCCB0
CFB0000000FFFFFFFFE0
ENDCHAR
STARTCHAR aeacute
ENCODING 509
SWIDTH 728 0
DWIDTH 17 0
BBX 16 18 1 0
BITMAP
00000000AFC10000
00000009FB100000
0000003CB1000000
0000000000000000
0000000000000000
019DFD8019EFC500
2EFECEFACFEDFF70
9FC102EFF9004FE1
6A40009FE1000AF5
0000008FA00008F8
03ADEEFFFFFFFFF9
3FFDBBDFDAAAAAA6
BFA0008FA0000000
FF20008FC0000000
FF10008FF3000000
CF7005EFFC1003B0
5FFDDFF5CFECDFF4
07DFD92018DFEB40
ENDCHAR
STARTCHAR Oslashacute
ENCODING 510
SWIDTH 600 0
DWIDTH 14 0
BBX 13 24 1 -1
BITMAP
0000003EF70000
000002EF600000
000007D5000000
00000000000000
00000000000000
00000000003710
0003ADFC70CB00
006FFFFFFDF300
03FF7103CFC000
0BF800007FF300
2FF10001EEF800
6FB00008E7FC00
8F90001E73FE00
9F80009E12FF00
9F8002F601FF00
9F800AD002FF00
8F903F5003FE00
6FB0BC0005FC00
2FF6F40009F800
0BFFB0002EF300
03FF8003CFA000
00DFFFEFFC1000
07F5AEFD700000
0C800000000000
ENDCHAR
STARTCHAR oslashacute
ENCODING 511
SWIDTH 498 0
DWIDTH 12 0
BBX 10 20 1 -2
BITMAP
00001CFA00
0000BFA000
0004C90000
0000000130
0000000AB0
003BEEBF40
04FFDDFF40
1EF600EFE1
6FB005ECF6
AF600B96FA
CF402F34FC
DF309C03FD
CF41E503FD
AF66E006FB
6FCC800BF7
1EFF205FE1
04FFDDFF50
02FCEEB400
08D0000000
0430000000
ENDCHAR
STARTCHAR uni0218
ENCODING 536
SWIDTH 518 0
DWIDTH 12 0
BBX 11 23 1 -6
BITMAP
004AEFD81000
06FFFEFFD200
2FF8002BFB00
7FC00001EF30
8FA00000CF60
6FD000002310
2EFA10000000
05FFE9400000
003BFFFC4000
000038EFF500
0000001AFE10
33000000EF50
EF400000BF70
BF800000DF50
4FF60008FE10
07FFFDFFF600
003ADFEA3000
000000000000
00009F600000
0000AF500000
0000CF200000
0002FC000000
0001B4000000
ENDCHAR
STARTCHAR uni0219
ENCODING 537
SWIDTH 455 0
DWIDTH 11 0
BBX 9 19 1 -6
BITMAP
018DFE9100
0BFECEFD10
4FD101DF60
7FA0006C70
5FE3000000
0BFFA30000
007EFFB300
00016DFE20
000001BF90
CF50005FB0
8FC100AF90
1DFECEFE20
019DFD9200
0000000000
0002FC0000
0003FC0000
0005F90000
000AF40000
0006A00000
ENDCHAR
STARTCHAR uni021A
ENCODING 538
SWIDTH 520 0
DWIDTH 13 0
BBX 12 23 0 -6
BITMAP
4FFFFFFFFFFC
4DDDDFFEDDDA
00000CF50000
00000CF50000
00000CF50000
00000CF50000
00000CF50000
00000CF50000
00000CF50000
00000CF50000
00000CF50000
00000CF50000
00000CF50000
00000CF50000
00000CF50000
00000CF50000
00000CF50000
000000000000
00000BF30000
00000CF30000
00000EF10000
00004FA00000
00002B200000
ENDCHAR
STARTCHAR uni021B
ENCODING 539
SWIDTH 295 0
DWIDTH 7 0
BBX 7 22 0 -6
BITMAP
00CF4000
00CF4000
00CF4000
BFFFFF30
7AEFBA20
00CF4000
00CF4000
00CF4000
00CF4000
00CF4000
00CF4000
00CF4000
00CF4000
00BF7000
007FFE30
0009ED20
00000000
0004FB00
0004FA00
0006F800
000BF300
00079000
ENDCHAR
STARTCHAR uni0237
ENCODING 567
SWIDTH 237 0
DWIDTH 6 0
BBX 5 18 -1 -5
BITMAP
001FF0
001FF0
001FF0
001FF0
001FF0
001FF0
001FF0
001FF0
001FF0
001FF0
001FF0
001FF0
001FF0
001FF0
002FD0
006FB0
4CFF50
4EE700
ENDCHAR
STARTCHAR uni0259
ENCODING 601
SWIDTH 465 0
DWIDTH 11 0
BBX 10 13 1 0
BITMAP
04BEFC6000
4FFDCFF900
1B3002EF50
0000007FB0
0000001FF0
0000000EF2
CFFFFFFFF3
CFDCCCCFF2
BF50002FF0
8F80006FA0
3FE202EF40
09FFCFF800
007DFD6000
ENDCHAR
STARTCHAR uni02BC
ENCODING 700
SWIDTH 194 0
DWIDTH 5 0
BBX 4 6 0 12
BITMAP
06FA
06FA
08F8
0AF5
1FD0
1B40
ENDCHAR
STARTCHAR circumflex
ENCODING 710
SWIDTH 428 0
DWIDTH 10 0
BBX 6 3 2 15
BITMAP
03EE30
3EBBE3
9D11D9
ENDCHAR
STARTCHAR caron
ENCODING 711
SWIDTH 403 0
DWIDTH 10 0
BBX 7 3 1 15
BITMAP
2EB04F90
03E9EA00
005FC000
ENDCHAR
STARTCHAR uni02C9
ENCODING 713
SWIDTH 414 0
DWIDTH 10 0
BBX 8 2 1 15
BITMAP
5FFFFFF7
5FFFFFF7
ENDCHAR
STARTCHAR breve
ENCODING 728
SWIDTH 426 0
DWIDTH 10 0
BBX 8 4 1 14
BITMAP
6F5004F7
2FC21BF3
06EFFF70
00155200
ENDCHAR
STARTCHAR dotaccent
ENCODING 729
SWIDTH 242 0
DWIDTH 6 0
BBX 4 3 1 15
BITMAP
0650
4FF2
2ED1
ENDCHAR
STARTCHAR ring
ENCODING 730
SWIDTH 334 0
DWIDTH 8 0
BBX 6 5 1 14
BITMAP
07ED60
5E34E3
8900B6
5D34E3
08EE60
ENDCHAR
STARTCHAR ogonek
ENCODING 731
SWIDTH 253 0
DWIDTH 6 0
BBX 5 6 0 -5
BITMAP
003700
05F900
1EC000
4F8000
3FEB30
09ED20
ENDCHAR
STARTCHAR tilde
ENCODING 732
SWIDTH 427 0
DWIDTH 10 0
BBX 8 3 1 15
BITMAP
049600B6
2FFFDBF5
6E23BE90
ENDCHAR
STARTCHAR hungarumlaut
ENCODING 733
SWIDTH 331 0
DWIDTH 8 0
BBX 8 4 1 14
BITMAP
09F84FE1
1FE1CF60
7F77FB00
8D19D200
ENDCHAR
STARTCHAR uni02F3
ENCODING 755
SWIDTH 263 0
DWIDTH 6 0
BBX 4 4 1 -5
BITMAP
2CE4
874C
874C
2CE4
ENDCHAR
STARTCHAR gravecomb
ENCODING 768
SWIDTH 0 0
DWIDTH 0 0
BBX 5 3 -9 15
BITMAP
1DF700
02EF40
003D80
ENDCHAR
STARTCHAR acutecomb
ENCODING 769
SWIDTH 0 0
DWIDTH 0 0
BBX 5 3 -7 15
BITMAP
01CF80
09F900
2CA000
ENDCHAR
STARTCHAR tildecomb
ENCODING 771
SWIDTH 0 0
DWIDTH 0 0
BBX 8 3 -9 15
BITMAP
049600C5
3FFFDCF3
7D14CE80
ENDCHAR
STARTCHAR hookabovecomb
ENCODING 777
SWIDTH 0 0
DWIDTH 0 0
BBX 4 5 -7 15
BITMAP
6D80
27F6
01F9
4FE3
4F30
ENDCHAR
STARTCHAR uni030F
ENCODING 783
SWIDTH 0 0
DWIDTH 0 0
BBX 8 3 -10 15
BITMAP
2DF79F90
02DF7CF5
002CB3D9
ENDCHAR
STARTCHAR dotbelowcomb
ENCODING 803
SWIDTH 0 0
DWIDTH 0 0
BBX 4 3 -9 -5
BITMAP
2DD1
4FF2
0650
ENDCHAR
STARTCHAR tonos
ENCODING 900
SWIDTH 256 0
DWIDTH 6 0
BBX 3 4 2 15
BITMAP
5FA0
7F50
AE00
8900
ENDCHAR
STARTCHAR dieresistonos
ENCODING 901
SWIDTH 452 0
DWIDTH 11 0
BBX 9 5 1 15
BITMAP
0002FD0000
0005F80000
2614D23500
BF7000EF40
8E4000BE20
ENDCHAR
STARTCHAR Alphatonos
ENCODING 902
SWIDTH 576 0
DWIDTH 14 0
BBX 14 19 0 0
BITMAP
008F6000000000
00BF1000000000
00EB02FE100000
00B607FF500000
00000CFFA00000
00002FCEE00000
00007F7AF40000
0000CF35F90000
0002FD01FE0000
0006F900CF4000
000BF5007F9000
001FF1003FE000
006FB0000DF400
00BFFFFFFFF800
01FFDDDDDDFD00
06FC000001EF30
0AF8000000AF80
1FF30000005FD0
5FD00000001FF3
ENDCHAR
STARTCHAR anoteleia
ENCODING 903
SWIDTH 243 0
DWIDTH 6 0
BBX 4 3 1 7
BITMAP
2EC0
5FF1
1860
ENDCHAR
STARTCHAR Epsilontonos
ENCODING 904
SWIDTH 496 0
DWIDTH 12 0
BBX 14 19 -3 0
BITMAP
09F50000000000
0CE10000000000
0EA02FFFFFFFFE
1B502FFDDDDDDC
00002FF0000000
00002FF0000000
00002FF0000000
00002FF0000000
00002FF0000000
00002FFFFFFFF0
00002FFDDDDDD0
00002FF0000000
00002FF0000000
00002FF0000000
00002FF0000000
00002FF0000000
00002FF0000000
00002FFDDDDDDD
00002FFFFFFFFF
ENDCHAR
STARTCHAR Etatonos
ENCODING 905
SWIDTH 620 0
DWIDTH 15 0
BBX 15 19 -2 0
BITMAP
7F70000000000000
AF20000000000000
DC02FF0000002FF0
A702FF0000002FF0
0002FF0000002FF0
0002FF0000002FF0
0002FF0000002FF0
0002FF0000002FF0
0002FF0000002FF0
0002FFFFFFFFFFF0
0002FFDDDDDDDFF0
0002FF0000002FF0
0002FF0000002FF0
0002FF0000002FF0
0002FF0000002FF0
0002FF0000002FF0
0002FF0000002FF0
0002FF0000002FF0
0002FF0000002FF0
ENDCHAR
STARTCHAR Iotatonos
ENCODING 906
SWIDTH 250 0
DWIDTH 6 0
BBX 7 19 -2 0
BITMAP
7F700000
AF200000
DC01FF10
A701FF10
0001FF10
0001FF10
0001FF10
0001FF10
0001FF10
0001FF10
0001FF10
0001FF10
0001FF10
0001FF10
0001FF10
0001FF10
0001FF10
0001FF10
0001FF10
ENDCHAR
STARTCHAR Omicrontonos
ENCODING 908
SWIDTH 610 0
DWIDTH 15 0
BBX 15 19 -1 0
BITMAP
0CF3000000000000
0ED0000000000000
2F7003AEFDA30000
2C206FFFEFFF5000
0003FF81019FE200
000AF900000BF900
000FF3000004FD00
003FE0000001FF10
004FD0000000FF20
004FC0000000FF30
004FC0000000FF30
004FC0000000FF30
004FD0000000FF20
003FE0000001FF10
000FF2000004FD00
000AF900000AF900
0003FF71018FF200
00006FFFEFFF5000
000003AEFEA30000
ENDCHAR
STARTCHAR Upsilontonos
ENCODING 910
SWIDTH 573 0
DWIDTH 14 0
BBX 17 19 -3 0
BITMAP
0DF200000000000000
1FC000000000000000
3F604FF3000004FF20
3C100CF900000AFA00
000005FE10001FF300
000000DF60007FC000
0000006FC000DF5000
0000001EF305FD0000
00000008F90BF60000
00000001FE3FE10000
000000009FDF700000
000000002FFE100000
000000000BF9000000
0000000009F8000000
0000000009F8000000
0000000009F8000000
0000000009F8000000
0000000009F8000000
0000000009F8000000
ENDCHAR
STARTCHAR Omegatonos
ENCODING 911
SWIDTH 591 0
DWIDTH 14 0
BBX 14 19 -1 0
BITMAP
0CF30000000000
0ED00000000000
2F7003BEEB5000
2C206FFEEFF800
0003FF6004EF60
000BF800005FD0
001FF100000EF3
005FD000000AF7
006FB0000009F9
007FB0000008FA
007FB0000008FA
006FB0000008F9
004FC0000009F7
001FE000000CF3
000BF300001FE0
0005F900006F70
0000AF6004EC10
005DDFF85FFED7
006FFFF95FFFF8
ENDCHAR
STARTCHAR iotadieresistonos
ENCODING 912
SWIDTH 299 0
DWIDTH 7 0
BBX 9 20 -1 0
BITMAP
0001FD0000
0004F80000
2614D23600
BF7000EF50
8E5000AE20
0000000000
0000000000
000CF40000
000CF40000
000CF40000
000CF40000
000CF40000
000CF40000
000CF40000
000CF40000
000CF40000
000CF40000
000BF70000
0007FFE300
0001AED200
ENDCHAR
STARTCHAR Alpha
ENCODING 913
SWIDTH 576 0
DWIDTH 14 0
BBX 14 17 0 0
BITMAP
000002FE100000
000007FF500000
00000CFFA00000
00002FCEE00000
00007F7AF40000
0000CF35F90000
0002FD01FE0000
0006F900CF4000
000BF5007F9000
001FF1003FE000
006FB0000DF400
00BFFFFFFFF800
01FFDDDDDDFD00
06FC000001EF30
0AF8000000AF80
1FF30000005FD0
5FD00000001FF3
ENDCHAR
STARTCHAR Beta
ENCODING 914
SWIDTH 545 0
DWIDTH 13 0
BBX 11 17 1 0
BITMAP
2FFFFFEC6000
2FFDDDEFF800
2FF00007FF10
2FF00000EF50
2FF00000CF50
2FF00001EF30
2FF0002BFA00
2FFFFFFFA100
2FFCCCEFE500
2FF00005FF20
2FF00000AF80
2FF000007FA0
2FF000008FA0
2FF00000BF80
2FF00006FF30
2FFDDDEFF800
2FFFFFEC6000
ENDCHAR
STARTCHAR Gamma
ENCODING 915
SWIDTH 487 0
DWIDTH 12 0
BBX 10 17 1 0
BITMAP
1FFFFFFFFC
1FFDDDDDDA
1FF2000000
1FF2000000
1FF2000000
1FF2000000
1FF2000000
1FF2000000
1FF2000000
1FF2000000
1FF2000000
1FF2000000
1FF2000000
1FF2000000
1FF2000000
1FF2000000
1FF2000000
ENDCHAR
STARTCHAR Delta.dup1
ENCODING 916
SWIDTH 614 0
DWIDTH 15 0
BBX 14 17 0 0
BITMAP
000000AF900000
000001EFE00000
000005FFF40000
00000BFCF90000
00001FE3FE0000
00006FA0CF4000
0000CF408F9000
0002FE003FD000
0007F9000DF300
000DF40008F800
003FE00003FD00
008F900000EF30
00DF3000009F80
04FD0000004FD0
09F80000000EF3
0EFDDDDDDDDFF8
5FFFFFFFFFFFFD
ENDCHAR
STARTCHAR Epsilon
ENCODING 917
SWIDTH 496 0
DWIDTH 12 0
BBX 10 17 1 0
BITMAP
2FFFFFFFFE
2FFDDDDDDC
2FF0000000
2FF0000000
2FF0000000
2FF0000000
2FF0000000
2FFFFFFFF0
2FFDDDDDD0
2FF0000000
2FF0000000
2FF0000000
2FF0000000
2FF0000000
2FF0000000
2FFDDDDDDD
2FFFFFFFFF
ENDCHAR
STARTCHAR Zeta
ENCODING 918
SWIDTH 522 0
DWIDTH 13 0
BBX 11 17 1 0
BITMAP
DFFFFFFFFF40
BDDDDDDDFF30
00000008FB00
0000002FF300
000000AF9000
000004FE1000
00000CF70000
00006FD00000
0001EF400000
0009FB000000
003FF2000000
00BF80000000
05FE10000000
0DF600000000
7FC000000000
EFEDDDDDDD70
EFFFFFFFFF80
ENDCHAR
STARTCHAR Eta
ENCODING 919
SWIDTH 620 0
DWIDTH 15 0
BBX 12 17 1 0
BITMAP
2FF0000002FF
2FF0000002FF
2FF0000002FF
2FF0000002FF
2FF0000002FF
2FF0000002FF
2FF0000002FF
2FFFFFFFFFFF
2FFDDDDDDDFF
2FF0000002FF
2FF0000002FF
2FF0000002FF
2FF0000002FF
2FF0000002FF
2FF0000002FF
2FF0000002FF
2FF0000002FF
ENDCHAR
STARTCHAR Theta
ENCODING 920
SWIDTH 593 0
DWIDTH 14 0
BBX 12 17 1 0
BITMAP
0004BEEB5000
008FFFFFF900
06FE6005EF70
0DF600004FE1
4FD000000CF5
8F90000008F9
AF60000006FB
BF54FFFFA5FC
CF53CCCC84FD
CF50000005FC
AF60000005FB
8F90000008F9
4FD000000CF5
0DF500004FE1
06FE5004EF70
008FFFEFFA00
0004BEEC5000
ENDCHAR
STARTCHAR Iota
ENCODING 921
SWIDTH 250 0
DWIDTH 6 0
BBX 4 17 1 0
BITMAP
1FF1
1FF1
1FF1
1FF1
1FF1
1FF1
1FF1
1FF1
1FF1
1FF1
1FF1
1FF1
1FF1
1FF1
1FF1
1FF1
1FF1
ENDCHAR
STARTCHAR Kappa
ENCODING 922
SWIDTH 544 0
DWIDTH 13 0
BBX 12 17 1 0
BITMAP
2FF000006FF3
2FF00002EF70
2FF0000CFB00
2FF0008FD100
2FF004FF4000
2FF01EF70000
2FF0BFB00000
2FF7FF300000
2FFFFFA00000
2FFF8FF40000
2FF808FD1000
2FF001DF8000
2FF0005FF300
2FF0000BFC00
2FF00002EF60
2FF000007FE2
2FF000000DFA
ENDCHAR
STARTCHAR Lambda
ENCODING 923
SWIDTH 572 0
DWIDTH 14 0
BBX 13 17 0 0
BITMAP
000004FE000000
000009FF300000
00000DFF800000
00003FFFD00000
00008F9EF20000
0000CF5AF70000
0002FF16FB0000
0006FB02FF1000
000BF700CF6000
001FF2008FA000
005FD0003FE000
00AF80000EF400
00EF40000AF900
04FE000005FE00
09FA000001FF30
0DF6000000CF80
3FF20000007FC0
ENDCHAR
STARTCHAR Mu
ENCODING 924
SWIDTH 755 0
DWIDTH 18 0
BBX 16 17 1 0
BITMAP
2FFC00000000AFF4
2FFF10000000EFF4
2FFF60000004FFF4
2FFFB0000009FFF4
2FDEF100000EFCF4
2FDAF600004FBBF4
2FD5FA00009F6BF4
2FD0EF1000DF1CF4
2FE0AF5003FB0CF4
2FE04FA008F60DF4
2FF00EE00DF10DF4
2FF009F43FB00DF4
2FF004F97F600DF4
2FF000EECF100DF4
2FF0009FFB000DF4
2FF0004FF6000DF4
2FF0000EF1000DF4
ENDCHAR
STARTCHAR Nu
ENCODING 925
SWIDTH 619 0
DWIDTH 15 0
BBX 12 17 1 0
BITMAP
2FF4000002FF
2FFC000002FF
2FFF500002FF
2FFFC00002FF
2FFAF50002FF
2FF3FD0002FF
2FF0AF6002FF
2FF02FD002FF
2FF009F602FF
2FF002FE12FF
2FF0008F72FF
2FF0001EE3FF
2FF00008FAFF
2FF00001EFFF
2FF000007FFF
2FF000001EFF
2FF0000007FF
ENDCHAR
STARTCHAR Xi
ENCODING 926
SWIDTH 502 0
DWIDTH 12 0
BBX 10 17 1 0
BITMAP
8FFFFFFFF9
7DDDDDDDD8
0000000000
0000000000
0000000000
0000000000
0000000000
0BFFFFFFC0
0ADDDDDDA0
0000000000
0000000000
0000000000
0000000000
0000000000
0000000000
7DDDDDDDD9
8FFFFFFFFB
ENDCHAR
STARTCHAR Omicron
ENCODING 927
SWIDTH 600 0
DWIDTH 14 0
BBX 12 17 1 0
BITMAP
0005BEFD8100
009FFFFFFE20
06FE6003BFC0
0EF600001DF5
3FE0000008FA
6FB0000005FC
7F90000003FE
8F90000003FE
8F90000003FE
8F90000003FE
8F90000003FE
6FB0000005FD
4FE0000008FA
0EF500000DF5
07FE5002BFD0
00AFFFEFFE30
0005BEFD9100
ENDCHAR
STARTCHAR Pi
ENCODING 928
SWIDTH 620 0
DWIDTH 15 0
BBX 12 17 1 0
BITMAP
1FFFFFFFFFFE
1FFDDDDDDDFE
1FF1000004FE
1FF1000004FE
1FF1000004FE
1FF1000004FE
1FF1000004FE
1FF1000004FE
1FF1000004FE
1FF1000004FE
1FF1000004FE
1FF1000004FE
1FF1000004FE
1FF1000004FE
1FF1000004FE
1FF1000004FE
1FF1000004FE
ENDCHAR
STARTCHAR Rho
ENCODING 929
SWIDTH 554 0
DWIDTH 13 0
BBX 12 17 1 0
BITMAP
2FFFFFFD8100
2FFDDDEFFD20
2FF00003DFA0
2FF000003FF2
2FF000000EF4
2FF000000CF5
2FF000000DF4
2FF000003FF1
2FF00014DFA0
2FFFFFFFFD10
2FFDDDCB7100
2FF000000000
2FF000000000
2FF000000000
2FF000000000
2FF000000000
2FF000000000
ENDCHAR
STARTCHAR Sigma
ENCODING 931
SWIDTH 502 0
DWIDTH 12 0
BBX 12 17 0 0
BITMAP
1FFFFFFFFF90
1FFEDDDDDD80
08FD10000000
00CF90000000
003FF4000000
0007FD100000
0000CF900000
00002FF40000
000009FB0000
00002FF40000
0000CF900000
0007FD100000
003FF4000000
00CF80000000
08FD10000000
1FFEDDDDDDD1
1FFFFFFFFFF1
ENDCHAR
STARTCHAR Tau
ENCODING 932
SWIDTH 520 0
DWIDTH 13 0
BBX 12 17 0 0
BITMAP
4FFFFFFFFFFC
4DDDDFFEDDDA
00000CF50000
00000CF50000
00000CF50000
00000CF50000
00000CF50000
00000CF50000
00000CF50000
00000CF50000
00000CF50000
00000CF50000
00000CF50000
00000CF50000
00000CF50000
00000CF50000
00000CF50000
ENDCHAR
STARTCHAR Upsilon
ENCODING 933
SWIDTH 524 0
DWIDTH 13 0
BBX 13 17 0 0
BITMAP
6FE1000006FE10
1EF600000DF800
08FC00004FF100
01FF3000AF9000
009FA001FF2000
002FF107FA0000
000AF70DF40000
0004FD5FC00000
0000CFDF500000
00005FFD000000
00000DF7000000
00000CF5000000
00000CF5000000
00000CF5000000
00000CF5000000
00000CF5000000
00000CF5000000
ENDCHAR
STARTCHAR Phi
ENCODING 934
SWIDTH 621 0
DWIDTH 15 0
BBX 13 17 1 0
BITMAP
000009F9000000
000009F9000000
0029DFFFD92000
03EFFEFEFFE300
1DF819F919FD10
7FB009F900CF70
CF5009F9005FC0
EF3009F9003FF0
FF2009F9002FF0
FF3009F9003FE0
CF6009F9006FB0
7FC009F900CF60
1DFA29F93AFC00
02DFFFFFFFD200
0017BEFEB61000
000009F9000000
000009F9000000
ENDCHAR
STARTCHAR Chi
ENCODING 935
SWIDTH 550 0
DWIDTH 13 0
BBX 13 17 0 0
BITMAP
0DFA000006FF20
05FF20000DF900
00CFA0006FE100
004FF200DF8000
000BFA06FE1000
0003FF2DF70000
0000AFDFE10000
00002FFF600000
00000CFF100000
00003FFF700000
0000BFCFE10000
0004FF2CF80000
000CF905FE2000
005FF200CF9000
00DF90005FF200
06FF20000CFA00
1DF9000005FF30
ENDCHAR
STARTCHAR Psi
ENCODING 936
SWIDTH 600 0
DWIDTH 14 0
BBX 13 17 1 0
BITMAP
FF201FF100EF40
FF201FF100EF40
FF201FF100EF40
FF201FF100EF40
FF201FF100EF40
FF201FF100EF40
FF301FF100EF30
EF401FF101FF20
BF801FF105FE00
6FE11FF10CF900
0DFC4FF4BFE100
02DFFFFFFE3000
0018CFFC810000
00001FF1000000
00001FF1000000
00001FF1000000
00001FF1000000
ENDCHAR
STARTCHAR Omega.dup2
ENCODING 937
SWIDTH 581 0
DWIDTH 14 0
BBX 12 17 1 0
BITMAP
0005CEEA3000
009FFEEFF500
07FE3006FF20
1EF400009FA0
5FD000002FE0
8F9000000EF4
AF8000000CF5
BF7000000CF6
AF7000000CF6
AF8000000CF5
8F9000000DF3
5FB000000FF0
1EE000004FA0
08F60000AF40
01DE4007FA00
8DEFF58FFDD4
9FFFF58FFFF5
ENDCHAR
STARTCHAR Iotadieresis
ENCODING 938
SWIDTH 250 0
DWIDTH 6 0
BBX 8 21 -1 0
BITMAP
26200162
AFB00AFB
7E7007E8
00000000
001FF100
001FF100
001FF100
001FF100
001FF100
001FF100
001FF100
001FF100
001FF100
001FF100
001FF100
001FF100
001FF100
001FF100
001FF100
001FF100
001FF100
ENDCHAR
STARTCHAR Upsilondieresis
ENCODING 939
SWIDTH 524 0
DWIDTH 13 0
BBX 13 21 0 0
BITMAP
00064000540000
006FF105FF1000
003EC003EC1000
00000000000000
6FE1000006FE10
1EF600000DF800
08FC00004FF100
01FF3000AF9000
009FA001FF2000
002FF107FA0000
000AF70DF40000
0004FD5FC00000
0000CFDF500000
00005FFD000000
00000DF7000000
00000CF5000000
00000CF5000000
00000CF5000000
00000CF5000000
00000CF5000000
00000CF5000000
ENDCHAR
STARTCHAR alphatonos
ENCODING 940
SWIDTH 494 0
DWIDTH 12 0
BBX 11 19 1 0
BITMAP
00000DF10000
00001FB00000
00004F600000
00003D100000
000000000000
000000000000
006DFC48F400
07FFDEFCF400
1EF6009FF400
6FB0000EF400
AF70000CF400
CF50000CF400
CF40000CF400
CF40000CF400
AF60000CF400
8FA0000EF400
2FF4008FF600
09FFCDFBFF50
007DFC42CE50
ENDCHAR
STARTCHAR epsilontonos
ENCODING 941
SWIDTH 470 0
DWIDTH 11 0
BBX 10 19 1 0
BITMAP
00009F5000
0000CE1000
0000EA0000
0001B50000
0000000000
0000000000
029DEDA300
2EFECEFF40
8FC1008FC0
9F70001650
5FD3000000
06FFFF9000
1BFEBB7000
8FB0000000
CF50000000
CF50001FF1
8FC1009FD0
1DFECEFF40
019DFEA300
ENDCHAR
STARTCHAR etatonos
ENCODING 942
SWIDTH 498 0
DWIDTH 12 0
BBX 10 24 1 -5
BITMAP
00005F9000
00008F4000
0000AE0000
0000890000
0000000000
0000000000
6F84CFE800
6FCFDDFF80
6FF6006FE0
6FC0000EF2
6FA0000DF4
6FA0000CF4
6FA0000CF4
6FA0000CF4
6FA0000CF4
6FA0000CF4
6FA0000CF4
6FA0000CF4
6FA0000CF4
0000000CF4
0000000CF4
0000000CF4
0000000CF4
0000000CF4
ENDCHAR
STARTCHAR iotatonos
ENCODING 943
SWIDTH 299 0
DWIDTH 7 0
BBX 5 19 2 0
BITMAP
0EE100
2FA000
5F5000
4C0000
000000
000000
CF4000
CF4000
CF4000
CF4000
CF4000
CF4000
CF4000
CF4000
CF4000
CF4000
BF7000
7FFE30
1AED20
ENDCHAR
STARTCHAR upsilondieresistonos
ENCODING 944
SWIDTH 480 0
DWIDTH 12 0
BBX 10 20 1 0
BITMAP
0000CF3000
0000FC0000
1631B71610
6FC0009F90
4E90006E60
0000000000
0000000000
6FA000CF60
6FA0007FB0
6FA0003FE0
6FA0000FF2
6FA0000DF4
6FA0000BF5
6FA0000BF5
6FA0000DF4
5FB0001FF2
4FD0006FD0
0EF502EF70
07FFCFFB00
007DFD8100
ENDCHAR
STARTCHAR alpha
ENCODING 945
SWIDTH 494 0
DWIDTH 12 0
BBX 11 13 1 0
BITMAP
006DFC48F400
07FFDEFCF400
1EF6009FF400
6FB0000EF400
AF70000CF400
CF50000CF400
CF40000CF400
CF40000CF400
AF60000CF400
8FA0000EF400
2FF4008FF600
09FFCDFBFF50
007DFC42CE50
ENDCHAR
STARTCHAR beta
ENCODING 946
SWIDTH 517 0
DWIDTH 12 0
BBX 11 22 1 -5
BITMAP
0019DFC60000
01DFEDFF8000
0AFA004FF200
1FF1000BF600
3FD00009F700
4FC0000BF500
4FC0016FD000
4FC09FFE2000
4FC07CEFA000
4FC0001CF700
4FC00004FD00
4FC00000FF10
4FC00000FF10
4FC00004FE00
4FF5001CF900
4FFFDCFFD100
4FD6CEE91000
4FC000000000
4FC000000000
4FC000000000
4FC000000000
4FC000000000
ENDCHAR
STARTCHAR gamma
ENCODING 947
SWIDTH 444 0
DWIDTH 11 0
BBX 10 18 0 -5
BITMAP
2FE00002FE
0DF30006FA
08F8000AF5
04FC000EF1
00EF104FB0
00AF508F70
005FA0CF20
001FE1FD00
000BF9F800
0006FFF400
0002FFE000
0000CFA000
0000AF7000
0000AF7000
0000AF7000
0000AF7000
0000AF7000
0000AF7000
ENDCHAR
STARTCHAR delta
ENCODING 948
SWIDTH 498 0
DWIDTH 12 0
BBX 10 18 1 0
BITMAP
003AEEC600
02EFEDFC00
07FB001500
08F9000000
04FF500000
008FFC5000
005EFFFB10
07FC47EF90
1FE1005FF2
7F80000CF7
AF500007FA
CF400005FB
BF500006FB
9F700007F9
6FC0000CF5
1EF6006FE1
05FFDDFF40
004BEEB300
ENDCHAR
STARTCHAR epsilon
ENCODING 949
SWIDTH 470 0
DWIDTH 11 0
BBX 10 13 1 0
BITMAP
029DEDA300
2EFECEFF40
8FC1008FC0
9F70001650
5FD3000000
06FFFF9000
1BFEBB7000
8FB0000000
CF50000000
CF50001FF1
8FC1009FD0
1DFECEFF40
019DFEA300
ENDCHAR
STARTCHAR zeta
ENCODING 950
SWIDTH 462 0
DWIDTH 11 0
BBX 9 21 1 -4
BITMAP
8FFFFFFFD0
7CCCCCDFB0
000001CF30
000009F800
00005FC000
0002EF3000
000AF80000
004FD10000
00CF400000
03FC000000
08F7000000
0BF4000000
0DF3000000
0CF4000000
0AFA000000
03FFD83000
003BFFFC10
000026EF50
000000AF40
000001EC00
000002C200
ENDCHAR
STARTCHAR eta
ENCODING 951
SWIDTH 498 0
DWIDTH 12 0
BBX 10 18 1 -5
BITMAP
6F84CFE800
6FCFDDFF80
6FF6006FE0
6FC0000EF2
6FA0000DF4
6FA0000CF4
6FA0000CF4
6FA0000CF4
6FA0000CF4
6FA0000CF4
6FA0000CF4
6FA0000CF4
6FA0000CF4
0000000CF4
0000000CF4
0000000CF4
0000000CF4
0000000CF4
ENDCHAR
STARTCHAR theta
ENCODING 952
SWIDTH 496 0
DWIDTH 12 0
BBX 10 17 1 0
BITMAP
003BEEA200
03EFDDFE20
0BF7009FA0
2FD0001EF1
6F90000BF4
8F700009F6
9F700009F7
9FFFFFFFF8
9FDCCCCEF8
9F700009F8
9F700009F7
8F90000AF6
5FB0000DF4
2FF1002FE1
0BF900AF90
02EFDDFE10
003BEEA200
ENDCHAR
STARTCHAR iota
ENCODING 953
SWIDTH 299 0
DWIDTH 7 0
BBX 5 13 2 0
BITMAP
CF4000
CF4000
CF4000
CF4000
CF4000
CF4000
CF4000
CF4000
CF4000
CF4000
BF7000
7FFE30
1AED20
ENDCHAR
STARTCHAR kappa
ENCODING 954
SWIDTH 491 0
DWIDTH 12 0
BBX 10 13 1 0
BITMAP
4FC0002EF5
4FC001CF90
4FC009FC00
4FC05FE200
4FC2EF4000
4FFFF80000
4FFEFC0000
4FC1DF7000
4FC05FE200
4FC00BFB00
4FC002EF60
4FC0007FE2
4FC0000DFB
ENDCHAR
STARTCHAR lambda
ENCODING 955
SWIDTH 485 0
DWIDTH 12 0
BBX 11 18 0 0
BITMAP
02FD50000000
02DFF1000000
000DF7000000
0007FC000000
0002FF200000
0000CF700000
0000DFC00000
0002FFF20000
0007FFF70000
000CFAFC0000
002FE2FF2000
006FA0CF7000
00BF607FC000
01FF202FF200
05FC000CF600
0AF80007FC00
0EF40001EFC0
4FE000005EC0
ENDCHAR
STARTCHAR uni03BC
ENCODING 956
SWIDTH 498 0
DWIDTH 12 0
BBX 10 18 1 -5
BITMAP
4FC0000DF4
4FC0000DF4
4FC0000DF4
4FC0000DF4
4FC0000DF4
4FC0000DF4
4FC0000DF4
4FC0000DF4
4FD0000DF4
4FF1000DF4
4FF7007FF4
4FFFDDFEF4
4FDAEE6AF4
4FC0000000
4FC0000000
4FC0000000
4FC0000000
4FC0000000
ENDCHAR
STARTCHAR nu
ENCODING 957
SWIDTH 427 0
DWIDTH 10 0
BBX 10 13 0 0
BITMAP
5FC00009F8
1FF1000CF3
0BF4001FE0
06F8005FA0
02FC008F50
00DF10CF10
008F51FC00
004F85F700
000EC8F300
000AFDE000
0006FF9000
0001FF5000
0000CF1000
ENDCHAR
STARTCHAR xi
ENCODING 958
SWIDTH 431 0
DWIDTH 10 0
BBX 9 22 1 -5
BITMAP
003ADFEB10
04FFECDE00
0DF9100100
2FE0000000
3FE0000000
1EF2000000
07FC410000
006EFFF500
02BFFDC400
1DF7000000
7FA0000000
BF50000000
CF40000000
BF70000000
7FD1000000
1DFD610000
02BFFFB500
00027CFF40
0000009F70
0000009F50
000002ED00
000001B300
ENDCHAR
STARTCHAR omicron
ENCODING 959
SWIDTH 501 0
DWIDTH 12 0
BBX 10 13 1 0
BITMAP
004BEEB500
06FFDDFF70
2FF5005FF3
8FA0000AF9
CF500005FC
DF300003FD
DF300002FE
DF300003FD
CF500004FC
8FA00009F9
2FF5004EF3
07FFDDFF70
005BEEC500
ENDCHAR
STARTCHAR pi
ENCODING 960
SWIDTH 520 0
DWIDTH 12 0
BBX 12 13 0 0
BITMAP
6FFFFFFFFFF7
5CEFDCCCFFC5
00CF4001FF00
00CF4001FF00
00CF4001FF00
00CF4001FF00
00CF4001FF00
00CF4001FF00
00CF4001FF00
00CF4001FF00
00CF4000EF30
00CF4000AFFD
00CF40002CEC
ENDCHAR
STARTCHAR rho
ENCODING 961
SWIDTH 498 0
DWIDTH 12 0
BBX 10 18 1 -5
BITMAP
0019EEB300
01DFEDFF40
09FB007FD0
0EF3000DF4
4FD00008F7
5FB00006FA
6FA00005FA
6FA00006FA
6FA00007F9
6FB0000CF6
6FF5006FF1
6FFFDDFF70
6FA6DFD700
6FA0000000
6FA0000000
6FA0000000
6FA0000000
6FA0000000
ENDCHAR
STARTCHAR sigma1
ENCODING 962
SWIDTH 472 0
DWIDTH 11 0
BBX 9 17 1 -4
BITMAP
003BEEA200
04FFDEFE20
0DF6009FA0
5FC0001FE0
9F70000990
BF50000000
CF40000000
CF50000000
AF80000000
5FE2000000
0CFD400000
02DFFC7100
0017DFFE10
000003CF60
0000009F40
000001EC00
000002B300
ENDCHAR
STARTCHAR sigma
ENCODING 963
SWIDTH 498 0
DWIDTH 12 0
BBX 11 13 1 0
BITMAP
003BEFFFFF90
04FFDDFFCC70
1EF6007F7000
6FB0000DF200
9F700008F700
BF500006FA00
CF400005FB00
BF500006FB00
9F700008F900
5FC0000CF500
0DF6007FD000
04FFDDFE3000
003BEEA30000
ENDCHAR
STARTCHAR tau
ENCODING 964
SWIDTH 460 0
DWIDTH 11 0
BBX 9 13 1 0
BITMAP
EFFFFFFFF0
BCCEFDCCB0
0009F70000
0009F70000
0009F70000
0009F70000
0009F70000
0009F70000
0009F70000
0009F70000
0008F90000
0004FFD600
00008ED600
ENDCHAR
STARTCHAR upsilon
ENCODING 965
SWIDTH 480 0
DWIDTH 12 0
BBX 10 13 1 0
BITMAP
6FA000CF60
6FA0007FB0
6FA0003FE0
6FA0000FF2
6FA0000DF4
6FA0000BF5
6FA0000BF5
6FA0000DF4
5FB0001FF2
4FD0006FD0
0EF502EF70
07FFCFFB00
007DFD8100
ENDCHAR
STARTCHAR phi
ENCODING 966
SWIDTH 617 0
DWIDTH 15 0
BBX 13 19 1 -6
BITMAP
02A0009ED91000
0CF707FEEFD200
5FE10AF609FB00
AF800BF500DF40
DF400BF5008F90
EF200BF5006FB0
FF200BF5004FC0
EF400BF5006FB0
BF800BF500AF80
6FE10BF503FF30
0DFC2BF54EFB00
02EFFEFEFFC100
0018DFFEB60000
00000BF5000000
00000BF5000000
00000BF5000000
00000BF5000000
00000BF5000000
00000BF5000000
ENDCHAR
STARTCHAR chi
ENCODING 967
SWIDTH 438 0
DWIDTH 11 0
BBX 11 18 0 -5
BITMAP
5EC30003FD00
5EFE1009F700
00BF701EF200
003FC06FB000
000CF3CF5000
0007FBFE0000
0001FFF80000
0000BFF20000
00007FC00000
0000CFE10000
0002FFF50000
0008FDFB0000
000EF3EF1000
005FC09F7000
00BF604FC000
02FE100DF500
08F90005FFD0
0EF400008E80
ENDCHAR
STARTCHAR psi
ENCODING 968
SWIDTH 612 0
DWIDTH 15 0
BBX 13 19 1 -6
BITMAP
EF200CF406FC00
EF200CF402FF10
EF200CF400DF50
EF200CF400AF80
EF200CF4007FA0
EF200CF4006FA0
EF300CF4006FA0
CF500CF4008F90
AF900CF400CF60
5FE10CF405FF20
0CFC2CF45EF900
02DFFFFEFFB000
0018DFFEB50000
00000CF4000000
00000CF4000000
00000CF4000000
00000CF4000000
00000CF4000000
00000CF4000000
ENDCHAR
STARTCHAR omega
ENCODING 969
SWIDTH 711 0
DWIDTH 17 0
BBX 15 13 1 0
BITMAP
08FA0000000AF800
0DF500000005FE00
2FF100000001FF30
6FC000253000CF60
8F90008F80009F80
9F80008F80007F90
9F70008F80007F90
8F80008F90007F90
7F9000AFA0009F70
4FD000DFD000CF40
0EF405FBF505FE00
06FFCFD1DFDFF600
006DEB202BED6000
ENDCHAR
STARTCHAR iotadieresis
ENCODING 970
SWIDTH 299 0
DWIDTH 7 0
BBX 9 18 -1 0
BITMAP
0640005400
6FF105FF10
3EC003EC10
0000000000
0000000000
000CF40000
000CF40000
000CF40000
000CF40000
000CF40000
000CF40000
000CF40000
000CF40000
000CF40000
000CF40000
000BF70000
0007FFE300
0001AED200
ENDCHAR
STARTCHAR upsilondieresis
ENCODING 971
SWIDTH 480 0
DWIDTH 12 0
BBX 10 18 1 0
BITMAP
0460004600
1FF501FF60
0CE300CE30
0000000000
0000000000
6FA000CF60
6FA0007FB0
6FA0003FE0
6FA0000FF2
6FA0000DF4
6FA0000BF5
6FA0000BF5
6FA0000DF4
5FB0001FF2
4FD0006FD0
0EF502EF70
07FFCFFB00
007DFD8100
ENDCHAR
STARTCHAR omicrontonos
ENCODING 972
SWIDTH 501 0
DWIDTH 12 0
BBX 10 19 1 0
BITMAP
00005F9000
00008F4000
0000BE0000
0000980000
0000000000
0000000000
004BEEB500
06FFDDFF70
2FF5005FF3
8FA0000AF9
CF500005FC
DF300003FD
DF300002FE
DF300003FD
CF500004FC
8FA00009F9
2FF5004EF3
07FFDDFF70
005BEEC500
ENDCHAR
STARTCHAR upsilontonos
ENCODING 973
SWIDTH 480 0
DWIDTH 12 0
BBX 10 19 1 0
BITMAP
0000AF4000
0000DE0000
0000F90000
0001C40000
0000000000
0000000000
6FA000CF60
6FA0007FB0
6FA0003FE0
6FA0000FF2
6FA0000DF4
6FA0000BF5
6FA0000BF5
6FA0000DF4
5FB0001FF2
4FD0006FD0
0EF502EF70
07FFCFFB00
007DFD8100
ENDCHAR
STARTCHAR omegatonos
ENCODING 974
SWIDTH 711 0
DWIDTH 17 0
BBX 15 19 1 0
BITMAP
0000000BF3000000
0000000ED0000000
0000001F80000000
0000002C30000000
0000000000000000
0000000000000000
08FA0000000AF800
0DF500000005FE00
2FF100000001FF30
6FC000253000CF60
8F90008F80009F80
9F80008F80007F90
9F70008F80007F90
8F80008F90007F90
7F9000AFA0009F70
4FD000DFD000CF40
0EF405FBF505FE00
06FFCFD1DFDFF600
006DEB202BED6000
ENDCHAR
STARTCHAR theta1
ENCODING 977
SWIDTH 507 0
DWIDTH 12 0
BBX 11 17 1 0
BITMAP
0002BFE80000
001DFEFF8000
006FC03FE000
008F800EF200
008F800DF300
006FC00DF300
001FF50DF300
0007FF7DF410
9F708FFFFF70
9F70039EFC40
9F70000DF300
9F70000DF300
9F80000EF200
6FB0002FF000
1FF600AFA000
07FFEEFE2000
005CFEB30000
ENDCHAR
STARTCHAR Upsilon1
ENCODING 978
SWIDTH 465 0
DWIDTH 11 0
BBX 12 17 0 0
BITMAP
DE7000004DE3
DFF30000EFF1
1AF90005FD10
03FE100BF600
00CF602FE100
006FB08F9000
001EF2DF3000
0009FCFC0000
0003FFF60000
0000CFE10000
00007FA00000
00007FA00000
00007FA00000
00007FA00000
00007FA00000
00007FA00000
00007FA00000
ENDCHAR
STARTCHAR omega1
ENCODING 982
SWIDTH 678 0
DWIDTH 16 0
BBX 15 13 1 0
BITMAP
FFFFFFFFFFFFFF90
CFFDCCCCCCCFFD70
1FF30000000CF600
4FE000000008FA00
6FB000DF4005FC00
7FA000DF4004FD00
7F9000DF4003FD00
7F9000DF4003FD00
5FB000EF5005FB00
3FD002FF8007F800
0DF409FCE10DF400
06FEDF93FEDFC000
007EE9105DEB2000
ENDCHAR
STARTCHAR uni0400
ENCODING 1024
SWIDTH 496 0
DWIDTH 12 0
BBX 10 21 1 0
BITMAP
01BFB00000
001BFA0000
0001BC3000
0000000000
2FFFFFFFFE
2FFDDDDDDC
2FF0000000
2FF0000000
2FF0000000
2FF0000000
2FF0000000
2FFFFFFFF0
2FFDDDDDD0
2FF0000000
2FF0000000
2FF0000000
2FF0000000
2FF0000000
2FF0000000
2FFDDDDDDD
2FFFFFFFFF
ENDCHAR
STARTCHAR uni0401
ENCODING 1025
SWIDTH 496 0
DWIDTH 12 0
BBX 10 21 1 0
BITMAP
0064000540
06FF105FF1
03EC003EC1
0000000000
2FFFFFFFFE
2FFDDDDDDC
2FF0000000
2FF0000000
2FF0000000
2FF0000000
2FF0000000
2FFFFFFFF0
2FFDDDDDD0
2FF0000000
2FF0000000
2FF0000000
2FF0000000
2FF0000000
2FF0000000
2FFDDDDDDD
2FFFFFFFFF
ENDCHAR
STARTCHAR uni0402
ENCODING 1026
SWIDTH 650 0
DWIDTH 16 0
BBX 15 17 0 0
BITMAP
6FFFFFFFFFFB0000
5DDDEFFDDDDA0000
00006FC000000000
00006FC000000000
00006FC000000000
00006FC000000000
00006FC000000000
00006FDADFEA4000
00006FFFFFFFF600
00006FD4102AFF20
00006FC00000DF70
00006FC000009F90
00006FC000008F90
00006FC00000BF70
00006FC00005FF30
00006FC004DFF800
00006FC005EB5000
ENDCHAR
STARTCHAR uni0403
ENCODING 1027
SWIDTH 487 0
DWIDTH 12 0
BBX 10 21 1 0
BITMAP
000001DF90
00001CF800
00005D7000
0000000000
1FFFFFFFFC
1FFDDDDDDA
1FF2000000
1FF2000000
1FF2000000
1FF2000000
1FF2000000
1FF2000000
1FF2000000
1FF2000000
1FF2000000
1FF2000000
1FF2000000
1FF2000000
1FF2000000
1FF2000000
1FF2000000
ENDCHAR
STARTCHAR uni0404
ENCODING 1028
SWIDTH 589 0
DWIDTH 14 0
BBX 12 17 1 0
BITMAP
0003ADFD8100
006FFEEFFD10
03FF5002CFA0
0CF600002FF2
2FE000000CF6
6FB000000595
7F9000000000
9FFFFFFF0000
9FEDDDDD0000
9F9000000000
8FA000000000
6FC000000584
3FF100000CF6
0CF800002FF2
04FF6002CFA0
007FFEEFFD10
0004BEFD8100
ENDCHAR
STARTCHAR uni0405
ENCODING 1029
SWIDTH 518 0
DWIDTH 12 0
BBX 11 17 1 0
BITMAP
004AEFD81000
06FFFEFFD200
2FF8002BFB00
7FC00001EF30
8FA00000CF60
6FD000002310
2EFA10000000
05FFE9400000
003BFFFC4000
000038EFF500
0000001AFE10
33000000EF50
EF400000BF70
BF800000DF50
4FF60008FE10
07FFFDFFF600
003ADFEA3000
ENDCHAR
STARTCHAR uni0406
ENCODING 1030
SWIDTH 250 0
DWIDTH 6 0
BBX 4 17 1 0
BITMAP
1FF1
1FF1
1FF1
1FF1
1FF1
1FF1
1FF1
1FF1
1FF1
1FF1
1FF1
1FF1
1FF1
1FF1
1FF1
1FF1
1FF1
ENDCHAR
STARTCHAR uni0407
ENCODING 1031
SWIDTH 250 0
DWIDTH 6 0
BBX 8 21 -1 0
BITMAP
26200162
AFB00AFB
7E7007E8
00000000
001FF100
001FF100
001FF100
001FF100
001FF100
001FF100
001FF100
001FF100
001FF100
001FF100
001FF100
001FF100
001FF100
001FF100
001FF100
001FF100
001FF100
ENDCHAR
STARTCHAR uni0408
ENCODING 1032
SWIDTH 483 0
DWIDTH 12 0
BBX 10 17 0 0
BITMAP
00000004FD
00000004FD
00000004FD
00000004FD
00000004FD
00000004FD
00000004FD
00000004FD
00000004FD
00000004FD
00000004FD
00000004FD
4ED00005FC
2FF20009FA
0DFA104FF5
04FFFEFFA0
003BEFD700
ENDCHAR
STARTCHAR uni0409
ENCODING 1033
SWIDTH 923 0
DWIDTH 22 0
BBX 22 17 0 0
BITMAP
0003FFFFFFFFD000000000
0004FFDDDDEFD000000000
0004FD00004FD000000000
0005FC00004FD000000000
0005FC00004FD000000000
0006FB00004FD000000000
0006FB00004FD000000000
0007FA00004FFFFFFD8100
0007F900004FFDDDEFFD10
0008F900004FD00003DF90
0009F800004FD000004FE0
000AF600004FD000000FF2
000CF400004FD000001FF2
001FF100004FD000004FE0
00AFB000004FD00003DF90
4EFF3000004FFDDDDFFD10
4FC40000004FFFFFFD8100
ENDCHAR
STARTCHAR uni040A
ENCODING 1034
SWIDTH 927 0
DWIDTH 22 0
BBX 21 17 1 0
BITMAP
1FF2000004FE0000000000
1FF2000004FE0000000000
1FF2000004FE0000000000
1FF2000004FE0000000000
1FF2000004FE0000000000
1FF2000004FE0000000000
1FF2000004FE0000000000
1FFFFFFFFFFFFFFFD92000
1FFDDDDDDDFFDDDDFFE200
1FF2000004FE00002CFB00
1FF2000004FE000003FF10
1FF2000004FE000000EF30
1FF2000004FE000000FF30
1FF2000004FE000004FF10
1FF2000004FE00003DFA00
1FF2000004FFEEEFFFD200
1FF2000004FFFFFFD91000
ENDCHAR
STARTCHAR uni040B
ENCODING 1035
SWIDTH 705 0
DWIDTH 17 0
BBX 15 17 0 0
BITMAP
2FFFFFFFFFFF0000
2DDDDFFDDDDD0000
00004FE000000000
00004FE000000000
00004FE000000000
00004FE000000000
00004FFBDEFD8100
00004FFFFEEFFC10
00004FE30003DF70
00004FE000006FC0
00004FE000003FE0
00004FE000003FF0
00004FE000003FF0
00004FE000003FF0
00004FE000003FF0
00004FE000003FF0
00004FE000003FF0
ENDCHAR
STARTCHAR uni040C
ENCODING 1036
SWIDTH 544 0
DWIDTH 13 0
BBX 12 21 1 0
BITMAP
000004FF5000
00003EF50000
00008D400000
000000000000
2FF000006FF3
2FF00002EF70
2FF0000CFB00
2FF0008FD100
2FF004FF4000
2FF01EF70000
2FF0BFB00000
2FF7FF300000
2FFFFFA00000
2FFF8FF40000
2FF808FD1000
2FF001DF8000
2FF0005FF300
2FF0000BFC00
2FF00002EF60
2FF000007FE2
2FF000000DFA
ENDCHAR
STARTCHAR uni040D
ENCODING 1037
SWIDTH 619 0
DWIDTH 15 0
BBX 12 21 1 0
BITMAP
000AFC100000
0000AFB00000
00000AC40000
000000000000
1FF1000008FD
1FF100001EFD
1FF100008FFD
1FF10001EFFD
1FF10008FAFD
1FF1001ED4FD
1FF1008F64FD
1FF102FD04FD
1FF109F604FD
1FF12FD004FD
1FF19F6004FD
1FF3FD0004FD
1FFBF60004FD
1FFFD00004FD
1FFF500004FD
1FFD000004FD
1FF5000004FD
ENDCHAR
STARTCHAR uni040E
ENCODING 1038
SWIDTH 547 0
DWIDTH 13 0
BBX 12 23 1 0
BITMAP
005500046000
00BF100CE000
005FC7AF8000
0005CED70000
000000000000
000000000000
BFA000005FF2
5FE10000AFC0
1EF50000EF60
09FB0005FF10
03FF100AFB00
00DF600EF600
007FB04FF100
002FF29FA000
000BF7EF5000
0005FEFE0000
0000EFF90000
00009FF40000
00005FD00000
00009F800000
0002EF200000
01DEFA000000
01FE90000000
ENDCHAR
STARTCHAR uni040F
ENCODING 1039
SWIDTH 621 0
DWIDTH 15 0
BBX 12 21 1 -4
BITMAP
1FF1000004FE
1FF1000004FE
1FF1000004FE
1FF1000004FE
1FF1000004FE
1FF1000004FE
1FF1000004FE
1FF1000004FE
1FF1000004FE
1FF1000004FE
1FF1000004FE
1FF1000004FE
1FF1000004FE
1FF1000004FE
1FF1000004FE
1FFDDDDDDDFE
1FFFFFFFFFFE
000009F90000
000009F90000
000009F90000
000009F90000
ENDCHAR
STARTCHAR uni0410
ENCODING 1040
SWIDTH 576 0
DWIDTH 14 0
BBX 14 17 0 0
BITMAP
000002FE100000
000007FF500000
00000CFFA00000
00002FCEE00000
00007F7AF40000
0000CF35F90000
0002FD01FE0000
0006F900CF4000
000BF5007F9000
001FF1003FE000
006FB0000DF400
00BFFFFFFFF800
01FFDDDDDDFD00
06FC000001EF30
0AF8000000AF80
1FF30000005FD0
5FD00000001FF3
ENDCHAR
STARTCHAR uni0411
ENCODING 1041
SWIDTH 549 0
DWIDTH 13 0
BBX 12 17 1 0
BITMAP
4FFFFFFFFA00
4FFDDDDDD800
4FE000000000
4FE000000000
4FE000000000
4FE000000000
4FE000000000
4FFFFFFD9200
4FFDDDDFFE20
4FE00002CFB0
4FE000003FF1
4FE000000EF3
4FE000000FF3
4FE000003FF1
4FE00002CFB0
4FFDDDDFFE20
4FFFFFFD9200
ENDCHAR
STARTCHAR uni0412
ENCODING 1042
SWIDTH 545 0
DWIDTH 13 0
BBX 11 17 1 0
BITMAP
2FFFFFEC6000
2FFDDDEFF800
2FF00007FF10
2FF00000EF50
2FF00000CF50
2FF00001EF30
2FF0002BFA00
2FFFFFFFA100
2FFCCCEFE500
2FF00005FF20
2FF00000AF80
2FF000007FA0
2FF000008FA0
2FF00000BF80
2FF00006FF30
2FFDDDEFF800
2FFFFFEC6000
ENDCHAR
STARTCHAR uni0413
ENCODING 1043
SWIDTH 487 0
DWIDTH 12 0
BBX 10 17 1 0
BITMAP
1FFFFFFFFC
1FFDDDDDDA
1FF2000000
1FF2000000
1FF2000000
1FF2000000
1FF2000000
1FF2000000
1FF2000000
1FF2000000
1FF2000000
1FF2000000
1FF2000000
1FF2000000
1FF2000000
1FF2000000
1FF2000000
ENDCHAR
STARTCHAR uni0414
ENCODING 1044
SWIDTH 660 0
DWIDTH 16 0
BBX 16 21 0 -4
BITMAP
0000CFFFFFFFF100
0000DFEDDDDFF100
0000DF40001FF100
0000EF40001FF100
0000FF30001FF100
0000FF20001FF100
0001FF20001FF100
0002FF10001FF100
0003FF00001FF100
0005FD00001FF100
0007FB00001FF100
000AF800001FF100
000DF400001FF100
003FE000001FF100
00AF8000001FF100
5DFFDDDDDDDFFDD1
5FFFFFFFFFFFFFF1
5FC0000000002FF1
5FC0000000002FF1
5FC0000000002FF1
5FC0000000002FF0
ENDCHAR
STARTCHAR uni0415
ENCODING 1045
SWIDTH 496 0
DWIDTH 12 0
BBX 10 17 1 0
BITMAP
2FFFFFFFFE
2FFDDDDDDC
2FF0000000
2FF0000000
2FF0000000
2FF0000000
2FF0000000
2FFFFFFFF0
2FFDDDDDD0
2FF0000000
2FF0000000
2FF0000000
2FF0000000
2FF0000000
2FF0000000
2FFDDDDDDD
2FFFFFFFFF
ENDCHAR
STARTCHAR uni0416
ENCODING 1046
SWIDTH 791 0
DWIDTH 19 0
BBX 19 17 0 0
BITMAP
0CFA00007FB00008FE10
04FF30007FB0001EF600
00AFA0007FB0008FC000
002FF3007FB001EF4000
0008FB007FB008FA0000
0001EF307FB01EF20000
00006FB07FB08F800000
00000EFFFFFFFF100000
00003FFDEFEDFF600000
0000BFA07FB08FD00000
0003FF307FB01FF60000
000BFB007FB009FD0000
003FF4007FB002FF6000
00BFC0007FB000AFD000
03FF50007FB0003FF600
0BFD00007FB0000BFD00
4FF600007FB00004FF60
ENDCHAR
STARTCHAR uni0417
ENCODING 1047
SWIDTH 517 0
DWIDTH 12 0
BBX 11 17 1 0
BITMAP
005BEFD92000
09FFEEFFE300
5FF6002CFB00
AF900003FF10
79300000FF20
00000003FE00
0000014CF700
0006FFFF7000
0005DDFFB100
0000001BFB00
00000001FF20
00000000CF50
CC200000DF50
DF700002FF20
7FE5002CFB00
0BFFEEFFD200
006CEFD81000
ENDCHAR
STARTCHAR uni0418
ENCODING 1048
SWIDTH 619 0
DWIDTH 15 0
BBX 12 17 1 0
BITMAP
1FF1000008FD
1FF100001EFD
1FF100008FFD
1FF10001EFFD
1FF10008FAFD
1FF1001ED4FD
1FF1008F64FD
1FF102FD04FD
1FF109F604FD
1FF12FD004FD
1FF19F6004FD
1FF3FD0004FD
1FFBF60004FD
1FFFD00004FD
1FFF500004FD
1FFD000004FD
1FF5000004FD
ENDCHAR
STARTCHAR uni0419
ENCODING 1049
SWIDTH 619 0
DWIDTH 15 0
BBX 12 23 1 0
BITMAP
000640005500
000ED001EC00
0007FA7BF600
00007DEC6000
000000000000
000000000000
1FF1000008FD
1FF100001EFD
1FF100008FFD
1FF10001EFFD
1FF10008FAFD
1FF1001ED4FD
1FF1008F64FD
1FF102FD04FD
1FF109F604FD
1FF12FD004FD
1FF19F6004FD
1FF3FD0004FD
1FFBF60004FD
1FFFD00004FD
1FFF500004FD
1FFD000004FD
1FF5000004FD
ENDCHAR
STARTCHAR uni041A
ENCODING 1050
SWIDTH 560 0
DWIDTH 13 0
BBX 13 17 1 0
BITMAP
1FF100003FF800
1FF10000CFC000
1FF10008FE2000
1FF1003FF60000
1FF101DFB00000
1FF109FE200000
1FF14FF5000000
1FFFFFA0000000
1FFDEFD1000000
1FF11DF9000000
1FF105FF300000
1FF100BFC00000
1FF1002EF70000
1FF10007FE2000
1FF10000DFB000
1FF100004FF500
1FF100000AFE10
ENDCHAR
STARTCHAR uni041B
ENCODING 1051
SWIDTH 615 0
DWIDTH 15 0
BBX 13 17 0 0
BITMAP
0003FFFFFFFFC0
0003FFDDDDEFC0
0004FD00005FC0
0004FC00005FC0
0005FC00005FC0
0005FB00005FC0
0006FB00005FC0
0006FA00005FC0
0007FA00005FC0
0007F900005FC0
0008F800005FC0
000AF600005FC0
000CF400005FC0
001FF100005FC0
00AFB000005FC0
3EFF4000005FC0
4FC40000005FC0
ENDCHAR
STARTCHAR uni041C
ENCODING 1052
SWIDTH 755 0
DWIDTH 18 0
BBX 16 17 1 0
BITMAP
2FFC00000000AFF4
2FFF10000000EFF4
2FFF60000004FFF4
2FFFB0000009FFF4
2FDEF100000EFCF4
2FDAF600004FBBF4
2FD5FA00009F6BF4
2FD0EF1000DF1CF4
2FE0AF5003FB0CF4
2FE04FA008F60DF4
2FF00EE00DF10DF4
2FF009F43FB00DF4
2FF004F97F600DF4
2FF000EECF100DF4
2FF0009FFB000DF4
2FF0004FF6000DF4
2FF0000EF1000DF4
ENDCHAR
STARTCHAR uni041D
ENCODING 1053
SWIDTH 620 0
DWIDTH 15 0
BBX 12 17 1 0
BITMAP
2FF0000002FF
2FF0000002FF
2FF0000002FF
2FF0000002FF
2FF0000002FF
2FF0000002FF
2FF0000002FF
2FFFFFFFFFFF
2FFDDDDDDDFF
2FF0000002FF
2FF0000002FF
2FF0000002FF
2FF0000002FF
2FF0000002FF
2FF0000002FF
2FF0000002FF
2FF0000002FF
ENDCHAR
STARTCHAR uni041E
ENCODING 1054
SWIDTH 600 0
DWIDTH 14 0
BBX 12 17 1 0
BITMAP
0005BEFD8100
009FFFFFFE20
06FE6003BFC0
0EF600001DF5
3FE0000008FA
6FB0000005FC
7F90000003FE
8F90000003FE
8F90000003FE
8F90000003FE
8F90000003FE
6FB0000005FD
4FE0000008FA
0EF500000DF5
07FE5002BFD0
00AFFFEFFE30
0005BEFD9100
ENDCHAR
STARTCHAR uni041F
ENCODING 1055
SWIDTH 620 0
DWIDTH 15 0
BBX 12 17 1 0
BITMAP
1FFFFFFFFFFE
1FFDDDDDDDFE
1FF1000004FE
1FF1000004FE
1FF1000004FE
1FF1000004FE
1FF1000004FE
1FF1000004FE
1FF1000004FE
1FF1000004FE
1FF1000004FE
1FF1000004FE
1FF1000004FE
1FF1000004FE
1FF1000004FE
1FF1000004FE
1FF1000004FE
ENDCHAR
STARTCHAR uni0420
ENCODING 1056
SWIDTH 554 0
DWIDTH 13 0
BBX 12 17 1 0
BITMAP
2FFFFFFD8100
2FFDDDEFFD20
2FF00003DFA0
2FF000003FF2
2FF000000EF4
2FF000000CF5
2FF000000DF4
2FF000003FF1
2FF00014DFA0
2FFFFFFFFD10
2FFDDDCB7100
2FF000000000
2FF000000000
2FF000000000
2FF000000000
2FF000000000
2FF000000000
ENDCHAR
STARTCHAR uni0421
ENCODING 1057
SWIDTH 566 0
DWIDTH 14 0
BBX 12 17 1 0
BITMAP
0005BEFD8100
009FFEEFFD20
06FE5002CFB0
0EF600002FF2
4FE000000CF6
7FB0000007B6
8FA000000000
8F9000000000
8F9000000000
8F9000000000
8FA000000000
7FB0000007A5
4FE000000CF6
0EF500001FF2
06FE4002BFB0
00AFFDDFFD20
0006CEFD8100
ENDCHAR
STARTCHAR uni0422
ENCODING 1058
SWIDTH 520 0
DWIDTH 13 0
BBX 12 17 0 0
BITMAP
4FFFFFFFFFFC
4DDDDFFEDDDA
00000CF50000
00000CF50000
00000CF50000
00000CF50000
00000CF50000
00000CF50000
00000CF50000
00000CF50000
00000CF50000
00000CF50000
00000CF50000
00000CF50000
00000CF50000
00000CF50000
00000CF50000
ENDCHAR
STARTCHAR uni0423
ENCODING 1059
SWIDTH 547 0
DWIDTH 13 0
BBX 12 17 1 0
BITMAP
BFA000005FF2
5FE10000AFC0
1EF50000EF60
09FB0005FF10
03FF100AFB00
00DF600EF600
007FB04FF100
002FF29FA000
000BF7EF5000
0005FEFE0000
0000EFF90000
00009FF40000
00005FD00000
00009F800000
0002EF200000
01DEFA000000
01FE90000000
ENDCHAR
STARTCHAR uni0424
ENCODING 1060
SWIDTH 676 0
DWIDTH 16 0
BBX 15 19 1 -1
BITMAP
000000DF30000000
000000DF30000000
0005BEFFFD810000
009FFCEFCEFD2000
07FC20DF308FC000
2EE100DF300AF600
7F8000DF3003FC00
BF5000DF3000EF10
DF3000DF3000DF30
EF2000DF3000CF40
DF3000DF3000DF30
BF5000DF3000EF10
7F8000DF3004FC00
2EE100DF300AF600
07FC20DF308FC000
009FFCFFDEFD2000
0005CEFFFD810000
000000DF30000000
000000DF30000000
ENDCHAR
STARTCHAR uni0425
ENCODING 1061
SWIDTH 550 0
DWIDTH 13 0
BBX 13 17 0 0
BITMAP
0DFA000006FF20
05FF20000DF900
00CFA0006FE100
004FF200DF8000
000BFA06FE1000
0003FF2DF70000
0000AFDFE10000
00002FFF600000
00000CFF100000
00003FFF700000
0000BFCFE10000
0004FF2CF80000
000CF905FE2000
005FF200CF9000
00DF90005FF200
06FF20000CFA00
1DF9000005FF30
ENDCHAR
STARTCHAR uni0426
ENCODING 1062
SWIDTH 639 0
DWIDTH 15 0
BBX 14 21 1 -4
BITMAP
1FF2000004FE00
1FF2000004FE00
1FF2000004FE00
1FF2000004FE00
1FF2000004FE00
1FF2000004FE00
1FF2000004FE00
1FF2000004FE00
1FF2000004FE00
1FF2000004FE00
1FF2000004FE00
1FF2000004FE00
1FF2000004FE00
1FF2000004FE00
1FF2000004FE00
1FFDDDDDDDFFD6
1FFFFFFFFFFFF6
00000000000AF6
00000000000AF5
00000000000AF5
00000000000AF4
ENDCHAR
STARTCHAR uni0427
ENCODING 1063
SWIDTH 600 0
DWIDTH 14 0
BBX 12 17 1 0
BITMAP
6FC000000BF7
6FC000000BF7
6FC000000BF7
6FC000000BF7
6FC000000BF7
6FC000000BF7
5FD000000BF7
2FF100000BF7
0CFB30137DF7
03EFFFFFFFF7
0028CDCA7CF7
000000000BF7
000000000BF7
000000000BF7
000000000BF7
000000000BF7
000000000BF7
ENDCHAR
STARTCHAR uni0428
ENCODING 1064
SWIDTH 814 0
DWIDTH 20 0
BBX 17 17 1 0
BITMAP
1FF20004FD00008F90
1FF20004FD00008F90
1FF20004FD00008F90
1FF20004FD00008F90
1FF20004FD00008F90
1FF20004FD00008F90
1FF20004FD00008F90
1FF20004FD00008F90
1FF20004FD00008F90
1FF20004FD00008F90
1FF20004FD00008F90
1FF20004FD00008F90
1FF20004FD00008F90
1FF20004FD00008F90
1FF20004FD00008F90
1FFDDDDDFFDDDDEF90
1FFFFFFFFFFFFFFF90
ENDCHAR
STARTCHAR uni0429
ENCODING 1065
SWIDTH 841 0
DWIDTH 20 0
BBX 19 21 1 -4
BITMAP
1FF20004FD00008F9000
1FF20004FD00008F9000
1FF20004FD00008F9000
1FF20004FD00008F9000
1FF20004FD00008F9000
1FF20004FD00008F9000
1FF20004FD00008F9000
1FF20004FD00008F9000
1FF20004FD00008F9000
1FF20004FD00008F9000
1FF20004FD00008F9000
1FF20004FD00008F9000
1FF20004FD00008F9000
1FF20004FD00008F9000
1FF20004FD00008F9000
1FFDDDDDFFDDDDEFEC10
1FFFFFFFFFFFFFFFFF10
0000000000000000EF00
0000000000000000EF00
0000000000000000EE00
0000000000000000ED00
ENDCHAR
STARTCHAR uni042A
ENCODING 1066
SWIDTH 651 0
DWIDTH 16 0
BBX 15 17 0 0
BITMAP
8FFFFF6000000000
6CCCEF6000000000
0000CF6000000000
0000CF6000000000
0000CF6000000000
0000CF6000000000
0000CF6000000000
0000CFFFFFEB5000
0000CFEDDDFFF800
0000CF600007FF30
0000CF600000BF80
0000CF6000008FA0
0000CF6000008FA0
0000CF600000BF80
0000CF600007FF30
0000CFEDDDEFF700
0000CFFFFFEB5000
ENDCHAR
STARTCHAR uni042B
ENCODING 1067
SWIDTH 755 0
DWIDTH 18 0
BBX 16 17 1 0
BITMAP
1FF2000000001FF1
1FF2000000001FF1
1FF2000000001FF1
1FF2000000001FF1
1FF2000000001FF1
1FF2000000001FF1
1FF2000000001FF1
1FFFFFFEA3001FF1
1FFDDDDFFF401FF1
1FF20001AFE01FF1
1FF200001EF41FF1
1FF200000CF61FF1
1FF200000CF61FF1
1FF200001EF41FF1
1FF20001BFD01FF1
1FFDDDDFFE401FF1
1FFFFFFEA3001FF1
ENDCHAR
STARTCHAR uni042C
ENCODING 1068
SWIDTH 551 0
DWIDTH 13 0
BBX 12 17 1 0
BITMAP
3FE000000000
3FE000000000
3FE000000000
3FE000000000
3FE000000000
3FE000000000
3FE000000000
3FFFFFFD9200
3FFDDDDFFE20
3FE00002CFB0
3FE000003FF1
3FE000000EF3
3FE000000FF3
3FE000003FF1
3FE00002CFB0
3FFDDDDFFE20
3FFFFFFD9200
ENDCHAR
STARTCHAR uni042D
ENCODING 1069
SWIDTH 589 0
DWIDTH 14 0
BBX 12 17 1 0
BITMAP
0006CEEC6000
00AFFEEFFA00
06FE4003DF80
0DF600002FF1
2FF100000AF7
2880000006FA
0000000005FC
0000CFFFFFFD
0000ADDDDEFD
0000000005FD
0000000006FC
2770000008FA
2FF100000CF6
0DF600004FF2
06FE4003DF80
00AFFEDFFB00
0006CEEC6000
ENDCHAR
STARTCHAR uni042E
ENCODING 1070
SWIDTH 765 0
DWIDTH 18 0
BBX 17 17 1 0
BITMAP
1FF100029DFEB50000
1FF1004EFFFFFF9000
1FF101EFB2016EF600
1FF107FD100006FD00
1FF10CF7000000EF30
1FF10EF4000000CF60
1FF10FF2000000AF70
1FFFFFF2000000AF70
1FFCCFF2000000AF70
1FF10FF2000000AF70
1FF10EF2000000AF70
1FF10CF4000000BF60
1FF109F7000000EF30
1FF104FD000005FD00
1FF100BFB2005EF600
1FF1002DFFEFFFA000
1FF100018DFEB50000
ENDCHAR
STARTCHAR uni042F
ENCODING 1071
SWIDTH 562 0
DWIDTH 14 0
BBX 11 17 1 0
BITMAP
0018DFFFFF70
02DFFEDDEF70
0BFC2000BF70
1FF30000BF70
4FE00000BF70
5FD00000BF70
3FE00000BF70
0EF50000BF70
07FE5100BF70
008FFFFFFF70
000BFDDDEF70
003FE100BF70
00BF8000BF70
03FF1000BF70
0AF90000BF70
3FF20000BF70
AF900000BF70
ENDCHAR
STARTCHAR uni0430
ENCODING 1072
SWIDTH 479 0
DWIDTH 12 0
BBX 10 13 1 0
BITMAP
006CEEB300
09FFCDFF20
3FE2009F90
4960004FC0
0000004FC0
005BEFFFC0
09FFB8AFC0
4FE2004FC0
9F80004FC0
9F70004FC0
7FC103DFD0
1EFFEFCFE0
03BEE91FF2
ENDCHAR
STARTCHAR uni0431
ENCODING 1073
SWIDTH 484 0
DWIDTH 12 0
BBX 10 18 1 0
BITMAP
0000000BF0
000015AFC0
0018EFFE30
00BFE95100
07FA100000
0EB0000000
4F58DFC600
8FCFDDFF70
AFF5006FF2
BFA0000BF7
CF600007FA
CF400005FB
CF500005FB
AF600007F9
6FB0000CF6
1EF5006FE1
05FFDDFF40
004BEEB300
ENDCHAR
STARTCHAR uni0432
ENCODING 1074
SWIDTH 503 0
DWIDTH 12 0
BBX 10 13 1 0
BITMAP
4FFFFFD910
4FECCCFFD1
4FC0001DF5
4FC0000AF6
4FC0015EF2
4FFFFFFE40
4FEBBBDFB1
4FC0000AF8
4FC00005FB
4FC00005FC
4FC0000BF9
4FEBBBEFE2
4FFFFFEA30
ENDCHAR
STARTCHAR uni0433
ENCODING 1075
SWIDTH 371 0
DWIDTH 9 0
BBX 8 13 1 0
BITMAP
4FFFFFF8
4FECCCC6
4FC00000
4FC00000
4FC00000
4FC00000
4FC00000
4FC00000
4FC00000
4FC00000
4FC00000
4FC00000
4FC00000
ENDCHAR
STARTCHAR uni0434
ENCODING 1076
SWIDTH 536 0
DWIDTH 13 0
BBX 12 17 0 -4
BITMAP
0008FFFFFF80
0008FFFFFF80
0009F7008F80
0009F7008F80
000AF6008F80
000AF5008F80
000CF4008F80
000EF2008F80
002FE0008F80
007F90008F80
01EF30008F80
4DFFCCCCDFDC
5FFFFFFFFFFF
5FB0000000FF
5FB0000000FF
5FB0000000FF
5FB0000000FF
ENDCHAR
STARTCHAR uni0435
ENCODING 1077
SWIDTH 468 0
DWIDTH 11 0
BBX 10 13 1 0
BITMAP
005CEEB400
07FFDDFF40
2FE3008FC0
8F80000EF1
BF50000CF4
CFFFFFFFF4
DFCCCCCCC3
DF40000000
CF50000000
9F90000000
4FF50019A0
09FFECEFC1
006CEEC710
ENDCHAR
STARTCHAR uni0436
ENCODING 1078
SWIDTH 662 0
DWIDTH 16 0
BBX 16 13 0 0
BITMAP
1EF7002FE000AFC0
06FE102FE002FF40
00CF702FE00AFA00
004FE12FE02FF200
000AF72FE0AF8000
0002FFFFFFFE1000
0004FFEFFEFF2000
000CF72FE09F9000
004FE12FE02FF200
00CF802FE00BF900
04FF202FE004FF20
0CFA002FE000DFA0
5FF4002FE0006FF2
ENDCHAR
STARTCHAR uni0437
ENCODING 1079
SWIDTH 446 0
DWIDTH 11 0
BBX 9 13 1 0
BITMAP
029EFD8100
1DFECFFC00
8FB102EF30
8B4000CF40
000004EE10
006FFFE400
005CDFF800
000002EF40
0000009F70
DE30009F70
AFA002EF40
3EFDCEFB00
02AEFD8000
ENDCHAR
STARTCHAR uni0438
ENCODING 1080
SWIDTH 509 0
DWIDTH 12 0
BBX 10 13 1 0
BITMAP
4FC0000CF7
4FC0005FF7
4FC000CFF7
4FC004FEF7
4FC00CD9F7
4FC04F79F7
4FC0BE19F7
4FC3F709F7
4FCBE109F7
4FEF8009F7
4FFE1009F7
4FF80009F7
4FE10009F7
ENDCHAR
STARTCHAR uni0439
ENCODING 1081
SWIDTH 509 0
DWIDTH 12 0
BBX 10 19 1 0
BITMAP
0262001630
04F8005F70
00CF87EE20
0019EEB300
0000000000
0000000000
4FC0000CF7
4FC0005FF7
4FC000CFF7
4FC004FEF7
4FC00CD9F7
4FC04F79F7
4FC0BE19F7
4FC3F709F7
4FCBE109F7
4FEF8009F7
4FFE1009F7
4FF80009F7
4FE10009F7
ENDCHAR
STARTCHAR uni043A
ENCODING 1082
SWIDTH 479 0
DWIDTH 12 0
BBX 10 13 1 0
BITMAP
4FC0002EF6
4FC000BFA0
4FC006FD10
4FC02EF300
4FC0CF6000
4FFFFB0000
4FFEFE2000
4FC0AFA000
4FC02FF400
4FC008FD10
4FC001EF80
4FC0006FF3
4FC0000CFC
ENDCHAR
STARTCHAR uni043B
ENCODING 1083
SWIDTH 509 0
DWIDTH 12 0
BBX 11 13 0 0
BITMAP
000EFFFFFF70
000EFCCCEF70
000FF1009F70
001FF0009F70
001FE0009F70
002FE0009F70
002FD0009F70
003FC0009F70
005FA0009F70
007F80009F70
02EF40009F70
5FFD00009F70
5FB200009F70
ENDCHAR
STARTCHAR uni043C
ENCODING 1084
SWIDTH 645 0
DWIDTH 16 0
BBX 13 13 1 0
BITMAP
4FF9000001EFB0
4FFD000005FFB0
4FFF40000AFFB0
4FFF90001EFFB0
4FCED0005FCFB0
4FC9F400AF7FB0
4FC4F901FC5FB0
4FC0DE06F75FB0
4FC08F4BF15FB0
4FC03FAFB05FB0
4FC00CFF605FB0
4FC007FE105FB0
4FC002FA005FB0
ENDCHAR
STARTCHAR uni043D
ENCODING 1085
SWIDTH 508 0
DWIDTH 12 0
BBX 10 13 1 0
BITMAP
4FC00009F7
4FC00009F7
4FC00009F7
4FC00009F7
4FC00009F7
4FFFFFFFF7
4FECCCCEF7
4FC00009F7
4FC00009F7
4FC00009F7
4FC00009F7
4FC00009F7
4FC00009F7
ENDCHAR
STARTCHAR uni043E
ENCODING 1086
SWIDTH 501 0
DWIDTH 12 0
BBX 10 13 1 0
BITMAP
004BEEB500
06FFDDFF70
2FF5005FF3
8FA0000AF9
CF500005FC
DF300003FD
DF300002FE
DF300003FD
CF500004FC
8FA00009F9
2FF5004EF3
07FFDDFF70
005BEEC500
ENDCHAR
STARTCHAR uni043F
ENCODING 1087
SWIDTH 509 0
DWIDTH 12 0
BBX 10 13 1 0
BITMAP
4FFFFFFFF7
4FFCCCCEF7
4FC00009F7
4FC00009F7
4FC00009F7
4FC00009F7
4FC00009F7
4FC00009F7
4FC00009F7
4FC00009F7
4FC00009F7
4FC00009F7
4FC00009F7
ENDCHAR
STARTCHAR uni0440
ENCODING 1088
SWIDTH 493 0
DWIDTH 12 0
BBX 10 18 1 -5
BITMAP
7F75DFD800
7FCFEEFFA0
7FF5006FF3
7FA0000BF7
7F900007F9
7F900005FB
7F900005FB
7F900005FA
7F900007FA
7FA0000AF7
7FE3005FF3
7FEFCDFF90
7F96DFD800
7F90000000
7F90000000
7F90000000
7F90000000
7F90000000
ENDCHAR
STARTCHAR uni0441
ENCODING 1089
SWIDTH 461 0
DWIDTH 11 0
BBX 10 13 1 0
BITMAP
006CEEB300
09FFDDFF40
4FE3007FC0
9F80000EF2
CF40000792
DF30000000
DF30000000
DF30000000
CF40000341
9F70000DF2
4FE3006FC0
09FFDDFE30
006CEEB300
ENDCHAR
STARTCHAR uni0442
ENCODING 1090
SWIDTH 424 0
DWIDTH 10 0
BBX 10 13 0 0
BITMAP
5FFFFFFFF8
4CCCFFCCC6
0000EF2000
0000EF2000
0000EF2000
0000EF2000
0000EF2000
0000EF2000
0000EF2000
0000EF2000
0000EF2000
0000EF2000
0000EF2000
ENDCHAR
STARTCHAR uni0443
ENCODING 1091
SWIDTH 416 0
DWIDTH 10 0
BBX 10 18 0 -5
BITMAP
7FC0000CF6
2FF1001FF2
0DF4004FC0
09F8008F80
04FC00CF40
00EF11FE00
00AF54FA00
006F88F600
002FCCF200
000CFFD000
0008FF8000
0003FF4000
0000EE0000
0001FA0000
0006F60000
002DF10000
0EFF800000
0DE8000000
ENDCHAR
STARTCHAR uni0444
ENCODING 1092
SWIDTH 628 0
DWIDTH 15 0
BBX 13 23 1 -5
BITMAP
000009F7000000
000009F7000000
000009F7000000
000009F7000000
000009F7000000
008EEEFDEE9100
09FFCEFECFFA00
2FF409F704FF30
7FA009F700AF80
AF6009F7005FB0
CF5009F7003FD0
CF4009F7003FD0
CF4009F7003FD0
BF5009F7004FC0
8F9009F7008F90
3FE209F702EF50
0AFFCEFECFFB00
019EEEFDEEA100
000009F7000000
000009F7000000
000009F7000000
000009F7000000
000009F7000000
ENDCHAR
STARTCHAR uni0445
ENCODING 1093
SWIDTH 438 0
DWIDTH 11 0
BBX 10 13 0 0
BITMAP
1EF5000DF8
07FB004FE1
01EF30BF70
006FA3FD00
000DFBF600
0005FFC000
0000EF7000
0007FFD000
001EFAF700
008F92FE10
01EF20AF80
09FA003FE2
2FF3000BF9
ENDCHAR
STARTCHAR uni0446
ENCODING 1094
SWIDTH 524 0
DWIDTH 13 0
BBX 11 17 1 -4
BITMAP
4FC00009F700
4FC00009F700
4FC00009F700
4FC00009F700
4FC00009F700
4FC00009F700
4FC00009F700
4FC00009F700
4FC00009F700
4FC00009F700
4FC00009F700
4FECCCCEFD90
4FFFFFFFFFB0
000000004FB0
000000004FA0
000000004FA0
000000004F90
ENDCHAR
STARTCHAR uni0447
ENCODING 1095
SWIDTH 479 0
DWIDTH 12 0
BBX 9 13 1 0
BITMAP
CF40005FC0
CF40005FC0
CF40005FC0
CF40005FC0
BF50005FC0
9F80005FC0
4FE4028FC0
0AFFFFFFC0
006ABAAFC0
0000005FC0
0000005FC0
0000005FC0
0000005FC0
ENDCHAR
STARTCHAR uni0448
ENCODING 1096
SWIDTH 703 0
DWIDTH 17 0
BBX 15 13 1 0
BITMAP
4FC0009F7000EF20
4FC0009F7000EF20
4FC0009F7000EF20
4FC0009F7000EF20
4FC0009F7000EF20
4FC0009F7000EF20
4FC0009F7000EF20
4FC0009F7000EF20
4FC0009F7000EF20
4FC0009F7000EF20
4FC0009F7000EF20
4FECCCEFDCCCFF20
4FFFFFFFFFFFFF20
ENDCHAR
STARTCHAR uni0449
ENCODING 1097
SWIDTH 722 0
DWIDTH 17 0
BBX 16 17 1 -4
BITMAP
6FA000BF5001FF00
6FA000BF5001FF00
6FA000BF5001FF00
6FA000BF5001FF00
6FA000BF5001FF00
6FA000BF5001FF00
6FA000BF5001FF00
6FA000BF5001FF00
6FA000BF5001FF00
6FA000BF5001FF00
6FA000BF5001FF00
6FECCCEFDCCCFFC6
6FFFFFFFFFFFFFF8
00000000000007F7
00000000000007F7
00000000000007F6
00000000000007F6
ENDCHAR
STARTCHAR uni044A
ENCODING 1098
SWIDTH 538 0
DWIDTH 13 0
BBX 13 13 0 0
BITMAP
7FFFFA00000000
6CCDFA00000000
0006FA00000000
0006FA00000000
0006FFFFFC5000
0006FECCDFF500
0006FA0007FD00
0006FA0000EF20
0006FA0000DF30
0006FA0000EF20
0006FA0006FD00
0006FECCCFF500
0006FFFFFC4000
ENDCHAR
STARTCHAR uni044B
ENCODING 1099
SWIDTH 679 0
DWIDTH 16 0
BBX 14 13 1 0
BITMAP
4FC00000000CF4
4FC00000000CF4
4FC00000000CF4
4FC00000000CF4
4FFFFFD6000CF4
4FECCCFF800CF4
4FC0005FF10CF4
4FC0000DF50CF4
4FC0000BF60CF4
4FC0000CF40CF4
4FC0004FE10CF4
4FECCCFF700CF4
4FFFFFD6000CF4
ENDCHAR
STARTCHAR uni044C
ENCODING 1100
SWIDTH 478 0
DWIDTH 11 0
BBX 10 13 1 0
BITMAP
4FC0000000
4FC0000000
4FC0000000
4FC0000000
4FFFFFD600
4FECCCFF80
4FC0005FF1
4FC0000DF5
4FC0000BF6
4FC0000CF4
4FC0004FE1
4FECCCFF70
4FFFFFD600
ENDCHAR
STARTCHAR uni044D
ENCODING 1101
SWIDTH 472 0
DWIDTH 11 0
BBX 10 13 1 0
BITMAP
018DFC6000
1CFEDFF800
8FB103EF30
AC30006F90
0000002FD0
000BFFFFF0
0008CCCFF1
0000002FF0
6810004FD0
BF50009F90
6FC103FF20
0CFECFF700
018DEC5000
ENDCHAR
STARTCHAR uni044E
ENCODING 1102
SWIDTH 706 0
DWIDTH 17 0
BBX 15 13 1 0
BITMAP
4FC00004BEEB3000
4FC0006FFDDFF400
4FC002FF6006FE10
4FC008FB0000CF70
4FC00BF600006FB0
4FFFFFF400004FD0
4FECCEF300003FE0
4FC00BF400004FD0
4FC009F600006FB0
4FC005FC0000BF70
4FC000DF6006FE10
4FC0003EFDDFF500
4FC00003BEEB4000
ENDCHAR
STARTCHAR uni044F
ENCODING 1103
SWIDTH 482 0
DWIDTH 12 0
BBX 10 13 0 0
BITMAP
002AEFFFFC
02EFECCCFC
09FB1004FC
0CF50004FC
0CF50004FC
08FC2004FC
01DFFFFFFC
001EFDCDFC
004FE104FC
00BF7004FC
04FE1004FC
0BF70004FC
3FE10004FC
ENDCHAR
STARTCHAR uni0450
ENCODING 1104
SWIDTH 468 0
DWIDTH 11 0
BBX 10 18 1 0
BITMAP
05FF400000
005FE30000
0005D80000
0000000000
0000000000
005CEEB400
07FFDDFF40
2FE3008FC0
8F80000EF1
BF50000CF4
CFFFFFFFF4
DFCCCCCCC3
DF40000000
CF50000000
9F90000000
4FF50019A0
09FFECEFC1
006CEEC710
ENDCHAR
STARTCHAR uni0451
ENCODING 1105
SWIDTH 468 0
DWIDTH 11 0
BBX 10 18 1 0
BITMAP
0361003610
0EF800DF80
0AE500AE50
0000000000
0000000000
005CEEB400
07FFDDFF40
2FE3008FC0
8F80000EF1
BF50000CF4
CFFFFFFFF4
DFCCCCCCC3
DF40000000
CF50000000
9F90000000
4FF50019A0
09FFECEFC1
006CEEC710
ENDCHAR
STARTCHAR uni0452
ENCODING 1106
SWIDTH 482 0
DWIDTH 12 0
BBX 11 23 0 -5
BITMAP
07F900000000
07F900000000
FFFFFF500000
CDFECC400000
07F900000000
07F94CFD7000
07FDFEEFF600
07FF8009FC00
07FC0002FF00
07F90000FF10
07F90000FF10
07F90000FF10
07F90000FF10
07F90000FF10
07F90000FF10
07F90000FF10
07F90000FF10
07F90000FF10
00000000FF10
00000001FF00
00000005FD00
000002CEF700
000003EE8000
ENDCHAR
STARTCHAR uni0453
ENCODING 1107
SWIDTH 371 0
DWIDTH 9 0
BBX 8 18 1 0
BITMAP
0001DFA0
001CF900
005D8000
00000000
00000000
4FFFFFF8
4FECCCC6
4FC00000
4FC00000
4FC00000
4FC00000
4FC00000
4FC00000
4FC00000
4FC00000
4FC00000
4FC00000
4FC00000
ENDCHAR
STARTCHAR uni0454
ENCODING 1108
SWIDTH 472 0
DWIDTH 11 0
BBX 10 13 1 0
BITMAP
003BEEB300
04FFDDFF40
1EF5007FD0
5FA0000DF3
9F60000683
BFFFFF0000
BFDCCB0000
BF60000000
9F80000231
5FC0000CF3
1EF7006FD0
05FFDDFE30
004BEEA300
ENDCHAR
STARTCHAR uni0455
ENCODING 1109
SWIDTH 455 0
DWIDTH 11 0
BBX 9 13 1 0
BITMAP
018DFE9100
0BFECEFD10
4FD101DF60
7FA0006C70
5FE3000000
0BFFA30000
007EFFB300
00016DFE20
000001BF90
CF50005FB0
8FC100AF90
1DFECEFE20
019DFD9200
ENDCHAR
STARTCHAR uni0456
ENCODING 1110
SWIDTH 229 0
DWIDTH 6 0
BBX 3 18 1 0
BITMAP
0630
5FD0
3EA0
0000
0000
4FC0
4FC0
4FC0
4FC0
4FC0
4FC0
4FC0
4FC0
4FC0
4FC0
4FC0
4FC0
4FC0
ENDCHAR
STARTCHAR uni0457
ENCODING 1111
SWIDTH 234 0
DWIDTH 6 0
BBX 8 18 -1 0
BITMAP
36100261
DF800DF9
AE5009E6
00000000
00000000
004FC000
004FC000
004FC000
004FC000
004FC000
004FC000
004FC000
004FC000
004FC000
004FC000
004FC000
004FC000
004FC000
ENDCHAR
STARTCHAR uni0458
ENCODING 1112
SWIDTH 223 0
DWIDTH 5 0
BBX 5 23 -1 -5
BITMAP
001720
008FA0
005E70
000000
000000
006FA0
006FA0
006FA0
006FA0
006FA0
006FA0
006FA0
006FA0
006FA0
006FA0
006FA0
006FA0
006FA0
006FA0
006FA0
009F80
4EFF40
3ED700
ENDCHAR
STARTCHAR uni0459
ENCODING 1113
SWIDTH 729 0
DWIDTH 18 0
BBX 17 13 0 0
BITMAP
000EFFFFFF10000000
000FFCCCFF10000000
000FF000FF10000000
001FE000FF10000000
001FE000FF10000000
002FD000FFFFFE9100
003FC000FFCCCEFD00
004FB000FF1001DF60
005FA000FF10007F90
008F7000FF10008F90
02EF3000FF1001DF60
5FFC0000FFCBBEFC00
5FB20000FFFFFE9100
ENDCHAR
STARTCHAR uni045A
ENCODING 1114
SWIDTH 743 0
DWIDTH 18 0
BBX 16 13 1 0
BITMAP
4FC00009F7000000
4FC00009F7000000
4FC00009F7000000
4FC00009F7000000
4FC00009F7000000
4FFFFFFFFFEEEB40
4FECCCCEFDCCDFF4
4FC00009F70008FC
4FC00009F70001FF
4FC00009F70002FF
4FC00009F70008FC
4FC00009FDBBDFF4
4FC00009FFFFEB40
ENDCHAR
STARTCHAR uni045B
ENCODING 1115
SWIDTH 499 0
DWIDTH 12 0
BBX 11 18 0 0
BITMAP
07F900000000
07F900000000
BFFFFF900000
8DFECC700000
07F900000000
07F94CFD7000
07FDFEEFF600
07FF8009FC00
07FC0002FF00
07F90000FF10
07F90000FF10
07F90000FF10
07F90000FF10
07F90000FF10
07F90000FF10
07F90000FF10
07F90000FF10
07F90000FF10
ENDCHAR
STARTCHAR uni045C
ENCODING 1116
SWIDTH 479 0
DWIDTH 12 0
BBX 10 18 1 0
BITMAP
00001CFA00
0000BFA000
0004C90000
0000000000
0000000000
4FC0002EF6
4FC000BFA0
4FC006FD10
4FC02EF300
4FC0CF6000
4FFFFB0000
4FFEFE2000
4FC0AFA000
4FC02FF400
4FC008FD10
4FC001EF80
4FC0006FF3
4FC0000CFC
ENDCHAR
STARTCHAR uni045D
ENCODING 1117
SWIDTH 509 0
DWIDTH 12 0
BBX 10 18 1 0
BITMAP
02DF800000
002DF70000
0002DB1000
0000000000
0000000000
4FC0000CF7
4FC0005FF7
4FC000CFF7
4FC004FEF7
4FC00CD9F7
4FC04F79F7
4FC0BE19F7
4FC3F709F7
4FCBE109F7
4FEF8009F7
4FFE1009F7
4FF80009F7
4FE10009F7
ENDCHAR
STARTCHAR uni045E
ENCODING 1118
SWIDTH 416 0
DWIDTH 10 0
BBX 10 24 0 -5
BITMAP
0163000640
02FA003F90
00AF97DF30
0018DEB400
0000000000
0000000000
7FC0000CF6
2FF1001FF2
0DF4004FC0
09F8008F80
04FC00CF40
00EF11FE00
00AF54FA00
006F88F600
002FCCF200
000CFFD000
0008FF8000
0003FF4000
0000EE0000
0001FA0000
0006F60000
002DF10000
0EFF800000
0DE8000000
ENDCHAR
STARTCHAR uni045F
ENCODING 1119
SWIDTH 509 0
DWIDTH 12 0
BBX 10 17 1 -4
BITMAP
4FC00009F7
4FC00009F7
4FC00009F7
4FC00009F7
4FC00009F7
4FC00009F7
4FC00009F7
4FC00009F7
4FC00009F7
4FC00009F7
4FC00009F7
4FECCCCEF7
4FFFFFFFF7
0000EF2000
0000EF2000
0000EF2000
0000EF2000
ENDCHAR
STARTCHAR uni0460
ENCODING 1120
SWIDTH 754 0
DWIDTH 18 0
BBX 16 17 1 0
BITMAP
4FD0000FF40009F8
4FD0000FF40009F8
4FD0000FF40009F8
4FD0000FF40009F8
4FD0000FF40009F8
4FD0000FF40009F8
4FD0000FF40009F8
4FD0000FF40009F8
4FD0000FF40009F8
4FD0000FF40009F8
4FD0000FF40009F8
4FD0000FF40009F8
4FE0001FF4000AF8
2FF1003FF7000CF6
0DF801BFFD205FF2
05FFEFFC9FFDFF80
005CFE9108DFD700
ENDCHAR
STARTCHAR uni0461
ENCODING 1121
SWIDTH 650 0
DWIDTH 16 0
BBX 14 13 1 0
BITMAP
9F7003FE000BF5
9F7003FE000BF5
9F7003FE000BF5
9F7003FE000BF5
9F7003FE000BF5
9F7003FE000BF5
9F7003FE000BF5
9F7003FE000BF5
9F7003FE000BF5
7F8004FF000DF3
5FD10BFF603FE1
0CFDDFCEFCFF80
02AEEA13CFD700
ENDCHAR
STARTCHAR uni0462
ENCODING 1122
SWIDTH 551 0
DWIDTH 13 0
BBX 14 17 -1 0
BITMAP
003FE000000000
003FE000000000
5FFFFFF0000000
4CCFFCC0000000
003FE000000000
003FE000000000
003FE000000000
003FFFFFFD9200
003FFDDDDFFE20
003FE00002CFB0
003FE000003FF1
003FE000000EF3
003FE000000FF3
003FE000003FF1
003FE00002CFB0
003FFDDDDFFE20
003FFFFFFD9200
ENDCHAR
STARTCHAR uni0463
ENCODING 1123
SWIDTH 477 0
DWIDTH 11 0
BBX 12 18 -1 0
BITMAP
004FC0000000
004FC0000000
004FC0000000
004FC0000000
2FFFFFFE0000
2CCFECCB0000
004FC0000000
004FC0000000
004FC0000000
004FC0000000
004FFFFFD700
004FECCCFF90
004FC0004FF2
004FC0000CF5
004FC0000CF5
004FC0003FF2
004FECCCFF90
004FFFFFD700
ENDCHAR
STARTCHAR uni0464
ENCODING 1124
SWIDTH 772 0
DWIDTH 19 0
BBX 16 17 1 0
BITMAP
1FF100018DEEB400
1FF1002DFFDFFF60
1FF100DFA1007FF2
1FF106FD00000AF9
1FF10CF6000005FD
1FF10FF200000288
1FF12FF100000000
1FFFFFFFFFFF5000
1FFCCFFCCCCC4000
1FF12FF000000000
1FF11FF100000000
1FF10EF300000177
1FF10BF7000005FD
1FF105FD10000AF8
1FF100CFA1006FF2
1FF1002DFFDEFF60
1FF100018DFEA300
ENDCHAR
STARTCHAR uni0465
ENCODING 1125
SWIDTH 646 0
DWIDTH 16 0
BBX 14 13 1 0
BITMAP
5FC0003AEFC500
5FC004FFEDFF60
5FC00DF7004FF1
5FC04FC0000AF6
5FC07F90000484
5FFFFFFFFFA000
5FECDFDCCC8000
5FC07F80000000
5FC05FB0000131
5FC01FE10009F6
5FC009F9004FE1
5FC001DFECFF60
5FC00019DEB400
ENDCHAR
STARTCHAR uni0466
ENCODING 1126
SWIDTH 526 0
DWIDTH 13 0
BBX 13 17 0 0
BITMAP
000006FC000000
00000AFF200000
00000EFF600000
00004FEFA00000
00009F8FE00000
0000DF2CF40000
0003FD08F90000
0007F903FD0000
000CF400EF3000
001FF100AF7000
006FFFFFFFB000
00AFEEFFEFF100
01EF27FA0CF500
05FD07FA08FA00
09F907FA03FE00
0EF407FA00EF40
3FE007FA00AF80
ENDCHAR
STARTCHAR uni0467
ENCODING 1127
SWIDTH 470 0
DWIDTH 11 0
BBX 11 13 0 0
BITMAP
00008F900000
0000DFE00000
0003FFF40000
0008FCF90000
000DF4FE0000
003FD0CF4000
008F908F9000
00DF403FE000
02FFFFFFF400
07FEDFEDF900
0CF57F93FE00
2FE07F90DF40
7F907F908F90
ENDCHAR
STARTCHAR uni0468
ENCODING 1128
SWIDTH 759 0
DWIDTH 18 0
BBX 16 17 2 0
BITMAP
DF4000003FF10000
DF4000007FF50000
DF400000CFF90000
DF400001FEFD0000
DF400006FADF3000
DF40000AF58F7000
DF40000EF14FC000
DF40004FC01FF100
DF40009F700BF600
DF4000DF3007FA00
DFFFFFFFFFFFFE00
DFEDDEFEEFFEFF40
DF400CF54FD09F80
DF402FF14FD05FD0
DF406FC04FD01FF2
DF40BF704FD00BF7
DF41FF304FD007FB
ENDCHAR
STARTCHAR uni0469
ENCODING 1129
SWIDTH 654 0
DWIDTH 16 0
BBX 14 13 2 0
BITMAP
EF20002FE10000
EF20006FF50000
EF2000BFFA0000
EF2001FDEE1000
EF2005F9BF5000
EF200AF46FA000
EF201EE02FE100
EF205FB00CF500
EFFFFFFFFFFA00
EFCCFFCFFCFE10
EF25FB1FF0DF50
EF2BF51FF07FA0
EF3FF11FF02FE1
ENDCHAR
STARTCHAR uni046A
ENCODING 1130
SWIDTH 747 0
DWIDTH 18 0
BBX 16 17 1 0
BITMAP
00BFFFFFFFFFFD00
004FFEDDDDEFF600
000CFA00008FD000
0004FF2001EF6000
0000CF8007FE0000
00005FE10DF70000
00000DF75FE10000
000006FDCF700000
004BEFFFFFFDA300
06FFFDDFFDDFFF50
0EF9101FF201AFD0
3FE1001FF1001FF2
5FC0001FF1000EF4
5FC0001FF1000DF4
5FC0001FF1000DF4
5FC0001FF1000DF4
5FC0001FF1000DF4
ENDCHAR
STARTCHAR uni046B
ENCODING 1131
SWIDTH 645 0
DWIDTH 16 0
BBX 13 13 1 0
BITMAP
00BFFFFFFFF500
004FFCCCEFD000
000CF700CF6000
0005FD04FE1000
0000DF4AF70000
00006FCFE10000
005CEFFFFD9100
06FFDCFFCEFD10
0EF604FC01DF60
3FE004FC007FA0
4FC004FC004FC0
5FB004FC004FC0
5FB004FC004FC0
ENDCHAR
STARTCHAR uni046C
ENCODING 1132
SWIDTH 980 0
DWIDTH 24 0
BBX 21 17 1 0
BITMAP
1FF10002FFFFFFFFFFF700
1FF10000AFFDDDDDEFE100
1FF100003FF40000DF8000
1FF100000BFB0006FE1000
1FF1000003FF300CF80000
1FF1000000BF904FF10000
1FF10000004FF1BF900000
1FF10000000CFAFF200000
1FFFFFFFFFFFFFFFED8100
1FFCCCCFFFEDEFFDEFFD10
1FF1004FF4007FB003DF70
1FF1009F90007FA0007FC0
1FF100BF70007FA0004FD0
1FF100BF60007FA0004FE0
1FF100BF60007FA0004FE0
1FF100BF60007FA0004FE0
1FF100BF60007FA0004FE0
ENDCHAR
STARTCHAR uni046D
ENCODING 1133
SWIDTH 856 0
DWIDTH 21 0
BBX 18 13 1 0
BITMAP
4FC0000AFFFFFFFF60
4FC00003FFDCCDFE10
4FC00000BF800CF700
4FC000004FE03FE100
4FC000000CF59F8000
4FC0000005FCEF2000
4FFFFFFFFFFFFFD910
4FECCCEFFDCFFCEFD1
4FC000CF703FD01CF7
4FC002FE003FD006FB
4FC003FD003FD004FD
4FC004FC003FD003FD
4FC004FC003FD003FD
ENDCHAR
STARTCHAR uni046E
ENCODING 1134
SWIDTH 454 0
DWIDTH 11 0
BBX 10 27 0 -5
BITMAP
005F708F50
0007F8F600
00009F8000
0000000000
0000000000
08FFFD9200
06CCCEFE20
000001BFB0
0000002FF0
0000000FF1
0000003FD0
000014CF60
003FFFE500
002CCFFA10
000001AFA0
0000001EF2
0000000CF4
0000000CF4
0000001FF2
0000009FC0
006ACEFE30
09FFFEA200
0FF3000000
1FD0000000
0DF4000000
04FE300000
004B000000
ENDCHAR
STARTCHAR uni046F
ENCODING 1135
SWIDTH 423 0
DWIDTH 10 0
BBX 8 23 1 -5
BITMAP
1DC03FA0
02E9DB00
004FC100
00000000
00000000
8FFFD920
6CCCEFE3
00001AFA
000005FB
00003CF6
02FFFF70
02CCEFC1
00001AFA
000002FE
000002FE
00000AFA
06ABEFE3
8FFFEA30
EF300000
FE000000
CF400000
4FE30000
04B00000
ENDCHAR
STARTCHAR uni0470
ENCODING 1136
SWIDTH 600 0
DWIDTH 14 0
BBX 13 17 1 0
BITMAP
FF201FF100EF40
FF201FF100EF40
FF201FF100EF40
FF201FF100EF40
FF201FF100EF40
FF201FF100EF40
FF301FF100EF30
EF401FF101FF20
BF801FF105FE00
6FE11FF10CF900
0DFC4FF4BFE100
02DFFFFFFE3000
0018CFFC810000
00001FF1000000
00001FF1000000
00001FF1000000
00001FF1000000
ENDCHAR
STARTCHAR uni0471
ENCODING 1137
SWIDTH 612 0
DWIDTH 15 0
BBX 13 19 1 -6
BITMAP
EF200CF406FC00
EF200CF402FF10
EF200CF400DF50
EF200CF400AF80
EF200CF4007FA0
EF200CF4006FA0
EF300CF4006FA0
CF500CF4008F90
AF900CF400CF60
5FE10CF405FF20
0CFC2CF45EF900
02DFFFFEFFB000
0018DFFEB50000
00000CF4000000
00000CF4000000
00000CF4000000
00000CF4000000
00000CF4000000
00000CF4000000
ENDCHAR
STARTCHAR uni0472
ENCODING 1138
SWIDTH 593 0
DWIDTH 14 0
BBX 12 17 1 0
BITMAP
0004BEEB5000
008FFFFFF900
06FE5004DF70
0DF400003FE1
4FC000000AF5
8F80000007F9
AF60000005FB
BFFFFFFFFFFC
CFDCCCCCCDFD
CF60000005FC
AF70000006FB
8FA0000009F9
4FE100000DF5
0DF700005FE1
06FF6005EF70
008FFFEFFA00
0004BEEC5000
ENDCHAR
STARTCHAR uni0473
ENCODING 1139
SWIDTH 497 0
DWIDTH 12 0
BBX 10 13 1 0
BITMAP
003BEEB300
04FFDDFF40
1EF6005FE1
6FA00009F7
AF500005FB
CFFFFFFFFD
DFDCCCCCFE
CF500005FD
AF800007FB
6FD0000DF7
1EF7007FE1
04FFDDFF50
003BEEB400
ENDCHAR
STARTCHAR uni0474
ENCODING 1140
SWIDTH 553 0
DWIDTH 13 0
BBX 13 17 0 0
BITMAP
6FD00000006D80
2FF2000003FF80
0DF6000009F900
08FA00000EF300
04FE00003FD000
00EF30007F9000
00AF7000AF5000
005FB000EF1000
001FE003FB0000
000BF407F70000
0007F80AF30000
0002FC0ED00000
0000DF4F900000
00009FBF500000
00004FFF100000
00000EFB000000
00000AF7000000
ENDCHAR
STARTCHAR uni0475
ENCODING 1141
SWIDTH 443 0
DWIDTH 11 0
BBX 11 13 0 0
BITMAP
3FE00001BE50
0DF20009FF50
09F6001FF300
05FA005FB000
01FD008F7000
00BF20BF3000
007F60ED0000
002F93F90000
000DD6F50000
0009FBF10000
0004FFB00000
0000EF700000
0000BF200000
ENDCHAR
STARTCHAR uni0476
ENCODING 1142
SWIDTH 553 0
DWIDTH 13 0
BBX 13 21 0 0
BITMAP
06FE4EF4000000
006FE5FD100000
0005D86D400000
00000000000000
6FD00000006D80
2FF2000003FF80
0DF6000009F900
08FA00000EF300
04FE00003FD000
00EF30007F9000
00AF7000AF5000
005FB000EF1000
001FE003FB0000
000BF407F70000
0007F80AF30000
0002FC0ED00000
0000DF4F900000
00009FBF500000
00004FFF100000
00000EFB000000
00000AF7000000
ENDCHAR
STARTCHAR uni0477
ENCODING 1143
SWIDTH 443 0
DWIDTH 11 0
BBX 11 18 0 0
BITMAP
6FE4EF400000
06FE5FD10000
005D86D40000
000000000000
000000000000
3FE00001BE50
0DF20009FF50
09F6001FF300
05FA005FB000
01FD008F7000
00BF20BF3000
007F60ED0000
002F93F90000
000DD6F50000
0009FBF10000
0004FFB00000
0000EF700000
0000BF200000
ENDCHAR
STARTCHAR uni0478
ENCODING 1144
SWIDTH 1017 0
DWIDTH 24 0
BBX 23 22 1 -5
BITMAP
0005BEFD8100000000000000
009FFFFFFE20000000000000
06FE6003BFC0000000000000
0EF600001DF5000000000000
3FE0000008FA01FF30006FC0
6FB0000005FC00BF70009F80
7F90000003FE007FB000DF40
8F90000003FE002FE002FE00
8F90000003FE000DF305FA00
8F90000003FE0008F709F600
8F90000003FE0004FB0DF200
6FB0000005FD0000EE2FC000
4FE0000008FA0000AF9F8000
0EF500000DF500006FFF4000
07FE5002BFD000001FFE0000
00AFFFEFFE3000000CFA0000
0005BEFD9100000008F60000
00000000000000000AF20000
00000000000000001EC00000
00000000000000009F700000
000000000000008FFD100000
000000000000007EB2000000
ENDCHAR
STARTCHAR uni0479
ENCODING 1145
SWIDTH 918 0
DWIDTH 22 0
BBX 21 18 1 -5
BITMAP
004BEEB50006FD0000BF70
06FFDDFF7002FF1000FF20
2FF5005FF300CF5004FD00
8FA0000AF9008F9007F900
CF500005FC003FD00BF400
DF300003FD000EF10EF100
DF300002FE000AF54FB000
DF300003FD0005F97F7000
CF500004FC0001FDBF2000
8FA00009F90000BFFD0000
2FF5004EF300007FF90000
07FFDDFF7000003FF50000
005BEEC50000000EF10000
000000000000001FB00000
000000000000005F700000
00000000000002DF100000
000000000000DFF8000000
000000000000CE80000000
ENDCHAR
STARTCHAR uni047A
ENCODING 1146
SWIDTH 593 0
DWIDTH 14 0
BBX 12 21 1 -2
BITMAP
000005610000
00000EF20000
0006CFFD7000
00AFFFFFFB00
06FE4EF6EF80
1EF502204FE1
5FD000000CF6
8F90000008F9
BF70000006FC
CF50000005FD
CF50000004FD
CF50000005FD
BF70000006FC
9F90000008FA
5FD000000CF6
1EF501203FF1
07FE4EF5DF80
00AFFFFFFB00
0007DFFD7000
00000EF20000
000008810000
ENDCHAR
STARTCHAR uni047B
ENCODING 1147
SWIDTH 498 0
DWIDTH 12 0
BBX 10 17 1 -2
BITMAP
0000550000
0001FF0000
005DFFD500
05FFFFFF60
1EF6EE5FE1
6FB0000BF7
AF600006FB
CF400004FD
DF300003FD
CF400004FD
AF600006FB
6FB0000AF7
1EF6FF5FE1
05FFFFFF60
005DFFD500
0001FF0000
0000440000
ENDCHAR
STARTCHAR uni047C
ENCODING 1148
SWIDTH 752 0
DWIDTH 18 0
BBX 16 23 1 0
BITMAP
0000005610000000
000009FFE6000000
00000F918FD93000
00001F5013AE6000
00000007F4000000
00000009F2000000
004CB00C6008D600
04FFB0000008FF60
0CF9000000007FE1
2FF2000000000EF4
4FE0000000000CF6
4FD0000000000BF7
4FD0000000000BF7
4FD0000BB2000BF7
4FD0000FF3000BF7
4FD0000FF3000BF7
4FD0000FF3000BF7
4FD0000FF3000BF7
4FE0001FF3000CF6
2FF2003FF6000EF4
0CF901BFFD206FE1
04FFEFFCAFFEFF60
004CFE9108DFD600
ENDCHAR
STARTCHAR uni047D
ENCODING 1149
SWIDTH 654 0
DWIDTH 16 0
BBX 14 18 1 0
BITMAP
00000575100000
0000AFFFEA8400
0000E9148CE800
0000004F700000
0000005F600000
01AE009F23E800
0BFD009602EF70
4FE10000003FE1
7F900000000DF3
8F800000000BF5
9F700021000BF5
9F7002FE000BF5
9F7002FE000BF5
8F8002FE000BF5
6F9004FF100DF4
3FE10AFF703FF1
0BFEDFCEFDEF80
01AEEA13BEE800
ENDCHAR
STARTCHAR uni047E
ENCODING 1150
SWIDTH 754 0
DWIDTH 18 0
BBX 16 21 1 0
BITMAP
0000344444441000
0000EFFFFFFF4000
0000000DF0000000
0000000000000000
4FD0000FF40009F8
4FD0000FF40009F8
4FD0000FF40009F8
4FD0000FF40009F8
4FD0000FF40009F8
4FD0000FF40009F8
4FD0000FF40009F8
4FD0000FF40009F8
4FD0000FF40009F8
4FD0000FF40009F8
4FD0000FF40009F8
4FD0000FF40009F8
4FE0001FF4000AF8
2FF1003FF7000CF6
0DF801BFFD205FF2
05FFEFFC9FFDFF80
005CFE9108DFD700
ENDCHAR
STARTCHAR uni047F
ENCODING 1151
SWIDTH 650 0
DWIDTH 16 0
BBX 14 19 1 0
BITMAP
00144444444000
003FFFFFFFF100
000001FC000000
000001FC000000
00000000000000
00000000000000
9F7003FE000BF5
9F7003FE000BF5
9F7003FE000BF5
9F7003FE000BF5
9F7003FE000BF5
9F7003FE000BF5
9F7003FE000BF5
9F7003FE000BF5
9F7003FE000BF5
7F8004FF000DF3
5FD10BFF603FE1
0CFDDFCEFCFF80
02AEEA13CFD700
ENDCHAR
STARTCHAR uni0480
ENCODING 1152
SWIDTH 570 0
DWIDTH 14 0
BBX 12 21 1 -4
BITMAP
0005CEEC6000
009FFEEFFA00
06FE4004EF60
0EF600007FD0
4FE000001FF2
8FA000000BB2
9F9000000000
AF8000000000
AF8000000000
AF8000000000
9F8000000000
8FA000000000
5FD000000000
1EF500000000
07FE30000000
00BFFCC10000
0007DFF20000
00000FF20000
00000FF20000
00000FF20000
00000FF20000
ENDCHAR
STARTCHAR uni0481
ENCODING 1153
SWIDTH 472 0
DWIDTH 11 0
BBX 9 17 1 -4
BITMAP
003BEEA200
04FFDEFD10
1DF600AF90
5FC0002FE0
AF70000990
BF50000000
CF40000000
BF50000000
AF60000000
6FB0000000
1EF4000000
06FFBA0000
005DFF0000
0001FF0000
0001FF0000
0001FF0000
0001FF0000
ENDCHAR
STARTCHAR uni0482
ENCODING 1154
SWIDTH 547 0
DWIDTH 13 0
BBX 11 16 1 0
BITMAP
00000000CE00
00000004F700
0008800BE100
000AFC5F8000
00007FFF2000
000005FFB200
000009F9FE50
01001FA04D70
5D308F300110
5EF8EB000000
02CFF6000000
001FFE600000
006F8DFA0000
00DD019A0000
05F600010000
0CE000000000
ENDCHAR
STARTCHAR uni0483
ENCODING 1155
SWIDTH 0 0
DWIDTH 0 0
BBX 9 5 -10 13
BITMAP
0000005810
044444BF30
1FFFFFFF30
1FC0000000
0750000000
ENDCHAR
STARTCHAR uni0484
ENCODING 1156
SWIDTH 0 0
DWIDTH 0 0
BBX 8 3 -9 15
BITMAP
00015740
68BFFFF6
CEC731CB
ENDCHAR
STARTCHAR uni0485
ENCODING 1157
SWIDTH 0 0
DWIDTH 0 0
BBX 3 4 -7 15
BITMAP
6F80
5F80
0BD0
02A0
ENDCHAR
STARTCHAR uni0486
ENCODING 1158
SWIDTH 0 0
DWIDTH 0 0
BBX 3 4 -6 15
BITMAP
3FC0
3FB0
7F20
6700
ENDCHAR
STARTCHAR uni0488
ENCODING 1160
SWIDTH 0 0
DWIDTH 0 0
BBX 23 22 -18 -5
BITMAP
0000000002CEC30000000000
000000000BA18D0000000000
000000000310130000000000
001AED60000000003CEC3000
007D24F300000000C91AC000
002200310000000031013000
000000000000000000000000
000000000000000000000000
000000000000000000000000
1AED600000000000002BED40
8D15F2000000000000AC17E0
220031000000000000220130
000000000000000000000000
000000000000000000000000
000000000000000000000000
001BED50000000004DEB2000
009C16F100000000E71BA000
002200310000000031022000
000000000000000000000000
0000000002BEC40000000000
000000000AB18E0000000000
000000000210130000000000
ENDCHAR
STARTCHAR uni0489
ENCODING 1161
SWIDTH 0 0
DWIDTH 0 0
BBX 23 22 -18 -5
BITMAP
00000000000A900000000000
00000000001E600000000000
0001A100005F300000000000
0000D80000BF000003A90000
00006F3000120003BFC20000
00001EA000000003D7000000
000005100000000000000000
000000000000000000000000
000000000000000000000000
7C9620000000000000B93000
28DF80000000000000AFFC20
000440000000000000014720
000000000000000000000000
000000000000000000000000
000000000000000000000000
000000000000000034000000
00001AC100000000EB000000
0004EF92000210007F300000
000C9200003F80000CA00000
00000000006F200003900000
00000000009C000000000000
0000000000C6000000000000
ENDCHAR
STARTCHAR uni048A
ENCODING 1162
SWIDTH 666 0
DWIDTH 16 0
BBX 15 27 1 -4
BITMAP
0003620016300000
0005F7006F600000
0001DE87ED100000
00002AEEA2000000
0000000000000000
0000000000000000
1FF1000008FD0000
1FF100001EFD0000
1FF100008FFD0000
1FF10001EFFD0000
1FF10008FAFD0000
1FF1001ED4FD0000
1FF1008F64FD0000
1FF102FD04FD0000
1FF109F604FD0000
1FF12FD004FD0000
1FF19F6004FD0000
1FF3FD0004FD0000
1FFBF60004FD0000
1FFFD00004FD0000
1FFF500004FD0000
1FFD000004FD8810
1FF5000004FEFF10
000000000001FF10
000000000004FC00
00000000000BF500
00000000000A9000
ENDCHAR
STARTCHAR uni048B
ENCODING 1163
SWIDTH 550 0
DWIDTH 13 0
BBX 12 23 1 -4
BITMAP
005600036100
00AF200BF100
004FC79F9000
0004CED80000
000000000000
000000000000
4FC0000CF700
4FC0005FF700
4FC000CFF700
4FC004FEF700
4FC00CD9F700
4FC04F79F700
4FC0BE19F700
4FC3F709F700
4FCBE109F700
4FEF8009F700
4FFE1009F700
4FF80009FB86
4FE10009FEFA
0000000007F9
000000000AF6
000000002FD1
000000003C30
ENDCHAR
STARTCHAR uni048C
ENCODING 1164
SWIDTH 551 0
DWIDTH 13 0
BBX 14 17 -1 0
BITMAP
003FE000000000
003FE000000000
5FFFFFF0000000
4CCFFCC0000000
003FE000000000
003FE000000000
003FE000000000
003FFFFFFD9200
003FFDDDDFFE20
003FE00002CFB0
003FE000003FF1
003FE000000EF3
003FE000000FF3
003FE000003FF1
003FE00002CFB0
003FFDDDDFFE20
003FFFFFFD9200
ENDCHAR
STARTCHAR uni048D
ENCODING 1165
SWIDTH 477 0
DWIDTH 11 0
BBX 12 20 -1 0
BITMAP
001430000000
004FC0000000
004FC0000000
2FFFFFFE0000
2CDFECCB0000
004FC0000000
004FC0000000
004FC0000000
004FC0000000
004FC0000000
004FC0000000
004FFFFFD600
004FECCCFF70
004FC0005FF1
004FC0000DF4
004FC0000BF5
004FC0000DF4
004FC0004FE1
004FECCCFF70
004FFFFFD600
ENDCHAR
STARTCHAR uni048E
ENCODING 1166
SWIDTH 557 0
DWIDTH 13 0
BBX 12 17 1 0
BITMAP
2FFFFFFD8100
2FFDDDEFFD20
2FF00003DFB0
2FF000003FF2
2FF000000DF5
2FF000000CF5
2FF0000A7DF4
2FF0001DFFF1
2FF00007FFA0
2FFFFFFFFFB0
2FFDDDCB6AF7
2FF0000001B2
2FF000000000
2FF000000000
2FF000000000
2FF000000000
2FF000000000
ENDCHAR
STARTCHAR uni048F
ENCODING 1167
SWIDTH 496 0
DWIDTH 12 0
BBX 10 18 1 -5
BITMAP
7F76DFD600
7FEFEEFF60
7FF5009FE1
7FA0000EF5
7F900009F8
7F900007FA
7F900005FB
7F900006FA
7F900179F8
7FA008FEF5
7FF401EFE1
7FFFCDFFE1
7F97DFD9F9
7F90000071
7F90000000
7F90000000
7F90000000
7F90000000
ENDCHAR
STARTCHAR uni0490
ENCODING 1168
SWIDTH 479 0
DWIDTH 12 0
BBX 10 21 1 0
BITMAP
00000005E9
00000006FA
00000006FA
00000006FA
4FFFFFFFFA
4FFDDDDDD9
4FE0000000
4FE0000000
4FE0000000
4FE0000000
4FE0000000
4FE0000000
4FE0000000
4FE0000000
4FE0000000
4FE0000000
4FE0000000
4FE0000000
4FE0000000
4FE0000000
4FE0000000
ENDCHAR
STARTCHAR uni0491
ENCODING 1169
SWIDTH 395 0
DWIDTH 10 0
BBX 8 17 1 0
BITMAP
000006B5
000009F7
000009F7
000009F7
6FFFFFF7
6FECCCC6
6FA00000
6FA00000
6FA00000
6FA00000
6FA00000
6FA00000
6FA00000
6FA00000
6FA00000
6FA00000
6FA00000
ENDCHAR
STARTCHAR uni0492
ENCODING 1170
SWIDTH 487 0
DWIDTH 12 0
BBX 11 17 0 0
BITMAP
01FFFFFFFFC0
01FFDDDDDDA0
01FF20000000
01FF20000000
01FF20000000
01FF20000000
01FF20000000
DFFFFF700000
ACFFCC500000
01FF20000000
01FF20000000
01FF20000000
01FF20000000
01FF20000000
01FF20000000
01FF20000000
01FF20000000
ENDCHAR
STARTCHAR uni0493
ENCODING 1171
SWIDTH 371 0
DWIDTH 9 0
BBX 9 13 0 0
BITMAP
04FFFFFF80
04FECCCC60
04FC000000
04FC000000
04FC000000
CFFFFF8000
9CFECC6000
04FC000000
04FC000000
04FC000000
04FC000000
04FC000000
04FC000000
ENDCHAR
STARTCHAR uni0494
ENCODING 1172
SWIDTH 539 0
DWIDTH 13 0
BBX 11 20 1 -3
BITMAP
1FFFFFFFFC00
1FFDDDDDDA00
1FF200000000
1FF200000000
1FF200000000
1FF200000000
1FF200000000
1FFFFEC60000
1FFEEFFFC100
1FF2004DFA00
1FF20002EF30
1FF20000AF70
1FF200007FA0
1FF200006FB0
1FF200006FA0
1FF200007F90
1FF20000BF50
00000004FE10
000000CFF500
000000EB4000
ENDCHAR
STARTCHAR uni0495
ENCODING 1173
SWIDTH 443 0
DWIDTH 11 0
BBX 9 16 1 -3
BITMAP
6FFFFFF600
6FECCCC500
6FA0000000
6FA0000000
6FA0000000
6FFFEA3000
6FFEFFF500
6FA019FE10
6FA000CF60
6FA0007FA0
6FA0005FB0
6FA0006FA0
6FA000BF60
000006FE10
00007FF400
00004C4000
ENDCHAR
STARTCHAR uni0496
ENCODING 1174
SWIDTH 833 0
DWIDTH 20 0
BBX 20 21 0 -4
BITMAP
0CFA00007FB00008FE10
04FF30007FB0001EF600
00AFA0007FB0008FC000
002FF3007FB001EF4000
0008FB007FB008FA0000
0001EF307FB01EF20000
00006FB07FB08F800000
00000EFFFFFFFF100000
00003FFDEFEDFF600000
0000BFA07FB08FD00000
0003FF307FB01FF60000
000BFB007FB009FD0000
003FF4007FB002FF6000
00BFC0007FB000AFD000
03FF50007FB0003FF600
0BFD00007FB0000BFFF8
4FF600007FB00004FFF8
000000000000000008F8
000000000000000008F8
000000000000000008F8
000000000000000008F8
ENDCHAR
STARTCHAR uni0497
ENCODING 1175
SWIDTH 696 0
DWIDTH 17 0
BBX 17 17 0 -4
BITMAP
1EF7002FE000AFC000
06FE102FE002FF4000
00CF702FE00AFA0000
004FE12FE02FF20000
000AF72FE0AF800000
0002FFFFFFFE100000
0004FFEFFEFF200000
000CF72FE09F900000
004FE12FE02FF20000
00CF802FE00BF90000
04FF202FE004FF2000
0CFA002FE000DFFF10
5FF4002FE0006FFF10
00000000000000FF10
00000000000000FF10
00000000000000FF10
00000000000000FF10
ENDCHAR
STARTCHAR uni0498
ENCODING 1176
SWIDTH 517 0
DWIDTH 12 0
BBX 11 22 1 -5
BITMAP
005BEFD92000
09FFEEFFE300
5FF6002CFB00
AF900003FF10
79300000FF20
00000003FE00
0000014CF700
0006FFFF7000
0005DDFFB100
0000001BFB00
00000001FF20
00000000CF50
CC200000DF50
DF700002FF20
7FE5002CFB00
0BFFEEFFD200
006CFFF81000
0000DF300000
0000DF300000
0000DF300000
0000DF300000
0000DF300000
ENDCHAR
STARTCHAR uni0499
ENCODING 1177
SWIDTH 446 0
DWIDTH 11 0
BBX 9 18 1 -5
BITMAP
029EFD8100
1DFECFFC00
8FB102EF30
8B4000CF40
000004EE10
006FFFE400
005CDFF800
000002EF40
0000009F70
DE30009F70
AFA002EF40
3EFDCEFB00
02AFFF8000
000AF60000
000AF60000
000AF60000
000AF60000
000AF60000
ENDCHAR
STARTCHAR uni049A
ENCODING 1178
SWIDTH 617 0
DWIDTH 15 0
BBX 13 21 1 -4
BITMAP
1FF100003FF800
1FF10000CFC000
1FF10008FE2000
1FF1003FF60000
1FF101DFB00000
1FF109FE200000
1FF14FF5000000
1FFFFFA0000000
1FFDEFD1000000
1FF11DF9000000
1FF105FF300000
1FF100BFC00000
1FF1002EF70000
1FF10007FE2000
1FF10000DFB000
1FF100004FFFB0
1FF100000AFFC0
00000000005FB0
00000000005FB0
00000000005FB0
00000000005FB0
ENDCHAR
STARTCHAR uni049B
ENCODING 1179
SWIDTH 524 0
DWIDTH 13 0
BBX 11 17 1 -4
BITMAP
4FC0002EF600
4FC000BFA000
4FC006FD1000
4FC02EF30000
4FC0CF600000
4FFFFB000000
4FFEFE200000
4FC0AFA00000
4FC02FF40000
4FC008FD1000
4FC001EF8000
4FC0006FFFD0
4FC0000CFFD0
000000003FD0
000000003FD0
000000003FD0
000000003FD0
ENDCHAR
STARTCHAR uni049C
ENCODING 1180
SWIDTH 553 0
DWIDTH 13 0
BBX 12 17 1 0
BITMAP
3FE000002FF5
3FE000008FC0
3FE00001EF40
3FE00006FC00
3FE3F70CF400
3FE3F74FB000
3FE3F7AF3000
3FFFFFFC0000
3FFEFEFF2000
3FE3F79F9000
3FE3F73FF100
3FE2B50DF800
3FE00007FE00
3FE00001FF60
3FE00000AFD0
3FE000004FF5
3FE000000DFB
ENDCHAR
STARTCHAR uni049D
ENCODING 1181
SWIDTH 498 0
DWIDTH 12 0
BBX 11 13 1 0
BITMAP
4FC00003FF30
4FC0000BF900
4FC3823FE100
4FC5F4AF6000
4FC5F7FC0000
4FFFFFF40000
4FFEFFF90000
4FC5F6FF2000
4FC5F4AF9000
4FC1314FF100
4FC0000DF800
4FC00006FE10
4FC00001EF80
ENDCHAR
STARTCHAR uni049E
ENCODING 1182
SWIDTH 570 0
DWIDTH 14 0
BBX 14 17 0 0
BITMAP
00CF500001DFB0
00CF500009FE20
00CF50004FF500
CFFFFF81DFA000
ACEFDC6AFD1000
00CF505FF40000
00CF51EF800000
00CFFFFD000000
00CFEDFF300000
00CF50AFC00000
00CF502EF70000
00CF5007FE2000
00CF5000DFA000
00CF50004FF500
00CF50000AFD10
00CF500001EF90
00CF5000006FF3
ENDCHAR
STARTCHAR uni049F
ENCODING 1183
SWIDTH 462 0
DWIDTH 11 0
BBX 12 18 -1 0
BITMAP
002FE0000000
002FE0000000
9FFFFFB00000
7CCFFC900000
002FE0000000
002FE0005FE2
002FE000DF70
002FE006FC00
002FE01EF300
002FE08F9000
002FFFFE1000
002FFCEF3000
002FE07FC000
002FE00DF500
002FE006FD10
002FE000DF80
002FE0005FE2
002FE0000CFA
ENDCHAR
STARTCHAR uni04A0
ENCODING 1184
SWIDTH 710 0
DWIDTH 17 0
BBX 17 17 0 0
BITMAP
2FFFFFFA000009FE20
2CCCCDFA00004FF600
000008FA0001DFA000
000008FA000AFD1000
000008FA005FF40000
000008FA01EF800000
000008FA0BFC000000
000008FFFFF3000000
000008FEDEF7000000
000008FA06FF200000
000008FA00BFB00000
000008FA003FF50000
000008FA0008FE1000
000008FA0001DF9000
000008FA00005FF400
000008FA00000BFD00
000008FA000002FF70
ENDCHAR
STARTCHAR uni04A1
ENCODING 1185
SWIDTH 607 0
DWIDTH 15 0
BBX 15 13 0 0
BITMAP
2FFFFFF1000CFA00
1CCCCFF1007FD100
00000FF103FF3000
00000FF10DF60000
00000FF18FA00000
00000FFFFE100000
00000FFEFF400000
00000FF16FD10000
00000FF10DF80000
00000FF104FF3000
00000FF100BFC000
00000FF1002FF600
00000FF10008FE10
ENDCHAR
STARTCHAR uni04A2
ENCODING 1186
SWIDTH 662 0
DWIDTH 16 0
BBX 14 21 1 -4
BITMAP
2FF0000002FF00
2FF0000002FF00
2FF0000002FF00
2FF0000002FF00
2FF0000002FF00
2FF0000002FF00
2FF0000002FF00
2FFFFFFFFFFF00
2FFDDDDDDDFF00
2FF0000002FF00
2FF0000002FF00
2FF0000002FF00
2FF0000002FF00
2FF0000002FF00
2FF0000002FF00
2FF0000002FFFC
2FF0000002FFFC
000000000004FC
000000000004FC
000000000004FC
000000000004FC
ENDCHAR
STARTCHAR uni04A3
ENCODING 1187
SWIDTH 541 0
DWIDTH 13 0
BBX 12 17 1 -4
BITMAP
4FC00009F700
4FC00009F700
4FC00009F700
4FC00009F700
4FC00009F700
4FFFFFFFF700
4FECCCCEF700
4FC00009F700
4FC00009F700
4FC00009F700
4FC00009F700
4FC00009FFF4
4FC00009FFF4
000000000CF4
000000000CF4
000000000CF4
000000000CF4
ENDCHAR
STARTCHAR uni04A4
ENCODING 1188
SWIDTH 829 0
DWIDTH 20 0
BBX 18 17 1 0
BITMAP
2FF0000002FFFFFFFE
2FF0000002FFCCCCCB
2FF0000002FF000000
2FF0000002FF000000
2FF0000002FF000000
2FF0000002FF000000
2FF0000002FF000000
2FFFFFFFFFFF000000
2FFDDDDDDDFF000000
2FF0000002FF000000
2FF0000002FF000000
2FF0000002FF000000
2FF0000002FF000000
2FF0000002FF000000
2FF0000002FF000000
2FF0000002FF000000
2FF0000002FF000000
ENDCHAR
STARTCHAR uni04A5
ENCODING 1189
SWIDTH 614 0
DWIDTH 15 0
BBX 13 13 1 0
BITMAP
6FA0000BFFFFC0
6FA0000BFDCC90
6FA0000BF50000
6FA0000BF50000
6FA0000BF50000
6FFFFFFFF50000
6FECCCCEF50000
6FA0000BF50000
6FA0000BF50000
6FA0000BF50000
6FA0000BF50000
6FA0000BF50000
6FA0000BF50000
ENDCHAR
STARTCHAR uni04A6
ENCODING 1190
SWIDTH 880 0
DWIDTH 21 0
BBX 19 20 1 -3
BITMAP
1FFFFFFFFFFE00000000
1FFDDDDDDDFE00000000
1FF2000003FE00000000
1FF2000003FE00000000
1FF2000003FE00000000
1FF2000003FE00000000
1FF2000003FE00000000
1FF2000003FFFEC81000
1FF2000003FFEEFFD200
1FF2000003FE003BFC00
1FF2000003FE0000DF50
1FF2000003FE00007FA0
1FF2000003FE00004FC0
1FF2000003FE00003FD0
1FF2000003FE00003FD0
1FF2000003FE00005FB0
1FF2000003FE00008F80
0000000000000003EF20
00000000000000AFF800
00000000000000CC6000
ENDCHAR
STARTCHAR uni04A7
ENCODING 1191
SWIDTH 755 0
DWIDTH 18 0
BBX 17 16 1 -3
BITMAP
6FFFFFFFF500000000
6FECCCCEF500000000
6FA0000BF500000000
6FA0000BF500000000
6FA0000BF500000000
6FA0000BFFFEC60000
6FA0000BFEEFFFA000
6FA0000BF5005EF700
6FA0000BF50006FE00
6FA0000BF50000FF20
6FA0000BF50000DF30
6FA0000BF50000EF20
6FA0000BF50003FD00
0000000000001CF700
000000000000EFB000
000000000000A81000
ENDCHAR
STARTCHAR uni04A8
ENCODING 1192
SWIDTH 641 0
DWIDTH 15 0
BBX 14 17 1 0
BITMAP
002AC006DEB200
01DFD07FFFFD10
0AFB12FF40BF90
1FF207FB003FE0
5FC00BF6000EF3
8F900CF5000DF4
AF800DF4000CF5
AF700DF4000CF5
AF700DF4000CF5
AF800CF5000DF4
8F900AF8000EF3
6FC007FC003FE0
2FF202FF60AFA0
0BFA008FF9FF30
02EF910BFFF900
004EFFEFFFFFE6
00029DED826BD7
ENDCHAR
STARTCHAR uni04A9
ENCODING 1193
SWIDTH 528 0
DWIDTH 13 0
BBX 11 13 1 0
BITMAP
019B04DE9000
0AFB2FFEF800
2FE18F91EE10
7F90BF40BF40
9F60DF30AF60
BF60EF309F70
AF60DF30AF70
9F70CF50BF60
6FA08FB1EF30
2FE12FFCFD00
0AFA16FFF700
01DFEEFFFFD0
0019DEB36CD0
ENDCHAR
STARTCHAR uni04AA
ENCODING 1194
SWIDTH 566 0
DWIDTH 14 0
BBX 12 22 1 -5
BITMAP
0005BEFD8100
009FFEEFFD20
06FE5002CFB0
0EF600002FF2
4FE000000CF6
7FB0000007B6
8FA000000000
8F9000000000
8F9000000000
8F9000000000
8FA000000000
7FB0000007A5
4FE000000CF6
0EF500001FF2
06FE4002BFB0
00AFFDDFFD20
0006DFFD8100
00001FF00000
00001FF00000
00001FF00000
00001FF00000
00001FF00000
ENDCHAR
STARTCHAR uni04AB
ENCODING 1195
SWIDTH 461 0
DWIDTH 11 0
BBX 10 18 1 -5
BITMAP
006CEEB300
09FFDDFF40
4FE3007FC0
9F80000EF2
CF40000682
DF30000000
DF30000000
DF30000000
CF40000231
9F70000DF2
4FE3006FD0
09FFDDFE30
006FFFB300
0009F70000
0009F70000
0009F70000
0009F70000
0009F70000
ENDCHAR
STARTCHAR uni04AC
ENCODING 1196
SWIDTH 520 0
DWIDTH 13 0
BBX 12 21 0 -4
BITMAP
4FFFFFFFFFFC
4DDDDFFEDDDA
00000CF50000
00000CF50000
00000CF50000
00000CF50000
00000CF50000
00000CF50000
00000CF50000
00000CF50000
00000CF50000
00000CF50000
00000CF50000
00000CF50000
00000CF50000
00000CFFF100
00000CFFF100
0000000FF100
0000000FF100
0000000FF100
0000000FF100
ENDCHAR
STARTCHAR uni04AD
ENCODING 1197
SWIDTH 424 0
DWIDTH 10 0
BBX 10 17 0 -4
BITMAP
5FFFFFFFF8
4CCCFFCCC6
0000EF2000
0000EF2000
0000EF2000
0000EF2000
0000EF2000
0000EF2000
0000EF2000
0000EF2000
0000EF2000
0000EFFD00
0000EFFD00
000003FD00
000003FD00
000003FD00
000003FD00
ENDCHAR
STARTCHAR uni04AE
ENCODING 1198
SWIDTH 524 0
DWIDTH 13 0
BBX 13 17 0 0
BITMAP
6FE1000006FE10
1EF600000DF800
08FC00004FF100
01FF3000AF9000
009FA001FF2000
002FF107FA0000
000AF70DF40000
0004FD5FC00000
0000CFDF500000
00005FFD000000
00000DF7000000
00000CF5000000
00000CF5000000
00000CF5000000
00000CF5000000
00000CF5000000
00000CF5000000
ENDCHAR
STARTCHAR uni04AF
ENCODING 1199
SWIDTH 444 0
DWIDTH 11 0
BBX 10 18 0 -5
BITMAP
2FE00002FE
0DF30006FA
08F8000AF5
04FC000EF1
00EF104FB0
00AF508F70
005FA0CF20
001FE1FD00
000BF9F800
0006FFF400
0002FFE000
0000CFA000
0000AF7000
0000AF7000
0000AF7000
0000AF7000
0000AF7000
0000AF7000
ENDCHAR
STARTCHAR uni04B0
ENCODING 1200
SWIDTH 524 0
DWIDTH 13 0
BBX 13 17 0 0
BITMAP
6FE1000006FE10
0EF600000DF800
07FC00004FE100
01EF3000AF9000
008FA001FF2000
002FF107FA0000
000AF70DF30000
0003FD5FB00000
0000BFDF400000
000DFFFFF80000
000ACEFDC60000
00000CF5000000
00000CF5000000
00000CF5000000
00000CF5000000
00000CF5000000
00000CF5000000
ENDCHAR
STARTCHAR uni04B1
ENCODING 1201
SWIDTH 444 0
DWIDTH 11 0
BBX 10 18 0 -5
BITMAP
2FE00002FE
0DF30006FA
08F8000BF5
04FC000EF1
00EF104FB0
00AF608F60
005FA0CF20
001FE2FC00
000BF9F800
0006FFF300
0002FFE000
008CFFEC80
00BFFFFFA0
0000AF7000
0000AF7000
0000AF7000
0000AF7000
0000AF7000
ENDCHAR
STARTCHAR uni04B2
ENCODING 1202
SWIDTH 559 0
DWIDTH 13 0
BBX 13 21 0 -4
BITMAP
0DFA000006FF20
05FF20000DF900
00CFA0006FE100
004FF200DF8000
000BFA06FE1000
0003FF2DF70000
0000AFDFE10000
00002FFF600000
00000CFF100000
00003FFF700000
0000BFCFE10000
0004FF2CF80000
000CF905FE2000
005FF200CF9000
00DF90005FF200
06FF20000CFFE0
1DF9000005FFF0
00000000002FE0
00000000002FE0
00000000002FE0
00000000002FE0
ENDCHAR
STARTCHAR uni04B3
ENCODING 1203
SWIDTH 465 0
DWIDTH 11 0
BBX 11 17 0 -4
BITMAP
1EF5000DF800
07FB004FE100
01EF30BF7000
006FA3FD0000
000DFBF60000
0005FFC00000
0000EF700000
0007FFD00000
001EFAF70000
008F92FE1000
01EF20AF8000
09FA003FFF80
2FF3000BFF80
000000008F80
000000008F80
000000008F80
000000008F80
ENDCHAR
STARTCHAR uni04B4
ENCODING 1204
SWIDTH 781 0
DWIDTH 19 0
BBX 17 21 0 -4
BITMAP
3FFFFFFFFF300BF600
2CCCEFECCC200BF600
00009F9000000BF600
00009F9000000BF600
00009F9000000BF600
00009F9000000BF600
00009F9000000BF600
00009F9000000BF600
00009F9000000BF600
00009F9000000BF600
00009F9000000BF600
00009F9000000BF600
00009F9000000BF600
00009F9000000BF600
00009F9000000BF600
00009FEDDDDDDEFEC0
00009FFFFFFFFFFFD0
000000000000003FD0
000000000000003FC0
000000000000003FC0
000000000000003FB0
ENDCHAR
STARTCHAR uni04B5
ENCODING 1205
SWIDTH 587 0
DWIDTH 14 0
BBX 14 17 0 -4
BITMAP
7FFFFFF803FD00
5CCEFCC603FD00
000DF30003FD00
000DF30003FD00
000DF30003FD00
000DF30003FD00
000DF30003FD00
000DF30003FD00
000DF30003FD00
000DF30003FD00
000DF30003FD00
000DFCCCCCFFC2
000DFFFFFFFFF2
00000000000DF2
00000000000DF1
00000000000DF1
00000000000DF0
ENDCHAR
STARTCHAR uni04B6
ENCODING 1206
SWIDTH 638 0
DWIDTH 15 0
BBX 14 21 1 -4
BITMAP
6FC000000BF700
6FC000000BF700
6FC000000BF700
6FC000000BF700
6FC000000BF700
6FC000000BF700
5FD000000BF700
2FF100000BF700
0CFB30137DF700
03EFFFFFFFF700
0028CDCA7CF700
000000000BF700
000000000BF700
000000000BF700
000000000BF700
000000000BFFF3
000000000BFFF3
00000000000DF3
00000000000DF3
00000000000DF3
00000000000DF3
ENDCHAR
STARTCHAR uni04B7
ENCODING 1207
SWIDTH 512 0
DWIDTH 12 0
BBX 11 17 1 -4
BITMAP
CF40005FC000
CF40005FC000
CF40005FC000
CF40005FC000
BF50005FC000
9F80005FC000
4FE4028FC000
0AFFFFFFC000
006ABAAFC000
0000005FC000
0000005FC000
0000005FFF80
0000005FFF80
000000008F80
000000008F80
000000008F80
000000008F80
ENDCHAR
STARTCHAR uni04B8
ENCODING 1208
SWIDTH 595 0
DWIDTH 14 0
BBX 12 17 1 0
BITMAP
6FC000000BF7
6FC000000BF7
6FC000000BF7
6FC000000BF7
6FC000000BF7
6FC004810BF7
5FD007F20BF7
2FF107F20BF7
0DFA17F45DF7
04FFFEFFFFF7
003ADFFC9CF7
000007F20BF7
000007F20BF7
000005A20BF7
000000000BF7
000000000BF7
000000000BF7
ENDCHAR
STARTCHAR uni04B9
ENCODING 1209
SWIDTH 483 0
DWIDTH 12 0
BBX 9 13 1 0
BITMAP
8F80001FF0
8F80001FF0
8F80001FF0
8F80421FF0
7F81F91FF0
5FB1F91FF0
1EF5F94FF0
07FFFFFFF0
005BFEAFF0
0001F91FF0
0000631FF0
0000001FF0
0000001FF0
ENDCHAR
STARTCHAR uni04BA
ENCODING 1210
SWIDTH 595 0
DWIDTH 14 0
BBX 12 17 1 0
BITMAP
8F9000000000
8F9000000000
8F9000000000
8F9000000000
8F9000000000
8F9000000000
8FC9DEFEA300
8FFFFEDFFE30
8FC41001BFC0
8F9000002FF1
8F9000000EF4
8F9000000DF4
8F9000000DF4
8F9000000DF4
8F9000000DF4
8F9000000DF4
8F9000000DF4
ENDCHAR
STARTCHAR uni04BB
ENCODING 1211
SWIDTH 482 0
DWIDTH 12 0
BBX 10 18 1 0
BITMAP
7F90000000
7F90000000
7F90000000
7F90000000
7F90000000
7F94CFD700
7FDFEEFF60
7FF8009FC0
7FC0002FF0
7F90000FF1
7F90000FF1
7F90000FF1
7F90000FF1
7F90000FF1
7F90000FF1
7F90000FF1
7F90000FF1
7F90000FF1
ENDCHAR
STARTCHAR uni04BC
ENCODING 1212
SWIDTH 674 0
DWIDTH 16 0
BBX 14 17 1 0
BITMAP
0000017DFD9200
00001CFFEFFE20
0000AFC2019FC0
0003FF20000DF4
D908FA000008F8
DD0BF7000005FB
8F8DF5000004FC
1CFFFFFFFFFFFD
005EFBAAAAAAA8
000DF400000000
000CF500000000
000BF700000000
0007FB00000000
0002FF30000000
00009FE5001570
00000AFFEDFFE0
0000005BEFDA30
ENDCHAR
STARTCHAR uni04BD
ENCODING 1213
SWIDTH 518 0
DWIDTH 12 0
BBX 13 13 -1 0
BITMAP
000003BEEB3000
00003FFDEFE300
1841DF6008FB00
1F95FB0001EF10
0CEBF70000CF40
03EFFFFFFFFF50
001DFDCCCCCC40
000BF500000000
0009F800000000
0005FD00001200
0000DF8001BE10
00003EFECFF800
000003AEEC6000
ENDCHAR
STARTCHAR uni04BE
ENCODING 1214
SWIDTH 674 0
DWIDTH 16 0
BBX 14 22 1 -5
BITMAP
0000017DFD9200
00001CFFEFFE20
0000AFC2019FC0
0003FF20000DF4
D908FA000008F8
DD0BF7000005FB
8F8DF5000004FC
1CFFFFFFFFFFFD
005EFBAAAAAAA8
000DF400000000
000CF500000000
000BF700000000
0007FB00000000
0002FF30000000
00009FE5001570
00000AFFEDFFE0
0000005DFFDA30
00000001FF0000
00000001FF0000
00000001FF0000
00000001FF0000
00000001FF0000
ENDCHAR
STARTCHAR uni04BF
ENCODING 1215
SWIDTH 518 0
DWIDTH 12 0
BBX 13 18 -1 -5
BITMAP
000003BEEB3000
00003FFDEFE300
1841DF6008FB00
1F95FB0001EF10
0CEBF70000CF40
03EFFFFFFFFF50
001DFDCCCCCC40
000BF500000000
0009F800000000
0005FD00001200
0000DF8001BE10
00003EFECFF800
000003AFFF6000
0000000CF40000
0000000CF40000
0000000CF40000
0000000CF40000
0000000CF40000
ENDCHAR
STARTCHAR uni04C0
ENCODING 1216
SWIDTH 250 0
DWIDTH 6 0
BBX 4 17 1 0
BITMAP
1FF1
1FF1
1FF1
1FF1
1FF1
1FF1
1FF1
1FF1
1FF1
1FF1
1FF1
1FF1
1FF1
1FF1
1FF1
1FF1
1FF1
ENDCHAR
STARTCHAR uni04C1
ENCODING 1217
SWIDTH 791 0
DWIDTH 19 0
BBX 19 23 0 0
BITMAP
00000055000460000000
000000CE100DD0000000
0000006FB7BF70000000
00000006CED700000000
00000000000000000000
00000000000000000000
0CFA00007FB00008FE10
04FF30007FB0001EF600
00AFA0007FB0008FC000
002FF3007FB001EF4000
0008FB007FB008FA0000
0001EF307FB01EF20000
00006FB07FB08F800000
00000EFFFFFFFF100000
00003FFDEFEDFF600000
0000BFA07FB08FD00000
0003FF307FB01FF60000
000BFB007FB009FD0000
003FF4007FB002FF6000
00BFC0007FB000AFD000
03FF50007FB0003FF600
0BFD00007FB0000BFD00
4FF600007FB00004FF60
ENDCHAR
STARTCHAR uni04C2
ENCODING 1218
SWIDTH 662 0
DWIDTH 16 0
BBX 16 19 0 0
BITMAP
0000361002620000
00007F5008F40000
00001EE78EC00000
000002BEEA100000
0000000000000000
0000000000000000
1EF7002FE000AFC0
06FE102FE002FF40
00CF702FE00AFA00
004FE12FE02FF200
000AF72FE0AF8000
0002FFFFFFFE1000
0004FFEFFEFF2000
000CF72FE09F9000
004FE12FE02FF200
00CF802FE00BF900
04FF202FE004FF20
0CFA002FE000DFA0
5FF4002FE0006FF2
ENDCHAR
STARTCHAR uni04C3
ENCODING 1219
SWIDTH 553 0
DWIDTH 13 0
BBX 12 21 1 -4
BITMAP
3FE000005FF3
3FE00002EF60
3FE0000BFA00
3FE0007FD100
3FE003FF4000
3FE00CF80000
3FE08FB00000
3FFFFFD93000
3FFFFFFFF600
3FE00029FF40
3FE000009FB0
3FE000002FF1
3FE000000EF4
3FE000000CF5
3FE000000BF6
3FE000000CF5
3FE000000EF3
000000003FE0
00000001BF80
0000005EFD10
0000006E9100
ENDCHAR
STARTCHAR uni04C4
ENCODING 1220
SWIDTH 481 0
DWIDTH 12 0
BBX 10 16 1 -3
BITMAP
4FC0002EF6
4FC000CF90
4FC009FB00
4FC05FD100
4FC2EF3000
4FFFFE9200
4FFEEFFE40
4FC002AFD0
4FC0000DF5
4FC00009F7
4FC00007F9
4FC00008F8
4FC0000CF4
0000007FD0
000008FF30
000005B300
ENDCHAR
STARTCHAR uni04C5
ENCODING 1221
SWIDTH 662 0
DWIDTH 16 0
BBX 15 21 0 -4
BITMAP
0003FFFFFFFFC000
0003FFDDDDEFC000
0004FD00005FC000
0004FC00005FC000
0005FC00005FC000
0005FB00005FC000
0006FB00005FC000
0006FA00005FC000
0007FA00005FC000
0007F900005FC000
0008F800005FC000
000AF600005FC000
000CF400005FC000
001FF100005FC000
00AFB000005FC000
3EFF4000005FD880
4FC40000005FEFF0
0000000000002FE0
0000000000005FB0
000000000000CF40
000000000001B700
ENDCHAR
STARTCHAR uni04C6
ENCODING 1222
SWIDTH 551 0
DWIDTH 13 0
BBX 13 17 0 -4
BITMAP
000EFFFFFF7000
000EFCCCEF7000
000FF1009F7000
001FF0009F7000
001FE0009F7000
002FE0009F7000
002FD0009F7000
003FC0009F7000
005FA0009F7000
007F80009F7000
02EF40009F7000
5FFD00009FB860
5FB200009FEFB0
00000000007FA0
0000000000AF60
0000000002FD10
0000000003C300
ENDCHAR
STARTCHAR uni04C7
ENCODING 1223
SWIDTH 620 0
DWIDTH 15 0
BBX 12 22 1 -5
BITMAP
1FF2000004FE
1FF2000004FE
1FF2000004FE
1FF2000004FE
1FF2000004FE
1FF2000004FE
1FF2000004FE
1FFFFFFFFFFE
1FFDDDDDDDFE
1FF2000004FE
1FF2000004FE
1FF2000004FE
1FF2000004FE
1FF2000004FE
1FF2000004FE
1FF2000004FE
1FF2000004FE
0000000004FE
0000000005FC
0000000009FA
00000006EFF4
00000006ED60
ENDCHAR
STARTCHAR uni04C8
ENCODING 1224
SWIDTH 498 0
DWIDTH 12 0
BBX 10 18 1 -5
BITMAP
6FA0000BF5
6FA0000BF5
6FA0000BF5
6FA0000BF5
6FA0000BF5
6FFFFFFFF5
6FECCCCEF5
6FA0000BF5
6FA0000BF5
6FA0000BF5
6FA0000BF5
6FA0000BF5
6FA0000BF5
0000000BF5
0000000CF4
0000001FF2
00000CEFA0
00000DEA10
ENDCHAR
STARTCHAR uni04C9
ENCODING 1225
SWIDTH 671 0
DWIDTH 16 0
BBX 15 21 1 -4
BITMAP
2FF0000002FF0000
2FF0000002FF0000
2FF0000002FF0000
2FF0000002FF0000
2FF0000002FF0000
2FF0000002FF0000
2FF0000002FF0000
2FFFFFFFFFFF0000
2FFDDDDDDDFF0000
2FF0000002FF0000
2FF0000002FF0000
2FF0000002FF0000
2FF0000002FF0000
2FF0000002FF0000
2FF0000002FF0000
2FF0000002FF8820
2FF0000002FFEF30
000000000000EF20
000000000002FE00
000000000009F700
000000000008A000
ENDCHAR
STARTCHAR uni04CA
ENCODING 1226
SWIDTH 550 0
DWIDTH 13 0
BBX 12 17 1 -4
BITMAP
4FC00009F700
4FC00009F700
4FC00009F700
4FC00009F700
4FC00009F700
4FFFFFFFF700
4FECCCCEF700
4FC00009F700
4FC00009F700
4FC00009F700
4FC00009F700
4FC00009FB86
4FC00009FEFA
0000000007F9
000000000AF6
000000002FD1
000000003C30
ENDCHAR
STARTCHAR uni04CB
ENCODING 1227
SWIDTH 600 0
DWIDTH 14 0
BBX 12 21 1 -4
BITMAP
6FC000000BF7
6FC000000BF7
6FC000000BF7
6FC000000BF7
6FC000000BF7
6FC000000BF7
5FD000000BF7
2FF100000BF7
0CFB30137DF7
03EFFFFFFFF7
0028CDCA7CF7
000000000BF7
000000000BF7
000000000BF7
000000000BF7
00000007FFF7
00000007FFF7
00000007F900
00000007F900
00000007F900
00000007F900
ENDCHAR
STARTCHAR uni04CC
ENCODING 1228
SWIDTH 479 0
DWIDTH 12 0
BBX 9 17 1 -4
BITMAP
CF40005FC0
CF40005FC0
CF40005FC0
CF40005FC0
BF50005FC0
9F80005FC0
4FE4028FC0
0AFFFFFFC0
006ABAAFC0
0000005FC0
0000005FC0
00002FFFC0
00002FFFC0
00002FE000
00002FE000
00002FE000
00002FE000
ENDCHAR
STARTCHAR uni04CD
ENCODING 1229
SWIDTH 801 0
DWIDTH 19 0
BBX 18 21 1 -4
BITMAP
2FFC00000000AFF400
2FFF10000000EFF400
2FFF60000004FFF400
2FFFB0000009FFF400
2FDEF100000EFCF400
2FDAF600004FBBF400
2FD5FA00009F6BF400
2FD0EF1000DF1CF400
2FE0AF5003FB0CF400
2FE04FA008F60DF400
2FF00EE00DF10DF400
2FF009F43FB00DF400
2FF004F97F600DF400
2FF000EECF100DF400
2FF0009FFB000DF400
2FF0004FF6000DFB83
2FF0000EF1000DFFF5
000000000000000CF4
000000000000001FF1
000000000000007F90
000000000000007B10
ENDCHAR
STARTCHAR uni04CE
ENCODING 1230
SWIDTH 687 0
DWIDTH 17 0
BBX 15 17 1 -4
BITMAP
4FF9000001EFB000
4FFD000005FFB000
4FFF40000AFFB000
4FFF90001EFFB000
4FCED0005FCFB000
4FC9F400AF7FB000
4FC4F901FC5FB000
4FC0DE06F75FB000
4FC08F4BF15FB000
4FC03FAFB05FB000
4FC00CFF605FB000
4FC007FE105FD880
4FC002FA005FEFF0
0000000000003FE0
0000000000006FA0
000000000000CF30
000000000001B700
ENDCHAR
STARTCHAR uni04CF
ENCODING 1231
SWIDTH 250 0
DWIDTH 6 0
BBX 4 17 1 0
BITMAP
1FF1
1FF1
1FF1
1FF1
1FF1
1FF1
1FF1
1FF1
1FF1
1FF1
1FF1
1FF1
1FF1
1FF1
1FF1
1FF1
1FF1
ENDCHAR
STARTCHAR uni04D0
ENCODING 1232
SWIDTH 576 0
DWIDTH 14 0
BBX 14 23 0 0
BITMAP
00036100263000
0006F6007F5000
0001DE78ED1000
00002AEEA20000
00000000000000
00000000000000
000002FE100000
000007FF500000
00000CFFA00000
00002FCEE00000
00007F7AF40000
0000CF35F90000
0002FD01FE0000
0006F900CF4000
000BF5007F9000
001FF1003FE000
006FB0000DF400
00BFFFFFFFF800
01FFDDDDDDFD00
06FC000001EF30
0AF8000000AF80
1FF30000005FD0
5FD00000001FF3
ENDCHAR
STARTCHAR uni04D1
ENCODING 1233
SWIDTH 479 0
DWIDTH 12 0
BBX 10 19 1 0
BITMAP
0361002630
06F6007F50
01DE78ED10
002AEEA200
0000000000
0000000000
006CEEB300
09FFCDFF20
3FE2009F90
4960004FC0
0000004FC0
005BEFFFC0
09FFB8AFC0
4FE2004FC0
9F80004FC0
9F70004FC0
7FC103DFD0
1EFFEFCFE0
03BEE91FF2
ENDCHAR
STARTCHAR uni04D2
ENCODING 1234
SWIDTH 576 0
DWIDTH 14 0
BBX 14 21 0 0
BITMAP
00026200262000
000BFA00BFB000
0008E7007E7000
00000000000000
000002FE100000
000007FF500000
00000CFFA00000
00002FCEE00000
00007F7AF40000
0000CF35F90000
0002FD01FE0000
0006F900CF4000
000BF5007F9000
001FF1003FE000
006FB0000DF400
00BFFFFFFFF800
01FFDDDDDDFD00
06FC000001EF30
0AF8000000AF80
1FF30000005FD0
5FD00000001FF3
ENDCHAR
STARTCHAR uni04D3
ENCODING 1235
SWIDTH 479 0
DWIDTH 12 0
BBX 10 18 1 0
BITMAP
0262002620
0BFA00AFB0
08E7007E80
0000000000
0000000000
006CEEB300
09FFCDFF20
3FE2009F90
4960004FC0
0000004FC0
005BEFFFC0
09FFB8AFC0
4FE2004FC0
9F80004FC0
9F70004FC0
7FC103DFD0
1EFFEFCFE0
03BEE91FF2
ENDCHAR
STARTCHAR uni04D4
ENCODING 1236
SWIDTH 812 0
DWIDTH 19 0
BBX 19 17 0 0
BITMAP
000000009FFFFFFFFF50
00000002FFFDCCCCCC40
0000000AFEF800000000
0000002FE8F900000000
000000AF87FA00000000
000003FE16FA00000000
00000AF806FB00000000
00003FF205FFFFFFF800
0000AF9005FECCCCC600
0003FF2004FC00000000
000BFA0004FD00000000
003FFFFFFFFD00000000
00BFFFFFFFFE00000000
04FF411113FE00000000
0BFB000002FF00000000
4FF4000001FFCCCCCCB0
CFB0000000FFFFFFFFE0
ENDCHAR
STARTCHAR uni04D5
ENCODING 1237
SWIDTH 728 0
DWIDTH 17 0
BBX 16 13 1 0
BITMAP
019DFD8019EFC500
2EFECEFACFEDFF70
9FC102EFF9004FE1
6A40009FE1000AF5
0000008FA00008F8
03ADEEFFFFFFFFF9
3FFDBBDFDAAAAAA6
BFA0008FA0000000
FF20008FC0000000
FF10008FF3000000
CF7005EFFC1003B0
5FFDDFF5CFECDFF4
07DFD92018DFEB40
ENDCHAR
STARTCHAR uni04D6
ENCODING 1238
SWIDTH 496 0
DWIDTH 12 0
BBX 10 23 1 0
BITMAP
0164000550
00FC001FA0
009F97CF40
0008DEC500
0000000000
0000000000
2FFFFFFFFE
2FFDDDDDDC
2FF0000000
2FF0000000
2FF0000000
2FF0000000
2FF0000000
2FFFFFFFF0
2FFDDDDDD0
2FF0000000
2FF0000000
2FF0000000
2FF0000000
2FF0000000
2FF0000000
2FFDDDDDDD
2FFFFFFFFF
ENDCHAR
STARTCHAR uni04D7
ENCODING 1239
SWIDTH 468 0
DWIDTH 11 0
BBX 10 19 1 0
BITMAP
0460003620
08F4009F20
02ED79FB00
003BED9100
0000000000
0000000000
005CEEB400
07FFDDFF40
2FE3008FC0
8F80000EF1
BF50000CF4
CFFFFFFFF4
DFCCCCCCC3
DF40000000
CF50000000
9F90000000
4FF50019A0
09FFECEFC1
006CEEC710
ENDCHAR
STARTCHAR uni04D8
ENCODING 1240
SWIDTH 597 0
DWIDTH 14 0
BBX 12 17 1 0
BITMAP
006BEFDA3000
06FFFEFFF800
02930017FF60
000000006FE1
000000000CF6
0000000007FA
0000000005FD
0000000003FE
FFFFFFFFFFFF
EFCBBBBBBCFE
EF30000005FD
CF40000007FA
9F7000000CF6
4FD100005FE1
0BFB2005EF60
02DFFEEFF700
0017CEEB4000
ENDCHAR
STARTCHAR uni04D9
ENCODING 1241
SWIDTH 465 0
DWIDTH 11 0
BBX 10 13 1 0
BITMAP
04BEFC6000
4FFDCFF900
1B3002EF50
0000007FB0
0000001FF0
0000000EF2
CFFFFFFFF3
CFDCCCCFF2
BF50002FF0
8F80006FA0
3FE202EF40
09FFCFF800
007DFD6000
ENDCHAR
STARTCHAR uni04DA
ENCODING 1242
SWIDTH 597 0
DWIDTH 14 0
BBX 12 21 1 0
BITMAP
006400054000
05FF104FF200
03EC002ED100
000000000000
006BEFDA3000
06FFFEFFF800
02930017FF60
000000006FE1
000000000CF6
0000000007FA
0000000005FD
0000000003FE
FFFFFFFFFFFF
EFCBBBBBBCFE
EF30000005FD
CF40000007FA
9F7000000CF6
4FD100005FE1
0BFB2005EF60
02DFFEEFF700
0017CEEB4000
ENDCHAR
STARTCHAR uni04DB
ENCODING 1243
SWIDTH 465 0
DWIDTH 11 0
BBX 10 18 1 0
BITMAP
0460003610
0FF600EF70
0BE400BE40
0000000000
0000000000
04BEFC6000
4FFDCFF900
1B3002EF50
0000007FB0
0000001FF0
0000000EF2
CFFFFFFFF3
CFDCCCCFF2
BF50002FF0
8F80006FA0
3FE202EF40
09FFCFF800
007DFD6000
ENDCHAR
STARTCHAR uni04DC
ENCODING 1244
SWIDTH 791 0
DWIDTH 19 0
BBX 19 21 0 0
BITMAP
00000055000450000000
000002FF402FF4000000
000001DD201DE2000000
00000000000000000000
0CFA00007FB00008FE10
04FF30007FB0001EF600
00AFA0007FB0008FC000
002FF3007FB001EF4000
0008FB007FB008FA0000
0001EF307FB01EF20000
00006FB07FB08F800000
00000EFFFFFFFF100000
00003FFDEFEDFF600000
0000BFA07FB08FD00000
0003FF307FB01FF60000
000BFB007FB009FD0000
003FF4007FB002FF6000
00BFC0007FB000AFD000
03FF50007FB0003FF600
0BFD00007FB0000BFD00
4FF600007FB00004FF60
ENDCHAR
STARTCHAR uni04DD
ENCODING 1245
SWIDTH 662 0
DWIDTH 16 0
BBX 16 18 0 0
BITMAP
0000261002610000
0000CF900BFA0000
00008E6008E70000
0000000000000000
0000000000000000
1EF7002FE000AFC0
06FE102FE002FF40
00CF702FE00AFA00
004FE12FE02FF200
000AF72FE0AF8000
0002FFFFFFFE1000
0004FFEFFEFF2000
000CF72FE09F9000
004FE12FE02FF200
00CF802FE00BF900
04FF202FE004FF20
0CFA002FE000DFA0
5FF4002FE0006FF2
ENDCHAR
STARTCHAR uni04DE
ENCODING 1246
SWIDTH 517 0
DWIDTH 12 0
BBX 11 21 1 0
BITMAP
016300163000
08FD008FE000
05EA005EA000
000000000000
005BEFD92000
09FFEEFFE300
5FF6002CFB00
AF900003FF10
79300000FF20
00000003FE00
0000014CF700
0006FFFF7000
0005DDFFB100
0000001BFB00
00000001FF20
00000000CF50
CC200000DF50
DF700002FF20
7FE5002CFB00
0BFFEEFFD200
006CEFD81000
ENDCHAR
STARTCHAR uni04DF
ENCODING 1247
SWIDTH 446 0
DWIDTH 11 0
BBX 9 18 1 0
BITMAP
0640005400
5FF105FF20
3EC002EC10
0000000000
0000000000
029EFD8100
1DFECFFC00
8FB102EF30
8B4000CF40
000004EE10
006FFFE400
005CDFF800
000002EF40
0000009F70
DE30009F70
AFA002EF40
3EFDCEFB00
02AEFD8000
ENDCHAR
STARTCHAR uni04E0
ENCODING 1248
SWIDTH 510 0
DWIDTH 12 0
BBX 10 17 1 0
BITMAP
5FFFFFFFF5
4DDDDDDFF3
000000AF90
000006FC00
00002EE200
0000CF6000
0008FA0000
000DFEC600
0009BDFF90
0000004FF4
00000009FA
00000006FC
AD600005FC
9FA00009FA
4FF6006FF5
09FFEEFF90
006CEEC600
ENDCHAR
STARTCHAR uni04E1
ENCODING 1249
SWIDTH 510 0
DWIDTH 12 0
BBX 10 18 1 -5
BITMAP
4FFFFFFFF4
4CCCCCDFF2
000001DF80
000008FC00
00003FF200
0000DF7000
0008FB0000
000DFEA400
000ACEFF60
0000005FF2
00000009F8
00000005FB
23100004FC
BF600005FB
8FA0000AF8
3FF5005FF3
07FFDEFF70
005CEEB500
ENDCHAR
STARTCHAR uni04E2
ENCODING 1250
SWIDTH 619 0
DWIDTH 15 0
BBX 12 21 1 0
BITMAP
0009AAAAA900
000EFFFFFE00
000000000000
000000000000
1FF1000008FD
1FF100001EFD
1FF100008FFD
1FF10001EFFD
1FF10008FAFD
1FF1001ED4FD
1FF1008F64FD
1FF102FD04FD
1FF109F604FD
1FF12FD004FD
1FF19F6004FD
1FF3FD0004FD
1FFBF60004FD
1FFFD00004FD
1FFF500004FD
1FFD000004FD
1FF5000004FD
ENDCHAR
STARTCHAR uni04E3
ENCODING 1251
SWIDTH 509 0
DWIDTH 12 0
BBX 10 17 1 0
BITMAP
02AAAAAA60
04FFFFFF90
0000000000
0000000000
4FC0000CF7
4FC0005FF7
4FC000CFF7
4FC004FEF7
4FC00CD9F7
4FC04F79F7
4FC0BE19F7
4FC3F709F7
4FCBE109F7
4FEF8009F7
4FFE1009F7
4FF80009F7
4FE10009F7
ENDCHAR
STARTCHAR uni04E4
ENCODING 1252
SWIDTH 619 0
DWIDTH 15 0
BBX 12 21 1 0
BITMAP
000550005500
004FF203FF30
002DD101DD10
000000000000
1FF1000008FD
1FF100001EFD
1FF100008FFD
1FF10001EFFD
1FF10008FAFD
1FF1001ED4FD
1FF1008F64FD
1FF102FD04FD
1FF109F604FD
1FF12FD004FD
1FF19F6004FD
1FF3FD0004FD
1FFBF60004FD
1FFFD00004FD
1FFF500004FD
1FFD000004FD
1FF5000004FD
ENDCHAR
STARTCHAR uni04E5
ENCODING 1253
SWIDTH 509 0
DWIDTH 12 0
BBX 10 18 1 0
BITMAP
0163001630
09FC008FD0
06E9005EA0
0000000000
0000000000
4FC0000CF7
4FC0005FF7
4FC000CFF7
4FC004FEF7
4FC00CD9F7
4FC04F79F7
4FC0BE19F7
4FC3F709F7
4FCBE109F7
4FEF8009F7
4FFE1009F7
4FF80009F7
4FE10009F7
ENDCHAR
STARTCHAR uni04E6
ENCODING 1254
SWIDTH 600 0
DWIDTH 14 0
BBX 12 21 1 0
BITMAP
001630006300
007FE006FF00
004EB004EB00
000000000000
0005BEFD8100
009FFFFFFE20
06FE6003BFC0
0EF600001DF5
3FE0000008FA
6FB0000005FC
7F90000003FE
8F90000003FE
8F90000003FE
8F90000003FE
8F90000003FE
6FB0000005FD
4FE0000008FA
0EF500000DF5
07FE5002BFD0
00AFFFEFFE30
0005BEFD9100
ENDCHAR
STARTCHAR uni04E7
ENCODING 1255
SWIDTH 501 0
DWIDTH 12 0
BBX 10 18 1 0
BITMAP
0261002610
0CF900BFA0
08E6008E70
0000000000
0000000000
004BEEB500
06FFDDFF70
2FF5005FF3
8FA0000AF9
CF500005FC
DF300003FD
DF300002FE
DF300003FD
CF500004FC
8FA00009F9
2FF5004EF3
07FFDDFF70
005BEEC500
ENDCHAR
STARTCHAR uni04E8
ENCODING 1256
SWIDTH 593 0
DWIDTH 14 0
BBX 12 17 1 0
BITMAP
0004BEEB5000
008FFFFFF900
06FE5004DF70
0DF400003FE1
4FC000000AF5
8F80000007F9
AF60000005FB
BFFFFFFFFFFC
CFDCCCCCCDFD
CF60000005FC
AF70000006FB
8FA0000009F9
4FE100000DF5
0DF700005FE1
06FF6005EF70
008FFFEFFA00
0004BEEC5000
ENDCHAR
STARTCHAR uni04E9
ENCODING 1257
SWIDTH 497 0
DWIDTH 12 0
BBX 10 13 1 0
BITMAP
003BEEB300
04FFDDFF40
1EF6005FE1
6FA00009F7
AF500005FB
CFFFFFFFFD
DFDCCCCCFE
CF500005FD
AF800007FB
6FD0000DF7
1EF7007FE1
04FFDDFF50
003BEEB400
ENDCHAR
STARTCHAR uni04EA
ENCODING 1258
SWIDTH 593 0
DWIDTH 14 0
BBX 12 21 1 0
BITMAP
000640005400
006FF105FF10
003EC003EC00
000000000000
0004BEEB5000
008FFFFFF900
06FE5004DF70
0DF400003FE1
4FC000000AF5
8F80000007F9
AF60000005FB
BFFFFFFFFFFC
CFDCCCCCCDFD
CF60000005FC
AF70000006FB
8FA0000009F9
4FE100000DF5
0DF700005FE1
06FF6005EF70
008FFFEFFA00
0004BEEC5000
ENDCHAR
ENDFONT
